<?xml version="1.0" encoding="utf-8"?>
<!-- Generator: Adobe Illustrator 27.0.0, SVG Export Plug-In . SVG Version: 6.00 Build 0)  -->
<svg version="1.1" id="Layer_1" xmlns="http://www.w3.org/2000/svg" xmlns:xlink="http://www.w3.org/1999/xlink" x="0px" y="0px"
	 viewBox="0 0 122.9 108.8" style="enable-background:new 0 0 122.9 108.8;" xml:space="preserve">
<style type="text/css">
	.st0{fill-rule:evenodd;clip-rule:evenodd;fill:#133458;}
	.st1{clip-path:url(#SVGID_00000118368693993581793820000005368943765904720822_);}
</style>
<path class="st0" d="M15.7,59.9h14.1c1.3,0,2.4,1.1,2.4,2.4v28.8c0,1.3-1.1,2.4-2.4,2.4H15.7c-1.3,0-2.4-1.1-2.4-2.4V62.3
	C13.3,60.9,14.4,59.9,15.7,59.9z M35.3,90.6v-28h15c5.4,1,10.7,3.9,16.1,7.2h9.8c4.4,0.3,6.8,4.8,2.5,7.7c-3.4,2.5-8,2.4-12.6,2
	c-3.2-0.2-3.4,4.1,0,4.2c1.2,0.1,2.4-0.2,3.5-0.2c5.8,0,10.6-1.1,13.5-5.7l1.5-3.5l14.6-7.2c7.3-2.4,12.5,5.2,7.1,10.6
	c-10.2,7.4-21.1,13.8-32.5,19.1c-8.1,4.9-16.1,4.7-24.2,0L35.3,90.6L35.3,90.6z M25.9,82.6c1.5,0,2.8,1.2,2.8,2.7
	c0,1.5-1.2,2.8-2.7,2.8c-1.5,0-2.8-1.2-2.8-2.7c0,0,0,0,0,0C23.2,83.8,24.4,82.6,25.9,82.6z"/>
<g>
	<defs>
		<path id="SVGID_1_" d="M40.6,53.2c0,0,23.3,10.8,32.9,11.9c9.6,1.1,46.1-11.5,46.1-11.5L103.7-4.6L67.2-17.3l-19.7,5.5L40.6,53.2z
			"/>
	</defs>
	<clipPath id="SVGID_00000047756663102245576650000009994906852655439275_">
		<use xlink:href="#SVGID_1_"  style="overflow:visible;"/>
	</clipPath>
	<g style="clip-path:url(#SVGID_00000047756663102245576650000009994906852655439275_);">
		<path class="st0" d="M80.7,35.9c0,0.1-0.1,0.2-0.1,0.4c0,0.6,0.5,1,1,1s1-0.5,1-1c0-0.2,0-0.3-0.1-0.5c0.5,0.1,0.9,0.1,1.4,0.3
			c0.2,0.1,0.4-0.1,0.5-0.3c0.1-0.2-0.1-0.5-0.3-0.5c-0.7-0.2-1.5-0.4-2.2-0.4c-0.7,0-1.5,0.1-2.2,0.4c-0.2,0.1-0.3,0.3-0.3,0.5
			c0.1,0.2,0.3,0.3,0.5,0.3C80.2,36,80.4,35.9,80.7,35.9L80.7,35.9L80.7,35.9L80.7,35.9z M85.7,54.5c-0.8-0.9-1.6-2.1-2.3-3.1
			c-3.9,3.2-9.1,4-14.1-0.3c0,0-0.1,0.1-0.1,0.1c-0.6,0.9-1.3,2-2,2.8C70.3,70.9,83.7,71.2,85.7,54.5L85.7,54.5z M84.4,50.5
			c0.5,0.7,1,1.4,1.5,2.1c3.5,3,13.5,3.6,17.2,5.7c1.2,0.7,2.3,1.5,3.1,2.6c2.2,2.8,2.3,5.2,3.1,8.7c-0.2,2-1.3,3.2-3.6,3.4H47
			c-2.3-0.2-3.4-1.3-3.6-3.4c0.8-3.5,1-5.9,3.1-8.7c0.9-1.1,1.9-2,3.1-2.6c3.5-2,12.7-2.6,16.6-5.3c0.6-0.8,1.2-1.7,1.8-2.5l0.2-0.3
			l0.1,0c-1.6-1.6-3.3-3.9-4.8-6.8c0-0.1,0-0.1,0-0.2l0,0v-1.6l0,0c-0.1,0-0.2,0-0.3,0c-1.6-0.2-2.4-2.2-2.6-4c-0.1-0.5-0.1-1,0-1.5
			c0-0.5,0.1-0.9,0.3-1.3c0.3-0.8,0.9-1.2,1.6-1.1c0.4,0.1,0.7,0.3,1,0.6v-0.6c-0.9-0.5-1.2-2.2-1.4-3.7h0v-0.6c0-0.4,0-0.8,0-1.1
			v-9.4l15,5.8l14.6-5.8v9.3h0.1c0,0.1,0,0.3-0.1,0.4v1.4l-0.1,0c-0.1,1.5-0.3,3.1-1.4,3.8c0.7-0.1,1.2,0.4,1.5,1.1
			c0.1,0.4,0.2,0.8,0.3,1.3c0,0.5,0,1,0,1.5c-0.2,1.9-1.1,3.8-2.6,4c-0.2,0-0.2-0.1-0.2,0.2C88.4,45.2,86.7,48.2,84.4,50.5
			L84.4,50.5z M76.9,3l25.4,9.6l-2,0.8v6.9c0.5,0.3,0.9,1,0.9,1.7c0,1.1-0.8,2-1.8,2c-1,0-1.8-0.9-1.8-2c0-0.7,0.4-1.3,0.9-1.7v-6.2
			l-3.2,1.3v4.9c0.5,0.3,0.9,1,0.9,1.7c0,1.1-0.8,2-1.8,2c-1,0-1.8-0.9-1.8-2c0-0.7,0.4-1.3,0.9-1.7v-4.1l-16.4,6.5l-25.1-9.8
			L76.9,3L76.9,3z M73.1,48c-0.3-0.2-0.4-0.5-0.2-0.8c0.2-0.3,0.5-0.4,0.8-0.2c0.9,0.6,1.8,0.8,2.7,0.8c0.9,0,1.7-0.3,2.6-0.8
			c0.3-0.2,0.6-0.1,0.8,0.2c0.2,0.3,0.1,0.6-0.2,0.8c-1,0.7-2.1,1-3.2,1C75.3,49,74.2,48.6,73.1,48L73.1,48z M83.1,29.7
			c-6.3-0.2-12.4-0.2-18.4,0.1c-0.1,0-0.2,0.1-0.3,0.1v13.3c8,15.4,20.4,10.7,24-1.3v-12C86.4,30,84.6,29.9,83.1,29.7L83.1,29.7z
			 M89.3,40.9v-4.8c0.2-0.9,0.6-1.3,1-1.4C91.8,34.4,91.5,40.6,89.3,40.9L89.3,40.9L89.3,40.9z M75.1,43c-0.2-0.2-0.2-0.5-0.1-0.7
			c0.2-0.2,0.5-0.2,0.7-0.1c0.2,0.2,0.5,0.3,0.7,0.3s0.5-0.1,0.7-0.3c0.2-0.2,0.5-0.1,0.7,0.1c0.2,0.2,0.1,0.5-0.1,0.7
			c-0.4,0.4-0.9,0.5-1.3,0.5C75.9,43.5,75.5,43.3,75.1,43L75.1,43L75.1,43L75.1,43z M63.4,40.9v-4.8c-0.2-0.9-0.6-1.3-1-1.4
			C60.9,34.4,61.1,40.6,63.4,40.9L63.4,40.9L63.4,40.9z M68.7,36.2c-0.2,0.1-0.4,0-0.5-0.3c-0.1-0.2,0-0.5,0.2-0.5
			c0.7-0.3,1.5-0.4,2.2-0.4c0.7,0,1.5,0.1,2.2,0.4c0.2,0.1,0.3,0.3,0.2,0.5c-0.1,0.2-0.3,0.3-0.5,0.3c-0.2-0.1-0.5-0.2-0.7-0.2
			c0,0.1,0,0.2,0,0.3c0,0.6-0.5,1-1,1s-1-0.5-1-1c0-0.1,0-0.3,0.1-0.4C69.6,35.9,69.2,36,68.7,36.2L68.7,36.2L68.7,36.2L68.7,36.2z"
			/>
	</g>
</g>
</svg>
