<?xml version="1.0" encoding="utf-8"?>
<!-- Generator: Adobe Illustrator 27.0.0, SVG Export Plug-In . SVG Version: 6.00 Build 0)  -->
<svg version="1.1" id="Layer_1" xmlns="http://www.w3.org/2000/svg" xmlns:xlink="http://www.w3.org/1999/xlink" x="0px" y="0px"
	 viewBox="0 0 115.5 122.9" style="enable-background:new 0 0 115.5 122.9;" xml:space="preserve">
<style type="text/css">
	.st0{fill-rule:evenodd;clip-rule:evenodd;fill:#133458;}
</style>
<g>
	<path class="st0" d="M37.1,40c-1.2,0-2,0.3-2.6,0.7c-0.3,0.2-0.6,0.5-0.8,0.9c-0.2,0.4-0.3,0.9-0.2,1.4c0,1.6,0.9,3.7,2.5,6l0,0
		l5.2,8.3c2.1,3.3,4.3,6.7,7,9.2c2.6,2.4,5.8,4,10,4c4.5,0,7.9-1.7,10.6-4.2c2.8-2.6,5-6.2,7.2-9.8l5.9-9.7c1.1-2.5,1.5-4.2,1.2-5.2
		c-0.2-0.6-0.8-0.9-1.9-0.9c-0.2,0-0.5,0-0.7,0c-0.3,0-0.5,0-0.8,0c-0.2,0-0.3,0-0.4,0c-0.5,0-1.1,0-1.6-0.1l2-8.9
		c-14.9,2.3-26.1-8.7-41.9-2.2l1.1,10.5C38.2,40.1,37.6,40.1,37.1,40L37.1,40L37.1,40L37.1,40z M72.6,75.5c-0.9-1.2-1.8-2.6-2.7-3.8
		c-0.4-0.6-0.8-1.1-1.1-1.6c-2.8,2.1-6.3,3.4-10.7,3.4c-4.7,0-8.3-1.7-11.3-4.2c0,0,0,0.1-0.1,0.1c-0.5,0.7-1,1.5-1.6,2.3
		c-1,1.5-2.2,3.2-3.4,4.7l-1.6-1.8c1-1.3,2.1-2.9,3-4.3c0.6-0.9,1.2-1.7,1.7-2.4c0.1-0.1,0.2-0.2,0.3-0.3c-2.5-2.6-4.6-5.7-6.5-8.8
		l-5.2-8.3c-1.9-2.8-2.9-5.5-3-7.6c0-1,0.1-1.9,0.5-2.7c0.4-0.8,1-1.5,1.8-2.1c0.4-0.2,0.8-0.5,1.3-0.6c-0.3-4.5-0.5-10.2-0.2-14.9
		c0.1-1.1,0.3-2.2,0.6-3.4c1.3-4.8,4.7-8.6,8.8-11.2c1.5-0.9,3.1-1.7,4.7-2.3c3-1.1,1.5-5.7,4.9-5.8c7.8-0.2,20.6,6.4,25.5,11.8
		c2.9,3.1,4.7,7.3,5.1,12.8l-0.3,13.5l0,0c1.4,0.4,2.4,1.4,2.8,2.8c0.4,1.6,0,4-1.4,7.1l0,0c0,0.1-0.1,0.1-0.1,0.2l-5.9,9.8
		c-2.3,3.8-4.6,7.6-7.7,10.5l-0.1,0.1l0,0c0.4,0.5,0.8,1.1,1.2,1.8c0.7,1,1.4,2.1,2.1,3.1L72.6,75.5L72.6,75.5z M45.2,80.2
		C50.3,83,60,85,69,80.7L58.8,95.5L45.2,80.2L45.2,80.2z M77.4,76c7.6,3.7,21.5,5,27.2,8.1c2.1,1.2,4,2.6,5.5,4.6
		c3.8,5,4.1,22.1,5.5,28.2c-0.3,3.6-2.3,5.6-6.3,5.9h-43l6.5-4.1c2.3-1.5,2.4-2.7,0.9-4.8L63.2,98c0.1-0.1,0.2-0.3,0.3-0.4L77.4,76
		L77.4,76z M58.1,122.9H6.3c-4-0.3-6-2.3-6.3-5.9c1.4-6.1,1.7-23.3,5.5-28.2c1.5-2,3.4-3.5,5.5-4.6c5.1-2.9,17-4.1,24.8-7.1
		l18.4,20.6c0.1,0.2,0.3,0.4,0.4,0.6l-6.6,4.2c-1.1,0.8-1.5,2-0.8,3.6L58.1,122.9L58.1,122.9z M56.4,100.1c1.6,1.2,3.2,1.1,4.8-0.1
		c0.2-0.1,0.4-0.1,0.7-0.2c0,0.2,0,0.4,0,0.6c0,1.7-1.4,3.1-3.1,3.1s-3.1-1.4-3.1-3.1c0-0.2,0-0.4,0-0.6
		C55.9,100,56.2,100.1,56.4,100.1L56.4,100.1z"/>
</g>
</svg>
