<svg xmlns="http://www.w3.org/2000/svg" viewBox="0 0 2183.68 763.24"><defs><style>.cls-1{fill:#133358;}.cls-2{fill:#fff;}</style></defs><g id="Layer_3" data-name="Layer 3"><path class="cls-1" d="M253.3,127.29c.36-.94.73-1.88,1.08-2.79v0h0C254,125.41,253.65,126.34,253.3,127.29Z"/><path class="cls-1" d="M422.26,508.19c-143.2,41.63-237-4.51-290.4-50.54L129.92,456l.69,2.47C166,582.77,286,669.6,422.47,669.6c120.08,0,228.8-67.15,277-171.09l.39-.84-.9-.22C639.47,483,543.2,473.06,422.26,508.19Z"/><path class="cls-1" d="M223.63,448.27a4.26,4.26,0,0,0,6.24-4.47,161.35,161.35,0,0,1-2.15-33.89c4.05-97,93.24-172,199.21-167.54a209.58,209.58,0,0,1,37.8,5,4.26,4.26,0,0,0,3.35-7.69l-56.74-22.53-.77-.16q-3.1-.64-6.3-1.18l-.22,0q-1.12-.18-2.25-.33l-1.19-.21c-.56-.08-1.12-.17-1.7-.23q-1.2-.18-2.43-.33l-.17,0c-2.07-.25-4.19-.48-6.33-.68-.8-.09-1.6-.15-2.4-.21h-.25l-.69-.05-.66,0c-.41,0-.77-.06-1.17-.07l-2.19-.16-.42,0q-1.53-.09-3.09-.15c-.35,0-.72,0-1.08,0-1,0-2-.06-3-.07-2.41,0-4.84,0-7.32,0q-6.92.1-14.17.68c-2.42.2-4.86.43-7.34.71-6,.67-12.26,1.61-18.62,2.81-1.09.21-2.19.42-3.29.65-.93.18-1.87.38-2.81.59s-2.06.44-3.11.68q-3.57.81-7.22,1.73c-5.45,1.4-11,3-16.65,4.77l-.47.15c-2.67.86-5.37,1.75-8.1,2.71-1.45.51-2.89,1-4.34,1.55q-12.74,4.65-26.15,10.75-2.68,1.23-5.42,2.52c-1.55.74-3.1,1.49-4.67,2.26s-3.14,1.55-4.71,2.34-3,1.5-4.49,2.22-2.9,1.4-4.33,2.06c-2.13,1-4.22,1.91-6.24,2.78-1.36.59-2.69,1.14-4,1.66s-2.59,1-3.86,1.51q-4.74,1.79-9.09,3.12c-1.75.54-3.43,1-5.07,1.44-1.1.29-2.17.55-3.22.79-18.89,4.26-31.21,1.18-38.74-6.7-.38-.4-.76-.83-1.12-1.26-6.88-8.18-9.26-20.85-8.79-35.63,0-.39,0-.78,0-1.19,0-.14,0-.29,0-.45,0-.44,0-.89.08-1.33,0-.6.07-1.2.11-1.79.07-.87.13-1.73.2-2.59s.13-1.61.22-2.44l.15-1.25c0-.31.07-.63.11-.94.07-.62.15-1.23.22-1.85,0-.23.06-.45.1-.68.08-.65.17-1.3.27-1.93s.18-1.36.29-2l0-.22c.1-.68.21-1.35.31-2,.07-.33.13-.67.19-1,.32-1.91.68-3.86,1.06-5.81a1.91,1.91,0,0,0,.06-.33c.19-.89.37-1.8.56-2.7s.35-1.64.53-2.46c.51-2.46,1.1-4.93,1.72-7.4q.41-1.74.87-3.48c.12-.49.26-1,.39-1.47.38-1.46.77-2.89,1.17-4.34.06-.2.11-.4.17-.59.31-1.1.61-2.19.93-3.27.22-.79.45-1.57.69-2.35.16-.51.31-1,.46-1.56.26-.88.53-1.75.79-2.62.51-1.68,1-3.37,1.57-5a6.45,6.45,0,0,1,.21-.62q1-3.11,2-6.15c.83-2.49,1.68-4.93,2.52-7.34.41-1.21.84-2.39,1.26-3.58.53-1.45,1.05-2.92,1.6-4.34.07-.18.13-.36.2-.53.49-1.36,1-2.69,1.49-4,.24-.62.47-1.25.71-1.87.35-.93.69-1.83,1-2.74h0a4.25,4.25,0,0,0-7.14-4.35,211.38,211.38,0,0,0,54.68,328.91Z"/><path class="cls-1" d="M151.72,220.05c0-.54,0-1.09.06-1.64,0,.16,0,.31,0,.45C151.75,219.27,151.73,219.66,151.72,220.05Z"/><path class="cls-1" d="M152.17,212.7c.1-1.21.22-2.45.37-3.69l-.15,1.25C152.3,211.09,152.24,211.89,152.17,212.7Z"/><path class="cls-1" d="M158,179.6c-.62,2.47-1.21,4.94-1.72,7.4C156.82,184.55,157.4,182.08,158,179.6Z"/><path class="cls-1" d="M158,179.6c.4-1.65.83-3.28,1.26-4.95-.13.49-.27,1-.39,1.47Q158.41,177.86,158,179.6Z"/><path class="cls-1" d="M159.26,174.65c.44-1.63.88-3.29,1.34-4.93-.06.19-.11.39-.17.59C160,171.76,159.64,173.19,159.26,174.65Z"/><path class="cls-1" d="M169.78,140.78q1.42-4,2.86-7.92c-.55,1.42-1.07,2.89-1.6,4.34C170.62,138.39,170.19,139.57,169.78,140.78Z"/><path class="cls-1" d="M386,213.68l.66,0c-1.32-.11-2.67-.19-4-.27l2.19.16C385.21,213.62,385.57,213.64,386,213.68Z"/><path class="cls-1" d="M404.05,215.8c-1.14-.19-2.29-.37-3.44-.54l1.19.21Q402.93,215.62,404.05,215.8Z"/><path class="cls-1" d="M428.36,221.55a1.82,1.82,0,0,1-.25-.07l.6.19Z"/><path class="cls-1" d="M436.71,224.37c-.74-.28-1.5-.55-2.27-.79.85.29,1.7.6,2.54.9A2.18,2.18,0,0,1,436.71,224.37Z"/><path class="cls-1" d="M468.08,239.7l.11.05-2-1.21,1.77,1.09Z"/><path class="cls-1" d="M468,239.63l-1.77-1.09c-.66-.4-1.34-.8-2-1.19s-1.36-.81-2.06-1.2L460,235l-4.39-2.33c-.37-.18-.74-.36-1.11-.56-.76-.36-1.51-.74-2.27-1.12l-1.16-.54c-.94-.44-1.88-.89-2.82-1.29l-.41-.2-.41-.18c-1-.44-1.92-.86-2.89-1.26l-1.56-.66c-1.34-.56-2.7-1.09-4.08-1.61l-1.69-.65-.24-.09c-.84-.3-1.69-.61-2.54-.9a2.17,2.17,0,0,0-.36-.12l-1.8-.63-1.86-.61c-.57-.17-1.14-.36-1.71-.55l-.6-.19a1.27,1.27,0,0,0-.24-.07l-1.31-.4c-.86-.25-1.71-.51-2.58-.75l-.77-.22c-.88-.25-1.76-.48-2.65-.72l-.38-.09-1.24-.33-.16,0-.17,0-.2-.05-1.84-.45-1.22-.28c-.64-.15-1.28-.3-1.92-.43l-1.08-.23-.67-.15-.34-.07,56.74,22.53Z"/><path class="cls-1" d="M263.66,198.13a52.27,52.27,0,1,0-49.6-59.33c-.22,1.63-.37,3.26-.44,4.94A52.24,52.24,0,0,0,263.66,198.13Z"/><path class="cls-1" d="M724.36,307.58a129.17,129.17,0,0,0-61.29-64.82,2.6,2.6,0,0,0-3.14,4.05c1.23,1.35,2.48,2.78,3.76,4.23l1,1.19,1,1.21.47.57c.85,1,1.69,2,2.54,3,.52.61,1,1.22,1.53,1.84,0,0,0,0,0,0,.71.85,1.41,1.72,2.11,2.6.21.24.42.5.61.76.81,1,1.63,2,2.42,3.08.42.52.81,1.06,1.22,1.58l.22.29c.54.7,1.08,1.41,1.6,2.13l.55.75c.37.49.73,1,1.09,1.48l1.09,1.5c.14.21.29.41.42.62,1.27,1.81,2.51,3.61,3.68,5.44.53.77,1,1.56,1.5,2.34a2.46,2.46,0,0,1,.22.36q1.27,2,2.41,4l.32.55.68,1.22c.47.82.91,1.64,1.32,2.45l.62,1.19c.11.22.24.46.33.68a5.19,5.19,0,0,1,.33.67c.25.49.47,1,.69,1.44.3.67.61,1.34.9,2q.6,1.39,1.11,2.76c.14.36.27.7.39,1,.33.91.64,1.81.9,2.7.11.35.2.68.29,1,.26.88.46,1.74.63,2.59.07.25.11.52.16.78s.13.65.17,1a27,27,0,0,1,.33,2.78c0,.28,0,.56.05.83.64,14.83-11.38,24.6-48.62,20.73l-4.33-.42-4.25-.33-3.9-.24-3-.14c-1,0-2-.07-3-.11q-3.86-.09-7.56-.06h-.33l-2.13,0-1.19,0q-1.39,0-2.79.09c-.83,0-1.65.07-2.47.12a4.19,4.19,0,0,0-.5,0l-.61,0c-.73,0-1.45.09-2.17.15l-1.82.13c-1.69.13-3.35.28-5,.47-.8.08-1.62.18-2.41.28l-2.4.3c-.79.1-1.57.22-2.36.35s-1.47.22-2.19.35-1.65.27-2.46.42-1.48.26-2.21.41-1.48.29-2.21.45c-1.52.32-3,.65-4.45,1-2.09.52-4.14,1.07-6.13,1.64l-1.71.51c-.8.24-1.59.48-2.36.74-1.91.61-3.75,1.26-5.56,1.94-2,.74-4,1.54-5.93,2.37l-1.45.62L560,344c-.22.09-.43.18-.65.29s-.53.23-.77.35l-.13.06-1,.47c-.41.19-.81.39-1.21.6s-.75.38-1.11.56h0l-.49.26c-.43.21-.84.44-1.26.66s-.75.42-1.13.63-.53.27-.78.42h0c-.25.15-.51.31-.77.45l-1.33.76-1.31.77-1.11.68-1.29.82L517.92,377.2a2.6,2.6,0,0,0,3.59,3.65A129,129,0,0,1,542.1,369.7c59.77-25.72,127.31-2.23,150.84,52.48a98.81,98.81,0,0,1,6.18,19.88,2.62,2.62,0,0,0,4.56,1.21A129.6,129.6,0,0,0,724.36,307.58Z"/><path class="cls-1" d="M532.55,361.52l-.11.11c.37-.34.77-.67,1.17-1C533.25,360.92,532.89,361.23,532.55,361.52Z"/><path class="cls-1" d="M517.87,377.23l0,0,.05-.09A.58.58,0,0,1,517.87,377.23Z"/><path class="cls-1" d="M545.34,352c-.11.07-.24.17-.36.23l-.56.37-1.37.91-1.33.92h0l-.14.1-.32.23c-.77.55-1.53,1.09-2.27,1.65l-.38.28c-.55.42-1.08.82-1.6,1.24-.08,0-.17.13-.25.18l-.07.06-1,.78c-.3.23-.59.48-.88.71l-1,.79-.24.21c-.4.33-.8.66-1.17,1,0,0,0,0,0,0-1,.89-2,1.78-2.95,2.68l-.73.7c-.46.44-.91.89-1.38,1.36-.13.11-.25.25-.39.39l-1.33,1.35c-.36.37-.72.76-1.07,1.14s-.7.77-1,1.13-.69.77-1,1.15l-1,1.14-1,1.15c-.9,1.1-1.76,2.18-2.59,3.27l-.05.09,27.65-25.39Z"/><path class="cls-1" d="M553.31,347.27c-.64.35-1.28.69-1.91,1.05.25-.15.51-.28.78-.42S552.93,347.47,553.31,347.27Z"/><path class="cls-1" d="M560,344l1.3-.63c-.91.42-1.83.83-2.72,1.27.24-.12.5-.23.77-.35S559.73,344.1,560,344Z"/><path class="cls-1" d="M553.38,336.48l1.22,1.42c-.12-.16-.25-.3-.38-.46Z"/><path class="cls-1" d="M565.72,351.92l1.21,1.7-.34-.5C566.29,352.72,566,352.32,565.72,351.92Z"/><path class="cls-1" d="M599.29,297.16A25.59,25.59,0,0,0,637,265.73a22.93,22.93,0,0,0-1.06-2.17,25.59,25.59,0,1,0-36.61,33.6Z"/><path d="M970.64,393.68q-8.57,0-12.77-5.83t-4.21-17v-4q0-11.43,5.31-16.69t16.56-7.88l12.82-3.18,2.36,14.85-9.63,2.61a9.6,9.6,0,0,0-5.22,2.78,8.29,8.29,0,0,0-1.71,5.63v2.45a13.1,13.1,0,0,0,1.3,6.44c.87,1.53,2.4,2.29,4.57,2.29a5.45,5.45,0,0,0,3.23-.9,7.16,7.16,0,0,0,2.08-2.37,10.62,10.62,0,0,0,1.14-3.34l2.53,9.14h-2.78a35.4,35.4,0,0,1-2.52,7.63,12.56,12.56,0,0,1-4.78,5.43A15.52,15.52,0,0,1,970.64,393.68Zm15.75-1.14.73-16.48h-.81V343.17l-.33-3.35q0-6.36-2.24-9.18t-8.29-2.81a31.07,31.07,0,0,0-10,1.67,67.42,67.42,0,0,0-8.94,3.71l1.39-18.2a37.88,37.88,0,0,1,6-2.81,50,50,0,0,1,7.47-2.12,43.12,43.12,0,0,1,8.77-.86,36.17,36.17,0,0,1,12.29,1.88,20.8,20.8,0,0,1,8.53,5.59,23,23,0,0,1,4.93,9.38,49.06,49.06,0,0,1,1.59,13.18v53.29Z"/><path d="M1036.49,393.68a40.49,40.49,0,0,1-11.22-1.42A39.35,39.35,0,0,1,1017,389l-1.39-19.5a74.46,74.46,0,0,0,8.16,3.71,25.94,25.94,0,0,0,9.31,1.59c2.77,0,4.72-.54,5.83-1.63a5.86,5.86,0,0,0,1.67-4.41v-.89a6.83,6.83,0,0,0-1-3.64,12.05,12.05,0,0,0-3.47-3.3c-1.66-1.14-4-2.69-7.06-4.65a39.19,39.19,0,0,1-8-6.33,20.32,20.32,0,0,1-4.49-7.34,28.62,28.62,0,0,1-1.39-9.26v-1.15q0-11,6.41-16.85t18.73-5.84a33.67,33.67,0,0,1,10.45,1.52,29.26,29.26,0,0,1,7.5,3.46l1.39,18.28a44.86,44.86,0,0,0-7.1-3.42,23.78,23.78,0,0,0-8.57-1.47,11.73,11.73,0,0,0-4.32.65,4.8,4.8,0,0,0-2.41,1.92,5.87,5.87,0,0,0-.78,3.14V334a6.07,6.07,0,0,0,1.27,3.83,15.91,15.91,0,0,0,3.67,3.27c1.61,1.09,3.55,2.34,5.84,3.75a39.6,39.6,0,0,1,8.44,6,19.55,19.55,0,0,1,4.78,7.18,28.79,28.79,0,0,1,1.55,10.12v1.47q0,11.5-6.24,17.79T1036.49,393.68Z"/><path d="M1080.89,304.49q-6,0-8.69-3.06a11.75,11.75,0,0,1-2.73-8.12v-.9a11.56,11.56,0,0,1,2.73-8.12q2.73-3,8.69-3t8.65,3a11.45,11.45,0,0,1,2.78,8.12v.9a11.63,11.63,0,0,1-2.78,8.12Q1086.77,304.49,1080.89,304.49ZM1070,392.54V310.61h22v81.93Z"/><path d="M1121,393.68a40.49,40.49,0,0,1-11.22-1.42,39.35,39.35,0,0,1-8.28-3.31l-1.39-19.5a72.79,72.79,0,0,0,8.16,3.71,25.89,25.89,0,0,0,9.3,1.59c2.78,0,4.72-.54,5.84-1.63a5.9,5.9,0,0,0,1.67-4.41v-.89a6.84,6.84,0,0,0-1-3.64,11.92,11.92,0,0,0-3.47-3.3q-2.49-1.71-7.06-4.65a39.1,39.1,0,0,1-8-6.33,20.18,20.18,0,0,1-4.49-7.34,28.35,28.35,0,0,1-1.39-9.26v-1.15q0-11,6.41-16.85t18.73-5.84a33.6,33.6,0,0,1,10.44,1.52,29.51,29.51,0,0,1,7.51,3.46l1.39,18.28a44.86,44.86,0,0,0-7.1-3.42,23.82,23.82,0,0,0-8.57-1.47,11.79,11.79,0,0,0-4.33.65,4.73,4.73,0,0,0-2.4,1.92,5.87,5.87,0,0,0-.78,3.14V334a6,6,0,0,0,1.27,3.83,15.7,15.7,0,0,0,3.67,3.27c1.6,1.09,3.55,2.34,5.83,3.75a39.68,39.68,0,0,1,8.45,6A19.4,19.4,0,0,1,1145,358a28.56,28.56,0,0,1,1.55,10.12v1.47q0,11.5-6.24,17.79T1121,393.68Z"/><path d="M1509.58,395.26V291h22.36V395.26ZM1524,311.21V291h29.63v20.24Zm.25,45.86V336.75h28.56v20.32Z"/><path d="M1589.31,396.81q-14.2,0-21.38-8.16t-7.18-24.07V343.93q0-15.92,7.18-24t21.38-8.12q14.12,0,21.3,8.12t7.18,24v20.65q0,15.92-7.18,24.07T1589.31,396.81Zm0-17.87a5.35,5.35,0,0,0,5.18-2.9q1.52-2.9,1.51-8.93V341.48q0-6.12-1.51-9a5.36,5.36,0,0,0-5.18-2.86q-3.84,0-5.31,2.86t-1.46,9v25.63q0,6,1.46,8.93C1585,378,1586.75,378.94,1589.31,378.94Z"/><path d="M1649.7,368.58a20.78,20.78,0,0,0,.57,5.3,5.89,5.89,0,0,0,1.88,3.18,5.51,5.51,0,0,0,3.59,1.07,6.29,6.29,0,0,0,3.3-.86,6.58,6.58,0,0,0,2.33-2.41,10.08,10.08,0,0,0,1.22-3.51l4.49,9.79h-4.57a29.74,29.74,0,0,1-2.73,7.72,13.8,13.8,0,0,1-5.27,5.5c-2.28,1.37-5.36,2.05-9.22,2.05a17.3,17.3,0,0,1-10.08-2.7,15.35,15.35,0,0,1-5.67-8,41.68,41.68,0,0,1-1.79-13.18V313.33h22Zm34.68-55.25v81.93h-21.71l.82-16.81-1.06-.16v-65Z"/><path d="M1696.3,395.26V313.33H1718l-.81,16.89,1.06.16v64.88ZM1731,340a20.49,20.49,0,0,0-.57-5.22,6,6,0,0,0-1.88-3.18,5.53,5.53,0,0,0-3.59-1.06,6.39,6.39,0,0,0-3.22.81,6.72,6.72,0,0,0-2.37,2.37,9.81,9.81,0,0,0-1.26,3.59l-4.49-9.87h4.57a29.07,29.07,0,0,1,2.73-7.68,14.05,14.05,0,0,1,5.35-5.5,17.72,17.72,0,0,1,9.14-2.08q6.19,0,10.08,2.69a15.35,15.35,0,0,1,5.67,8,42.29,42.29,0,0,1,1.79,13.26v59.08h-22Z"/><path d="M1781.58,396.41q-10,0-14.25-7.88t-4.2-22.89V344.09q0-15.82,4.16-23.87t14.45-8a15.74,15.74,0,0,1,8.32,1.95,13.31,13.31,0,0,1,4.94,5.43,31.18,31.18,0,0,1,2.65,7.88h5l-4.08,13.38a23.16,23.16,0,0,0-.78-5.92,7.16,7.16,0,0,0-2.24-3.67,6.14,6.14,0,0,0-4-1.26,5.12,5.12,0,0,0-5,2.89q-1.42,2.91-1.43,8.86v24.64q0,5.88,1.47,8.82a5.27,5.27,0,0,0,5.14,2.94,6.11,6.11,0,0,0,3.27-.86,7.48,7.48,0,0,0,2.37-2.41,10.48,10.48,0,0,0,1.38-3.51l3.27,9.47h-3.76a28.78,28.78,0,0,1-2.65,7.91,13.69,13.69,0,0,1-5.18,5.63A16.68,16.68,0,0,1,1781.58,396.41Zm16.81-1.15.73-17.13-.57-2V329.65l-.24-23.67V287.05h21.78V395.26Z"/><path d="M1846.21,396.41q-8.57,0-12.77-5.84t-4.21-17v-4q0-11.43,5.31-16.69T1851.1,345l12.82-3.18,2.36,14.85-9.63,2.61a9.6,9.6,0,0,0-5.22,2.78,8.29,8.29,0,0,0-1.71,5.63v2.45a13.1,13.1,0,0,0,1.3,6.44c.87,1.53,2.4,2.29,4.57,2.29a5.45,5.45,0,0,0,3.23-.9,7.22,7.22,0,0,0,2.08-2.36,10.77,10.77,0,0,0,1.14-3.35l2.53,9.14h-2.77a35.42,35.42,0,0,1-2.54,7.63,12.54,12.54,0,0,1-4.77,5.43A15.51,15.51,0,0,1,1846.21,396.41Zm15.75-1.15.73-16.48h-.81V345.89l-.33-3.35q0-6.36-2.24-9.18t-8.29-2.81a31.07,31.07,0,0,0-10,1.67,66.86,66.86,0,0,0-8.94,3.71l1.39-18.2a37.88,37.88,0,0,1,6-2.81,50,50,0,0,1,7.47-2.12,43.12,43.12,0,0,1,8.77-.86,36.17,36.17,0,0,1,12.29,1.88,20.69,20.69,0,0,1,8.52,5.59,23,23,0,0,1,4.94,9.38A49.06,49.06,0,0,1,1883,342v53.29Z"/><path d="M1888.89,331.28V313.57h42.92l-1.47,17.71ZM1917,396.41q-7.18,0-11.75-2.45a15.24,15.24,0,0,1-6.81-7.43,29.67,29.67,0,0,1-2.25-12.24V316.51h21.63v52.56c0,2.66.56,4.57,1.67,5.71s3,1.71,5.59,1.71A16.3,16.3,0,0,0,1929,376a24.26,24.26,0,0,0,3.47-1.1l-1.39,18.36a30.83,30.83,0,0,1-6.12,2.21A32,32,0,0,1,1917,396.41ZM1896.64,315V296l21.38-2.7-.81,21.79Z"/><path d="M1950.67,307.21c-4,0-6.87-1-8.7-3.06a11.75,11.75,0,0,1-2.73-8.12v-.9A11.56,11.56,0,0,1,1942,287c1.83-2,4.72-3,8.7-3s6.79,1,8.65,3a11.49,11.49,0,0,1,2.77,8.12v.9a11.67,11.67,0,0,1-2.77,8.12Q1956.53,307.21,1950.67,307.21Zm-10.94,88.05V313.33h22v81.93Z"/><path d="M2000.61,396.81q-14.2,0-21.38-8.16t-7.18-24.07V343.93q0-15.92,7.18-24t21.38-8.12q14.12,0,21.3,8.12t7.18,24v20.65q0,15.92-7.18,24.07T2000.61,396.81Zm0-17.87a5.35,5.35,0,0,0,5.18-2.9q1.51-2.9,1.51-8.93V341.48q0-6.12-1.51-9a5.36,5.36,0,0,0-5.18-2.86q-3.84,0-5.31,2.86t-1.47,9v25.63q0,6,1.47,8.93C1996.28,378,1998.05,378.94,2000.61,378.94Z"/><path d="M2039.45,395.26V313.33h21.71l-.82,16.89,1.06.16v64.88ZM2074.13,340a20.49,20.49,0,0,0-.57-5.22,6,6,0,0,0-1.87-3.18,5.54,5.54,0,0,0-3.59-1.06,6.43,6.43,0,0,0-3.23.81,6.62,6.62,0,0,0-2.36,2.37,9.82,9.82,0,0,0-1.27,3.59l-4.49-9.87h4.57a28.73,28.73,0,0,1,2.74-7.68,14,14,0,0,1,5.34-5.5,17.75,17.75,0,0,1,9.14-2.08c4.13,0,7.5.89,10.08,2.69a15.35,15.35,0,0,1,5.67,8,42,42,0,0,1,1.8,13.26v59.08h-22Z"/><path d="M1216.77,398.42h-22.52V294.12h22.52ZM1209,335.58h30v19.5h-30Zm45.53,62.84H1232V294.12h22.6Z"/><path d="M1281.32,399.56q-8.57,0-12.77-5.83t-4.2-17v-4q0-11.41,5.3-16.69t16.57-7.87L1299,345l2.37,14.85-9.63,2.61a9.66,9.66,0,0,0-5.23,2.77,8.33,8.33,0,0,0-1.71,5.63v2.45a13.12,13.12,0,0,0,1.3,6.45c.87,1.52,2.4,2.29,4.58,2.29a5.44,5.44,0,0,0,3.22-.9,7,7,0,0,0,2.08-2.37,10.71,10.71,0,0,0,1.14-3.34l2.53,9.13h-2.77a35.5,35.5,0,0,1-2.53,7.64,12.48,12.48,0,0,1-4.78,5.42A15.42,15.42,0,0,1,1281.32,399.56Zm15.75-1.14.73-16.49H1297V349.05l-.33-3.35q0-6.36-2.24-9.18t-8.29-2.82a30.81,30.81,0,0,0-10,1.68,66.65,66.65,0,0,0-8.94,3.71l1.39-18.2a38.93,38.93,0,0,1,6-2.82A50.22,50.22,0,0,1,1282,316a43.24,43.24,0,0,1,8.78-.85,36.16,36.16,0,0,1,12.28,1.87,20.93,20.93,0,0,1,8.53,5.59,23.12,23.12,0,0,1,4.93,9.39,48.59,48.59,0,0,1,1.6,13.18v53.29Z"/><path d="M1329.39,398.42V316.48h21.7l-.81,16.9,1.06.16v64.88Zm34.68-55.25a20.38,20.38,0,0,0-.57-5.22,6,6,0,0,0-1.88-3.19,5.58,5.58,0,0,0-3.59-1.06,6.3,6.3,0,0,0-5.59,3.19,9.82,9.82,0,0,0-1.27,3.59l-4.48-9.88h4.57a28.65,28.65,0,0,1,2.73-7.67,14.08,14.08,0,0,1,5.35-5.51,17.7,17.7,0,0,1,9.14-2.08,17.32,17.32,0,0,1,10.07,2.69,15.39,15.39,0,0,1,5.68,8,42.38,42.38,0,0,1,1.79,13.26v59.09h-22Z"/><path d="M1414.67,399.56q-10.05,0-14.25-7.87t-4.2-22.9V347.25q0-15.83,4.16-23.87t14.45-8a15.65,15.65,0,0,1,8.32,2,13.31,13.31,0,0,1,4.94,5.43,31.11,31.11,0,0,1,2.65,7.87h5L1431.64,344a23.54,23.54,0,0,0-.78-5.92,7.08,7.08,0,0,0-2.24-3.67,6.09,6.09,0,0,0-4-1.27,5.13,5.13,0,0,0-5,2.9q-1.42,2.89-1.43,8.85v24.65c0,3.92.49,6.85,1.47,8.81a5.27,5.27,0,0,0,5.14,2.94,6,6,0,0,0,3.27-.86,7.42,7.42,0,0,0,2.36-2.4,10.45,10.45,0,0,0,1.39-3.51l3.27,9.46h-3.76a29.07,29.07,0,0,1-2.65,7.92,13.75,13.75,0,0,1-5.18,5.63A16.77,16.77,0,0,1,1414.67,399.56Zm16.81-1.14.73-17.14-.57-2V332.81l-.25-23.67V290.21h21.79V398.42Z"/><ellipse cx="878.21" cy="344.32" rx="59.95" ry="61.7"/><path class="cls-2" d="M833.85,344.35c3.69,1.36,7.41,2.57,11.16,3.55a74.33,74.33,0,0,0,11.3,2.18c1,.13,1.89.18,2.83.25s1.88.09,2.81.06a31.25,31.25,0,0,0,5.5-.48,22.55,22.55,0,0,0,5.13-1.53,18.6,18.6,0,0,0,4.4-2.78l2-2,.57-.55c.2-.18.41-.35.62-.52.41-.33.81-.69,1.25-1a26.64,26.64,0,0,1,5.52-3.12,31,31,0,0,1,6-1.82,38.2,38.2,0,0,1,6.09-.73,48.75,48.75,0,0,1,6.05.15c2,.18,4,.47,5.94.84a53.5,53.5,0,0,1,11.34,3.53A94,94,0,0,0,910.75,339c-1.92-.12-3.85-.16-5.76-.1s-3.81.18-5.68.4a40,40,0,0,0-5.51,1.05c-.9.22-1.78.51-2.65.8l-1.28.49c-.43.16-.83.37-1.25.55A24.21,24.21,0,0,0,884,345c-.37.26-.69.57-1,.85-.17.14-.35.28-.51.43l-.48.47-1,1-1.19,1.13a21.5,21.5,0,0,1-5.55,3.41,24,24,0,0,1-6.15,1.64,31.52,31.52,0,0,1-6.2.24,41.85,41.85,0,0,1-6-.75,49.45,49.45,0,0,1-5.84-1.49c-1.91-.6-3.79-1.26-5.63-2a64,64,0,0,1-10.52-5.47Z"/><path class="cls-2" d="M838.49,330.53c3.33,1.18,6.66,2.23,10,3.08a68.8,68.8,0,0,0,10.11,1.88c.85.11,1.69.15,2.53.21s1.67.07,2.5.05a28.23,28.23,0,0,0,4.89-.45,20.13,20.13,0,0,0,4.53-1.36,17.13,17.13,0,0,0,3.88-2.46l1.81-1.76.53-.5.55-.47c.38-.3.74-.63,1.13-.9a23.64,23.64,0,0,1,5-2.81,27.5,27.5,0,0,1,5.38-1.63,35.14,35.14,0,0,1,5.48-.64,42.82,42.82,0,0,1,5.44.16c1.8.18,3.57.45,5.33.79A46.85,46.85,0,0,1,917.72,327a86.22,86.22,0,0,0-10.41-1.13c-1.72-.1-3.44-.13-5.15-.06s-3.39.18-5.06.39a37.55,37.55,0,0,0-4.9.95c-.8.21-1.58.47-2.35.72l-1.14.44c-.38.15-.74.34-1.11.49a21.74,21.74,0,0,0-4.1,2.46c-.32.23-.61.5-.92.75l-.45.38-.42.42-.89.88-1.08,1a19.76,19.76,0,0,1-5,3.09,22.2,22.2,0,0,1-5.56,1.47,27.71,27.71,0,0,1-5.6.2,36.32,36.32,0,0,1-5.43-.7,44.28,44.28,0,0,1-5.24-1.36c-1.71-.55-3.39-1.14-5-1.84a56.28,56.28,0,0,1-9.39-5Z"/><path class="cls-2" d="M847.44,314.83c2.61.83,5.22,1.56,7.83,2.17a57.88,57.88,0,0,0,7.81,1.31,31,31,0,0,0,3.84.14,21.38,21.38,0,0,0,3.7-.37,15.1,15.1,0,0,0,3.4-1,12.78,12.78,0,0,0,2.87-1.84l1.39-1.34a10.49,10.49,0,0,1,.86-.77c.3-.24.58-.5.9-.72a18.79,18.79,0,0,1,4-2.21,23.89,23.89,0,0,1,8.56-1.72,34.49,34.49,0,0,1,8.4.88,36,36,0,0,1,4,1.16c.65.23,1.3.48,1.94.74s1.27.55,1.87.88a76.81,76.81,0,0,0-8.08-.63,47.36,47.36,0,0,0-7.85.4,30.43,30.43,0,0,0-3.73.77,20.79,20.79,0,0,0-3.47,1.28,17,17,0,0,0-3.07,1.86c-.25.17-.46.38-.69.57a6.16,6.16,0,0,0-.65.6l-.68.67-.87.82a15.51,15.51,0,0,1-4,2.46,17.58,17.58,0,0,1-4.42,1.15,21.8,21.8,0,0,1-4.41.13,29.92,29.92,0,0,1-4.26-.59,40.69,40.69,0,0,1-8-2.63,41.52,41.52,0,0,1-3.71-1.87,31.15,31.15,0,0,1-3.49-2.22Z"/><path class="cls-2" d="M886,360.18c-3.82,1.73-5.24,3.24-11,5.41-6.34,2.39-16.84,6.34-27.75,2.43a29.54,29.54,0,0,1-10.52-6.61l-.29-.25.11.37c5.22,18.44,23,31.33,43.1,31.33,17.73,0,33.79-10,40.9-25.39l.06-.12,2.82-6.39C904.87,354.75,893.27,356.9,886,360.18Z"/><path d="M1230.16,485.84v-48.3h3.73l23.53,36.16L1281,437.41h3.65v48.43h-6.48V452.38l-19.19,30h-3l-19.25-30v33.46Z"/><path d="M1297.23,452.72h6.14V472a8.48,8.48,0,0,0,2.59,6.63q2.58,2.34,7.28,2.34a11.72,11.72,0,0,0,9.1-3.86V452.72h6.15v33.12H1323l-.42-3q-3.79,3.58-10.35,3.59-7,0-11-3.8t-4-10.56Z"/><path d="M1342.6,454.48q3.4-2.44,9.9-2.45,7.65,0,11.66,3.45V461q-3.45-3.3-11-3.31-8.14,0-8.14,3.73a3.2,3.2,0,0,0,2,2.76,21,21,0,0,0,6.25,1.86q7,1.24,10.24,3.8a8.19,8.19,0,0,1,3.28,6.83A8.28,8.28,0,0,1,1363,484q-3.79,2.55-11,2.55-8,0-12.56-3.45v-5.52q4.06,3.31,12.07,3.32a17.39,17.39,0,0,0,6.87-1.11c1.68-.73,2.52-1.75,2.52-3a3.28,3.28,0,0,0-2-2.8,21.8,21.8,0,0,0-6.52-2q-6.83-1.23-10-3.76a8.8,8.8,0,0,1,.25-13.73Z"/><path d="M1395.35,452.72v5.39h-10.28V475a5.92,5.92,0,0,0,1.62,4.38A5.83,5.83,0,0,0,1391,481a6.74,6.74,0,0,0,4.35-1.38v5.11a11,11,0,0,1-5.94,1.59,10.56,10.56,0,0,1-7.59-2.76,9.57,9.57,0,0,1-2.9-7.25V458.11h-6.07v-5.39h6.07v-5.38l6.15-3v8.41Z"/><path d="M1406.52,483.67a8.56,8.56,0,0,1-3.51-7.21,8.78,8.78,0,0,1,3.93-7.59q3.93-2.76,10.9-2.76a55.74,55.74,0,0,1,7.87.69v-1.73q0-7.31-9.87-7.31-6.55,0-10.28,3v-5.59a20.6,20.6,0,0,1,11.38-2.9q7.24,0,11.11,3.14t3.87,9v14.14c0,2,1.38,3,4.14,3v4.07a7.17,7.17,0,0,1-3.18.62,7,7,0,0,1-6.21-3,17.67,17.67,0,0,1-10.49,3Q1410,486.33,1406.52,483.67Zm5.32-11.11a4.26,4.26,0,0,0-2.62,3.83,3.93,3.93,0,0,0,2.1,3.49,11.26,11.26,0,0,0,5.83,1.27,12.19,12.19,0,0,0,8.56-3v-6.35a52.47,52.47,0,0,0-6.63-.62A15.43,15.43,0,0,0,1411.84,472.56Z"/><path d="M1444.75,452.72h5.52l.28,4a13.24,13.24,0,0,1,10.55-4.63,15.88,15.88,0,0,1,4.63.69v6a11.66,11.66,0,0,0-14.84,3.51v23.53h-6.14Z"/><path d="M1476.56,457a16.46,16.46,0,0,1,12.21-4.73,16.06,16.06,0,0,1,8.9,2.35V436.16h6.21v49.68h-5.52l-.27-2.13a18,18,0,0,1-21.53-2.14,16.86,16.86,0,0,1-4.69-12.35A16.62,16.62,0,0,1,1476.56,457Zm4.9,3.9a11.88,11.88,0,0,0,16.21,17.31v-17.8a11.39,11.39,0,0,0-7.86-2.76A11.26,11.26,0,0,0,1481.46,460.87Z"/><path d="M1537.38,454.48q3.42-2.44,9.9-2.45,7.67,0,11.66,3.45V461q-3.45-3.3-11-3.31c-5.42,0-8.14,1.24-8.14,3.73a3.22,3.22,0,0,0,2,2.76A21,21,0,0,0,1548,466q7,1.24,10.25,3.8a8.84,8.84,0,0,1-.52,14.14q-3.8,2.55-11,2.55-8,0-12.56-3.45v-5.52q4.08,3.31,12.08,3.32a17.33,17.33,0,0,0,6.86-1.11c1.68-.73,2.52-1.75,2.52-3a3.27,3.27,0,0,0-2-2.8,22,22,0,0,0-6.53-2q-6.83-1.23-10-3.76a8.81,8.81,0,0,1,.24-13.73Z"/><path d="M1598.48,457.38q4.49,5.36,3.93,13.91h-26.63a10.9,10.9,0,0,0,4.66,7.07,16.5,16.5,0,0,0,9.55,2.58q6.71,0,10.84-3.51v5.79a20.79,20.79,0,0,1-11.8,3.31q-8.83,0-14.18-4.79T1569.5,469a16.7,16.7,0,0,1,4.66-12.21,16.16,16.16,0,0,1,12.11-4.77Q1594,452,1598.48,457.38Zm-2.14,8.87a9.22,9.22,0,0,0-3.1-6.42,10.21,10.21,0,0,0-7-2.41,10.35,10.35,0,0,0-7,2.41,10.79,10.79,0,0,0-3.59,6.42Z"/><path d="M1639.81,457.38q4.49,5.36,3.94,13.91h-26.64a10.9,10.9,0,0,0,4.66,7.07,16.52,16.52,0,0,0,9.55,2.58q6.71,0,10.84-3.51v5.79a20.76,20.76,0,0,1-11.8,3.31q-8.83,0-14.18-4.79T1610.83,469a16.7,16.7,0,0,1,4.66-12.21A16.16,16.16,0,0,1,1627.6,452Q1635.33,452,1639.81,457.38Zm-2.14,8.87a9.22,9.22,0,0,0-3.1-6.42,10.21,10.21,0,0,0-7-2.41,10.37,10.37,0,0,0-7,2.41,10.79,10.79,0,0,0-3.59,6.42Z"/><path d="M1656.85,457a16.47,16.47,0,0,1,12.22-4.73,16.11,16.11,0,0,1,8.9,2.35V436.16h6.21v49.68h-5.52l-.28-2.13a16.23,16.23,0,0,1-9.31,2.62,16.42,16.42,0,0,1-12.22-4.76,16.9,16.9,0,0,1-4.69-12.35A16.66,16.66,0,0,1,1656.85,457Zm4.9,3.9A11.88,11.88,0,0,0,1678,478.18v-17.8a12.47,12.47,0,0,0-16.22.49Z"/></g></svg>