<?xml version="1.0" encoding="utf-8"?>
<!-- Generator: Adobe Illustrator 27.0.0, SVG Export Plug-In . SVG Version: 6.00 Build 0)  -->
<svg version="1.1"
	 id="Layer_1" shape-rendering="geometricPrecision" image-rendering="optimizeQuality" text-rendering="geometricPrecision"
	 xmlns="http://www.w3.org/2000/svg" xmlns:xlink="http://www.w3.org/1999/xlink" x="0px" y="0px" viewBox="0 0 512 438.8"
	 style="enable-background:new 0 0 512 438.8;" xml:space="preserve">
<style type="text/css">
	.st0{fill-rule:evenodd;clip-rule:evenodd;fill:#ca8a04;}
</style>
<path class="st0" d="M154.1,141.2c-3.9-1.3-7.6-3.3-11.1-6c-0.5,0.4-0.9,0.9-1.3,1.6c-1.6,2.7-2.4,6.8-2.3,11.6
	c0.1,12.3,6.2,27.9,20.3,35.1l0.2,0.1c3.4-0.5,6.6,1.9,7.1,5.3c2.4,16.8,6.9,32.6,14.7,45c7.5,12,18.2,20.9,33,24.8
	c0.8,0.2,1.5,0.5,2.1,1c6.4,4.7,12.7,8.2,19,10.5c6.2,2.3,12.4,3.4,18.5,3.5c6.5,0.1,13.1-1.1,19.7-3.4c6.7-2.4,13.5-5.9,20.3-10.7
	c1-0.7,2.1-1,3.2-1.1c13.4-1,23.7-9.2,31.7-20.5c8.5-12,14.5-27.5,18.6-42c0.4-1.6,1.5-2.9,2.9-3.7c0.5-0.4,1-0.7,1.5-0.9l2-0.9
	l1.9-1c13.6-7.7,19.2-23.2,19-35.2c-0.1-4.5-0.9-8.3-2.5-10.9c-0.8-1.4-1.9-2.2-3-2.1c-3.5,0.3-8.5,4.4-15.1,14.3
	c-0.9,1.4-2.3,2.4-4,2.7c-3.5,0.8-6.9-1.4-7.6-4.9c-4.6-21.1-2-34.7,0.5-47.8c2-10.2,3.9-20.1,1.4-33.1c-1.5-8-3.4-15.4-6.4-21.9
	c-2.8-6.2-6.7-11.6-12.3-16.3C309,20.1,283,12.9,256.9,12.8c-26.5-0.1-53.1,7-71,21c-3.3,2.6-6,5.7-8.2,9c-2.4,3.5-4.3,7.3-6.1,11.1
	c-7.6,16-5.4,27.8-2.7,42.3c2.4,13.1,5.2,28.2,2.8,49.9c-0.2,1.9-1.2,3.6-2.8,4.6c-2.9,2-6.9,1.2-8.9-1.8c0,0,0,0,0,0
	C157.9,145.8,155.9,143.2,154.1,141.2z M334.9,292.9c-7.5-7.6-13.8-18.1-19.3-26.3c-4.9,2.3-10.1,3.8-15.5,4.4
	c-7.2,4.9-14.6,8.7-22,11.3c-7.9,2.8-15.9,4.2-23.9,4.1c-7.6-0.1-15.2-1.5-22.7-4.2c-7.1-2.6-14.1-6.4-21.2-11.5
	c-7.5-2.1-14.1-5.2-19.9-9.2c-4.2,9.6-12,27.3-13.7,29.9C205.4,332.8,304.5,335.3,334.9,292.9z M326.7,259.4
	c4.4,6.4,8.9,12.9,14.1,18.9l0,0c28.4,25.5,90.8,30.6,122.1,48.1c9.9,5.5,18.8,12.5,26,22c18,23.7,18.7,48.8,22.4,77.4
	c0.5,2,0.7,3.9,0.7,5.9c0,4-3.2,7.1-7.1,7.1H7.2c-3.9,0-7.2-3.2-7.2-7.1c0-2,0.3-4,0.8-6c3.6-28.5,4.4-53.6,22.3-77.3
	c7.2-9.5,16.1-16.5,26-22c30.2-16.9,88.5-22.2,119.2-45.7c1.9-3.3,3.9-7.4,5.8-11.8c2.3-5.3,4.5-11,6.4-16
	c-3.5-3.7-6.7-7.8-9.4-12.2c-8.1-12.9-13-28.5-15.8-45.2c-0.5-0.1-1-0.3-1.5-0.6c-18.9-9.7-27.1-30.2-27.2-46.4
	c-0.1-7,1.3-13.4,4-18.1c1-1.8,2.2-3.3,3.5-4.6c-50.9-59.1-9.8-111.6,42.1-100.7c0.6-0.5,1.2-1,1.8-1.5C198.2,7.9,227.7-0.2,257,0
	c28.9,0.2,57.9,8.3,77.6,24.6c0.7,0.6,1.4,1.2,2.1,1.8c52.2-13.1,95.6,39.3,44.2,101.1c-0.9,1.2-1.7,2.2-2.6,3.3
	c2.2,1.4,4.1,3.5,5.6,6c2.7,4.4,4.2,10.6,4.3,17.4c0.2,15.9-7.3,36.2-25.5,46.6c-0.8,0.5-1.7,0.9-2.6,1.4l-1,0.5
	c-4.4,14.8-10.7,30.3-19.6,42.9C335.7,250.7,331.5,255.5,326.7,259.4L326.7,259.4z M273.9,103.8c21.4-14.3,40.9-10.4,58.7,7.5
	c3.5,3.4,1,8.6-4.4,6.6c-16.8-11-33.6-13.4-50.6-5.8C271.9,113.3,269.6,107.3,273.9,103.8z M240.8,103.8
	c-21.4-14.3-40.9-10.4-58.7,7.5c-3.5,3.4-1.1,8.6,4.4,6.6c16.8-11,33.6-13.4,50.6-5.8C242.8,113.3,245.1,107.3,240.8,103.8z
	 M196.9,126.6c-1.5,0.5-3.2-0.3-3.7-1.8c-0.5-1.5,0.3-3.1,1.8-3.7c5.9-2,11.9-2.9,17.8-2.9c5.9,0,11.8,1,17.7,2.9
	c1.5,0.5,2.4,2.1,1.9,3.6c-0.5,1.5-2.1,2.3-3.7,1.9c-1.9-0.6-3.9-1.1-5.9-1.5c0.2,0.6,0.3,1.2,0.3,1.9c0,3.9-3.7,7.1-8.2,7.1
	c-4.5,0-8.2-3.2-8.2-7.1c0-1,0.2-1.9,0.6-2.7C203.9,124.6,200.4,125.4,196.9,126.6L196.9,126.6z M288,124.4
	c-0.3,0.8-0.6,0.1-0.6,2.5c0,2.4,3.7,7.1,8.2,7.1c4.5,0,8.2-3.2,8.2-7.1c0-1.1-0.3-2.2-0.8-3.1c3.6,0.3,7.2,1,10.9,2.1
	c1.5,0.4,3.2-0.4,3.6-2c0.4-1.5-0.5-3.1-2-3.6c-5.9-1.7-11.9-2.5-17.8-2.5c-5.9,0-11.7,0.8-17.5,2.5c-1.5,0.4-2.4,2-2,3.6
	c0.5,1.5,2.1,2.4,3.6,2C283.8,125.2,285.9,124.8,288,124.4z M250.9,242.1c-2.4,0-4.3-1.9-4.3-4.3s1.9-4.3,4.3-4.3h12.9
	c2.4,0,4.3,1.9,4.3,4.3l0,0c0,2.4-1.9,4.3-4.3,4.3l0,0H250.9L250.9,242.1z M238.2,223.4c-2.3-0.7-3.6-3-2.9-5.3
	c0.7-2.3,3-3.6,5.3-2.9c11.2,3.3,22.3,3.6,33.4,0c2.2-0.7,4.6,0.5,5.4,2.8c0.7,2.2-0.5,4.6-2.8,5.4
	C263.8,227.4,251,227.1,238.2,223.4L238.2,223.4z M237.5,196.3c-2.1-1.1-3-3.6-1.9-5.7c0,0,0,0,0,0c1.1-2.1,3.6-3,5.8-1.9
	c5.6,2.8,11.1,4.2,16.4,4.2c5.3,0,10.5-1.4,15.6-4.1c2.1-1.1,4.7-0.3,5.8,1.8c1.1,2.1,0.3,4.7-1.8,5.8c-6.4,3.4-12.9,5.1-19.6,5.1
	C251,201.3,244.3,199.7,237.5,196.3L237.5,196.3z"/>
</svg>
