<?xml version="1.0" encoding="utf-8"?>
<!-- Generator: Adobe Illustrator 27.0.0, SVG Export Plug-In . SVG Version: 6.00 Build 0)  -->
<svg version="1.1" id="Layer_1" xmlns="http://www.w3.org/2000/svg" xmlns:xlink="http://www.w3.org/1999/xlink" x="0px" y="0px"
	 viewBox="0 0 122.9 76.8" style="enable-background:new 0 0 122.9 76.8;" xml:space="preserve">
<style type="text/css">
	.st0{fill:#ca8a04;}
</style>
<path class="st0" d="M69.9,14c0.7,0,1.4,0.1,2,0.3c0.4,0.1,0.9,0.3,1.3,0.5v-1.2c0-0.9,0.1-1.8,0.5-2.6c0.3-0.8,0.9-1.6,1.5-2.2
	c0.6-0.6,1.4-1.1,2.2-1.5C78.2,7,79.1,6.8,80,6.8l0,0c0.7,0,1.4,0.1,2,0.3c0.5,0.2,0.9,0.4,1.4,0.6V6.8c0-0.9,0.3-1.8,0.6-2.6
	c0.3-0.8,0.8-1.6,1.5-2.2l0,0c0.6-0.6,1.4-1.1,2.2-1.5C88.5,0.2,89.4,0,90.3,0c1.8,0,3.6,0.7,4.8,2c0.6,0.6,1.1,1.4,1.5,2.2
	C97,5.1,97.1,6,97.1,6.8v0.9c0.4-0.2,0.9-0.4,1.3-0.6c1.5-0.5,3.2-0.4,4.6,0.2c2.6,1.1,4.2,3.6,4.2,6.3v30.4c0,0.3,0.1,0.5,0.1,0.8
	c0,0.3,0,0.6,0,0.8v1.1c0.7-0.7,1.4-1.3,1.8-1.8l0.4-0.4c1.2-1.2,2.6-2.1,4.2-2.7c1.4-0.5,2.9-0.5,4.3,0c0.6,0.2,1.1,0.4,1.6,0.7
	c0.5,0.3,0.9,0.7,1.3,1.1c0.4,0.4,0.7,0.9,1,1.4c0.3,0.5,0.5,1.1,0.6,1.6c0.4,1.6,0.2,3.3-0.4,4.8c-0.7,1.7-1.8,3.2-3.2,4.4
	l-0.1,0.1c-0.8,0.8-1.8,1.8-2.9,3.1c-4.9,5.3-12.9,13.8-18,15.9c-4.1,1.7-10.5,2.1-16.4,1.3c-5.3-0.7-10.3-2.4-13.2-5.2l2.6-2.5
	c2.3,2.2,6.6,3.7,11.3,4.2c5.3,0.7,11,0.3,14.4-1.1c4.5-1.8,12.9-10.9,17.4-15.7c1-1.1,1.8-2,2.3-2.5l0.2-0.2h0.1
	c0.9-0.8,1.6-1.7,2.1-2.8c0.4-0.9,0.5-1.9,0.3-2.8c-0.1-0.3-0.2-0.5-0.3-0.8c-0.1-0.2-0.3-0.5-0.5-0.7l0,0c-0.2-0.2-0.4-0.4-0.6-0.5
	c-0.2-0.1-0.5-0.3-0.7-0.3l0,0c-0.8-0.2-1.6-0.2-2.3,0.1c-0.9,0.4-1.8,1-2.5,1.7c-0.4,0.4-1.6,1.6-2.7,2.6c-0.6,0.5-1.2,1.1-1.7,1.5
	c-0.4,0.3-0.8,0.6-1.2,0.9c-0.1,0.1-0.3,0.2-0.5,0.2c-0.2,0.1-0.3,0.1-0.5,0.1c-0.1,0-0.1,0-0.2,0l-1.2-0.6
	c-0.1-0.1-0.2-0.2-0.2-0.3l-0.3-5.9c0-5.8,0-10.9,0-16c0-5.5,0-10.9,0-16.1c0-0.4-0.1-0.8-0.2-1.2c-0.2-0.4-0.4-0.7-0.7-1.1
	c-0.3-0.3-0.6-0.5-1-0.7c-0.4-0.2-0.8-0.2-1.2-0.2c-0.9,0-1.7,0.3-2.3,0.9c-0.6,0.6-1,1.4-1,2.3v25.5c0,0.2-0.1,0.3-0.3,0.3h-3.2
	c-0.2,0-0.3-0.1-0.3-0.3V6.9c0-0.4-0.1-0.8-0.2-1.2c-0.2-0.4-0.4-0.7-0.7-1c-0.3-0.3-0.7-0.5-1.1-0.7c-0.4-0.2-0.8-0.2-1.2-0.2
	c-0.4,0-0.8,0.1-1.2,0.2c-0.4,0.2-0.7,0.4-1,0.7c-0.3,0.3-0.5,0.6-0.7,1c-0.2,0.4-0.2,0.8-0.2,1.2v32.4c0,0.2-0.1,0.3-0.3,0.3H86
	c-0.5-1.2-1.2-2.4-2-3.4c-0.2-0.3-0.5-0.7-0.8-1V13.6c0-0.4-0.1-0.8-0.2-1.2c-0.2-0.4-0.4-0.7-0.7-1.1c-0.6-0.6-1.4-0.9-2.3-0.9
	c-0.4,0-0.8,0.1-1.2,0.2c-1.2,0.5-2,1.7-2,3v17c-1.2-0.5-2.4-0.8-3.6-1v-8.8c0-0.4-0.1-0.8-0.2-1.2c-0.2-0.4-0.4-0.8-0.7-1.1
	c-0.3-0.3-0.7-0.5-1.1-0.7c-0.4-0.2-0.8-0.3-1.2-0.2c-0.4,0-0.8,0.1-1.2,0.2c-0.4,0.2-0.7,0.4-1,0.7c-0.3,0.3-0.5,0.7-0.7,1.1
	c-0.2,0.4-0.2,0.8-0.2,1.2v9.1c-1.3,0.3-2.5,0.8-3.6,1.4V20.9c0-2.8,1.7-5.3,4.2-6.3C68.2,14.2,69,14,69.9,14z M61.2,41
	c2.6-2.7,4.4-5,8.3-5.4c7.4-0.8,14.2,6.7,10.5,14.2c-1.5,2.6-3.4,5-5.6,7.2c-2.6,2.7-5.6,5.4-7.6,7.4l-5.6,5.5l-4.6-4.4
	c-5.5-5.4-14.6-12.1-14.9-20.4c-0.2-5.8,4.4-9.6,9.7-9.5C56.2,35.6,58.2,38,61.2,41L61.2,41z M51,14.3c0.6-0.2,1.3-0.3,2-0.3
	c0.9,0,1.8,0.2,2.6,0.5c2.6,1.1,4.2,3.6,4.2,6.3v10.9c-1.1-0.7-2.3-1.2-3.6-1.6v-9.3c0-0.4-0.1-0.8-0.2-1.2
	c-0.2-0.4-0.4-0.8-0.7-1.1c-0.3-0.3-0.6-0.5-1-0.7c-1.2-0.5-2.6-0.2-3.5,0.7l0,0c-0.6,0.6-1,1.4-1,2.3v8.8c-1.2,0.1-2.4,0.4-3.6,0.8
	V13.6c0-1.8-1.5-3.2-3.2-3.2c-0.9,0-1.7,0.3-2.3,0.9c-0.3,0.3-0.5,0.7-0.7,1.1c-0.2,0.4-0.2,0.8-0.2,1.2v20.9
	c-1.3,1.5-2.4,3.2-3,5.1h-0.5c-0.2,0-0.3-0.1-0.3-0.3V6.9c0-0.4-0.1-0.8-0.2-1.2c-0.2-0.4-0.4-0.7-0.7-1c-0.3-0.3-0.6-0.5-1-0.7
	c-0.4-0.2-0.8-0.2-1.2-0.2c-0.4,0-0.8,0.1-1.2,0.2c-0.4,0.2-0.8,0.4-1.1,0.7c-0.3,0.3-0.5,0.6-0.7,1l0,0c-0.2,0.4-0.3,0.8-0.2,1.2
	v32.5c0,0.2-0.1,0.3-0.3,0.3H26c-0.2,0-0.3-0.1-0.3-0.3V13.7c0-0.4-0.1-0.8-0.2-1.2c-0.2-0.4-0.4-0.7-0.7-1l0,0
	c-0.3-0.3-0.6-0.5-1-0.7l0,0c-0.4-0.2-0.8-0.2-1.2-0.2c-0.4,0-0.8,0.1-1.2,0.2c-0.4,0.2-0.7,0.4-1,0.7c-0.3,0.3-0.5,0.7-0.7,1.1
	c-0.2,0.4-0.2,0.8-0.2,1.2c0,5.1,0,10.6,0,16.1c0,5.1,0,10.2,0,16L19,51.7c0,0.1-0.1,0.2-0.2,0.3l-1.1,0.6c-0.1,0-0.1,0-0.2,0
	c-0.2,0-0.3,0-0.5-0.1c-0.2-0.1-0.3-0.1-0.5-0.2c-0.5-0.2-1-0.5-1.5-0.9c-0.5-0.4-1.1-1-1.7-1.5c-1.1-1.1-2.3-2.2-2.7-2.7
	c-0.7-0.7-1.6-1.3-2.5-1.7c-0.7-0.3-1.6-0.3-2.3-0.1c-0.2,0.1-0.5,0.2-0.7,0.3c-0.2,0.1-0.4,0.3-0.6,0.5l0,0
	c-0.2,0.2-0.3,0.4-0.5,0.7c-0.1,0.3-0.2,0.5-0.3,0.8c-0.2,1-0.1,2,0.3,2.8c0.5,1.1,1.2,2.1,2.1,2.8l0,0l0.2,0.2
	c0.5,0.5,1.3,1.4,2.3,2.5c4.5,4.8,12.9,13.9,17.4,15.7c3.5,1.4,9.1,1.8,14.4,1.1c4.4-0.6,8.6-1.9,11-4l1,0.9l1.7,1.6
	c-2.9,2.7-7.8,4.3-12.9,5c-5.9,0.8-12.3,0.4-16.4-1.3c-5.1-2-13.1-10.6-18-15.9c-1.2-1.1-2.2-2.2-2.9-3l-0.1-0.1
	c-1.4-1.2-2.5-2.7-3.2-4.4c-0.6-1.5-0.8-3.2-0.4-4.8c0.1-0.6,0.3-1.1,0.6-1.6c0.3-0.5,0.6-1,1-1.4c0.4-0.4,0.8-0.8,1.3-1.1
	c0.5-0.3,1-0.5,1.6-0.7c1.4-0.4,2.9-0.4,4.3,0c1.6,0.5,3,1.4,4.1,2.7l0.4,0.4c0.4,0.5,1.1,1.1,1.8,1.8v-1.1c0-0.3,0-0.6,0-0.8
	c0-0.3,0-0.5,0.1-0.8V13.7c0-2.8,1.7-5.3,4.2-6.3c1.5-0.6,3.1-0.7,4.6-0.2c0.5,0.1,0.9,0.3,1.3,0.6V6.9c0-0.9,0.2-1.8,0.5-2.6
	c0.4-0.8,0.9-1.6,1.5-2.2c2.7-2.7,7-2.7,9.6,0c0,0,0,0,0,0l0,0c0.6,0.6,1.1,1.4,1.5,2.2c0.3,0.8,0.5,1.7,0.5,2.6v0.8
	c0.4-0.2,0.9-0.4,1.4-0.6c0.7-0.2,1.4-0.3,2-0.3l0,0c0.9,0,1.8,0.2,2.6,0.5c1.7,0.7,3,2,3.7,3.7c0.3,0.8,0.5,1.7,0.5,2.6v1.2
	C50.1,14.6,50.5,14.4,51,14.3z"/>
</svg>
