<?xml version="1.0" encoding="utf-8"?>
<!-- Generator: Adobe Illustrator 27.0.0, SVG Export Plug-In . SVG Version: 6.00 Build 0)  -->
<svg version="1.1"
	 id="Layer_1" shape-rendering="geometricPrecision" image-rendering="optimizeQuality" text-rendering="geometricPrecision"
	 xmlns="http://www.w3.org/2000/svg" xmlns:xlink="http://www.w3.org/1999/xlink" x="0px" y="0px" viewBox="0 0 358 511.9"
	 style="enable-background:new 0 0 358 511.9;" xml:space="preserve">
<style type="text/css">
	.st0{fill:#133458;}
</style>
<path class="st0" d="M123.9,151.3c1.6-0.8,3.1-1.3,4.6-1c0.8,0.1,1.6,0.4,2.4,0.9c2.1,1.2,2.7,2.4,4,4.3c6.5,9.4,12.6,19.6,18.3,31
	c3.2,4.8,3.1,9-1.1,12l-7.6,5.1c-3.8,2.2-7.5,1.1-10.9-2.9C119,180.3,99,166.6,123.9,151.3L123.9,151.3z M202.8,356.4v17.9h100.3
	v67.6H202.8v69.9h-67.6v-69.9H35v-67.6h100.3v-21.8c-31.9-8-60.3-24.5-82.8-47C20,273.2,0,228.4,0,179c0-49.4,20-94.2,52.4-126.6
	C84.8,20,129.6,0,179,0s94.2,20,126.6,52.4S358,129.6,358,179c0,49.4-20,94.2-52.4,126.6C278.5,332.7,242.7,351.1,202.8,356.4
	L202.8,356.4z M268.5,89.5c-22.9-22.9-54.5-37-89.5-37s-66.6,14.2-89.4,37.1c-22.9,22.9-37.1,54.5-37.1,89.4s14.2,66.6,37.1,89.4
	c11.4,11.4,24.8,20.5,39.5,26.8l-4.7-44.9c-1.1-8.9-4.7-19.2-9.5-30.2c-2.5-10.4-2.9-19.4,0.1-33.3c3.2,4,6.6,8.6,10,13.1
	c6.4,8.2,12.9,18,24,9c2.1-1.9,4.3-3.6,6.5-5.2c8.9-6.7,18.1-11.7,26.5-15.1c-10.3,6.3-17.8,21.8-19,43.4
	c11.2-32.7,25.7-56.3,64-41.1l-1.9-12.6l-17.8,2c-13.7,1.5-23.8-18.8-15.5-25.1c24.7-6.9,59.4-22.9,67,5.8l6.2,23.7
	c8.4,30.9-4.1,38.1-29.5,59.6c-9.2,7.8-19.2,15-30.3,21.2c-5.4,3-4.4,1.9-2.4,8.1l3.9,28.7c23.8-5.3,45.1-17.4,61.8-34
	c22.9-22.9,37-54.5,37-89.4S291.3,112.4,268.5,89.5L268.5,89.5z M228.3,102.6c0.8,0.3,1.6,0.7,2.4,1.3c3.7,2.9,6.5,12.7,7.6,17.2
	c0.7,2.8,2.8,10.5,4.5,17l-29.4,4c-2.5-8-4.6-16-7-22.7c-1.6-3.6-1.2-6.8,0.9-9.4c2.4-3.1,6.9-4.7,10.4-5.8
	C220.2,103.4,225.9,101.8,228.3,102.6z M192.3,112.4c0.8,0.2,1.6,0.6,2.4,1.1c2.1,1.4,2.6,2.8,3.8,4.8c1.9,3.5,3.5,7.5,4.9,11.8
	c0.8,2.4,2.5,7.5,4.3,13c-10.2,1.8-23.2,0.9-26.6,12.6c-3.6-8.8-6.4-17.9-9.6-25.2c-1.8-3.5-1.6-6.7,0.3-9.5
	C174.9,116.4,187.1,111,192.3,112.4L192.3,112.4z M157.8,129c0.8,0.1,1.6,0.4,2.4,0.9c2.1,1.2,2.7,2.4,4,4.3c2.2,3.1,4,6.9,5.6,10.8
	c2.2,5.2,10.9,24.7,11.7,28.8c0.6,2.9,0.1,5.5-2.9,7.6l-9.4,5.4c-3.7,2.2-7.5,1.1-10.9-2.9c-7.3-11.8-13.2-25.7-18.9-36
	c-2-3.2-2.1-6.3-0.5-9.1C141.4,134.6,152.9,128.1,157.8,129L157.8,129z"/>
</svg>
