<?xml version="1.0" encoding="UTF-8"?>
<svg id="Layer_1" data-name="Layer 1" xmlns="http://www.w3.org/2000/svg" viewBox="0 0 250 150">
  <defs>
    <style>
      .cls-1 {
        fill: #fff;
      }
    </style>
  </defs>
  <polygon class="cls-1" points="59.45 17.4 30.17 17.4 18.14 104.8 36.53 104.8 38.63 84.22 40.11 69.66 44.06 30.88 45.55 30.88 49.54 69.66 51.04 84.22 53.15 104.8 71.55 104.8 59.45 17.4"/>
  <path class="cls-1" d="M186.96,104.81V17.4h18.81V104.81h-18.81Zm12.17-70.44V17.4h34.89v16.96h-34.89Zm.21,38.44v-17.03h33.93v17.03h-33.93Z"/>
  <g>
    <path class="cls-1" d="M15.97,138.15l2.6-18.85h6.31l2.61,18.85h-3.97l-1.64-15.95h-.32l-1.62,15.95h-3.97Zm3.11-4.44v-3.14h5.25v3.14h-5.25Z"/>
    <path class="cls-1" d="M27.85,126.86v-3.22l3.13,.03,1.49-.03h3.19l-.25,3.22h-7.55Zm4.72-8.69c.6,0,1.14,.05,1.61,.16s.87,.23,1.18,.37l.28,2.92c-.2-.06-.42-.11-.66-.16-.24-.05-.51-.07-.8-.07-.34,0-.63,.05-.86,.15s-.4,.25-.52,.44c-.11,.2-.17,.44-.17,.74v.04c0,.25,.03,.46,.09,.64s.14,.37,.24,.55h-2.55v-.43c-.45-.19-.83-.48-1.14-.89-.31-.41-.46-.9-.46-1.48v-.06c0-.92,.32-1.64,.96-2.15,.64-.51,1.58-.77,2.82-.77Zm-3.38,19.99v-13.41h3.91v13.41h-3.91Z"/>
    <path class="cls-1" d="M36.89,138.15v-14.81h3.58l-.18,4.25,.56,.15v10.42h-3.97Zm3.94-8.69l-1.39-2.89h1.08c.12-1.03,.42-1.85,.9-2.44s1.2-.89,2.17-.89h.12s.09,0,.16,.01l.1,4.54c-.07,0-.16-.02-.27-.02-.11,0-.23,0-.35,0-.63,0-1.16,.14-1.59,.43s-.74,.71-.93,1.27Z"/>
    <path class="cls-1" d="M47.17,122.24c-.71,0-1.23-.18-1.56-.55-.33-.36-.5-.86-.5-1.48v-.16c0-.62,.17-1.11,.5-1.47,.33-.36,.86-.54,1.56-.54s1.23,.18,1.56,.54c.33,.36,.5,.85,.5,1.47v.16c0,.62-.17,1.11-.5,1.48-.33,.36-.86,.55-1.56,.55Zm-1.98,15.92v-14.81h3.95v14.81h-3.95Z"/>
    <path class="cls-1" d="M55.77,138.38c-1.63,0-2.83-.5-3.59-1.49-.76-.99-1.14-2.39-1.14-4.2v-3.85c0-1.81,.39-3.21,1.16-4.2s1.96-1.49,3.58-1.49c.39,0,.75,.03,1.08,.09,.33,.06,.63,.15,.91,.26,.27,.11,.52,.24,.74,.38l.25,3.29c-.27-.17-.54-.3-.83-.41-.29-.11-.63-.16-1.01-.16-.69,0-1.18,.21-1.48,.62-.29,.41-.44,1-.44,1.77v3.51c0,.76,.16,1.34,.49,1.76s.84,.62,1.55,.62c.37,0,.72-.05,1.03-.16,.31-.11,.58-.25,.82-.41l-.25,3.36c-.32,.22-.73,.39-1.22,.53-.49,.14-1.03,.21-1.62,.21Z"/>
    <path class="cls-1" d="M63,138.38c-1.03,0-1.8-.36-2.31-1.07-.51-.71-.76-1.74-.76-3.08v-.71c0-1.39,.32-2.39,.96-3.02,.64-.63,1.63-1.11,2.98-1.43l2.33-.58,.43,2.68-1.76,.46c-.42,.12-.73,.29-.93,.52-.2,.23-.29,.57-.29,1.01v.44c0,.5,.08,.89,.24,1.16,.16,.27,.43,.41,.83,.41,.23,0,.42-.05,.57-.16,.15-.1,.28-.24,.38-.42,.1-.18,.17-.38,.21-.61l.46,1.64h-.52c-.09,.52-.23,.99-.44,1.4s-.49,.74-.87,.98c-.38,.24-.88,.36-1.5,.36Zm2.85-.22l.13-2.98h-.15v-5.95l-.06-.6c0-.77-.14-1.32-.41-1.66-.27-.34-.77-.51-1.5-.51-.61,0-1.21,.1-1.81,.3-.6,.2-1.13,.43-1.62,.67l.25-3.29c.31-.19,.67-.36,1.08-.51,.4-.15,.85-.28,1.35-.38,.5-.1,1.03-.16,1.59-.16,.86,0,1.6,.11,2.22,.34,.62,.23,1.14,.56,1.54,1.01,.4,.45,.7,1.01,.89,1.7,.19,.68,.29,1.48,.29,2.38v9.63h-3.81Z"/>
    <path class="cls-1" d="M80.42,138.46c-1.86,0-3.25-.52-4.16-1.57-.91-1.05-1.37-2.61-1.37-4.68v-6.95c0-2.08,.46-3.64,1.37-4.69,.91-1.05,2.3-1.58,4.16-1.58s3.25,.53,4.17,1.58c.92,1.05,1.38,2.62,1.38,4.69v6.95c0,2.08-.46,3.64-1.38,4.68-.92,1.05-2.31,1.57-4.17,1.57Zm0-3.42c.54,0,.91-.2,1.11-.6s.3-1.01,.3-1.84v-7.76c0-.84-.1-1.45-.3-1.84-.2-.39-.57-.59-1.11-.59s-.9,.2-1.11,.59c-.21,.39-.31,1.01-.31,1.84v7.76c0,.83,.1,1.44,.31,1.84,.21,.4,.58,.6,1.11,.6Z"/>
    <path class="cls-1" d="M90.53,138.38c-1.03,0-1.8-.36-2.31-1.07-.51-.71-.76-1.74-.76-3.08v-.71c0-1.39,.32-2.39,.96-3.02,.64-.63,1.63-1.11,2.98-1.43l2.33-.58,.43,2.68-1.76,.46c-.42,.12-.73,.29-.93,.52-.2,.23-.29,.57-.29,1.01v.44c0,.5,.08,.89,.24,1.16,.16,.27,.43,.41,.83,.41,.23,0,.42-.05,.57-.16,.15-.1,.28-.24,.38-.42,.1-.18,.17-.38,.21-.61l.46,1.64h-.52c-.09,.52-.23,.99-.44,1.4s-.49,.74-.87,.98c-.38,.24-.88,.36-1.5,.36Zm2.85-.22l.13-2.98h-.15v-5.95l-.06-.6c0-.77-.14-1.32-.41-1.66-.27-.34-.77-.51-1.5-.51-.61,0-1.21,.1-1.81,.3-.6,.2-1.13,.43-1.62,.67l.25-3.29c.31-.19,.67-.36,1.08-.51,.4-.15,.85-.28,1.35-.38,.5-.1,1.03-.16,1.59-.16,.86,0,1.6,.11,2.22,.34,.62,.23,1.14,.56,1.54,1.01,.4,.45,.7,1.01,.89,1.7,.19,.68,.29,1.48,.29,2.38v9.63h-3.81Z"/>
    <path class="cls-1" d="M102.43,138.38c-.76,0-1.43-.09-2.03-.27-.59-.18-1.09-.37-1.5-.59l-.25-3.54c.48,.26,.97,.48,1.48,.67,.5,.19,1.06,.29,1.68,.29,.5,0,.85-.1,1.05-.29,.2-.2,.29-.46,.29-.8v-.16c0-.25-.06-.46-.17-.65-.11-.19-.32-.39-.62-.6-.3-.22-.73-.5-1.29-.84-.58-.36-1.05-.75-1.42-1.14-.37-.4-.64-.84-.82-1.33-.18-.49-.27-1.04-.27-1.67v-.21c0-1.33,.39-2.34,1.17-3.05,.78-.7,1.91-1.05,3.39-1.05,.7,0,1.33,.09,1.89,.27,.56,.18,1.01,.4,1.36,.64l.24,3.27c-.38-.22-.81-.41-1.27-.59s-.97-.27-1.53-.27c-.33,0-.6,.04-.8,.12-.2,.08-.34,.19-.44,.34-.09,.15-.14,.33-.14,.54v.12c0,.26,.08,.48,.23,.69,.15,.2,.37,.4,.66,.59s.64,.41,1.05,.66c.62,.35,1.13,.72,1.52,1.08,.39,.37,.68,.8,.87,1.29,.19,.49,.28,1.11,.28,1.84v.27c0,1.39-.38,2.46-1.13,3.22-.75,.76-1.92,1.14-3.49,1.14Z"/>
    <path class="cls-1" d="M110.52,122.24c-.71,0-1.23-.18-1.56-.55-.33-.36-.5-.86-.5-1.48v-.16c0-.62,.17-1.11,.5-1.47,.33-.36,.86-.54,1.56-.54s1.23,.18,1.56,.54c.33,.36,.5,.85,.5,1.47v.16c0,.62-.17,1.11-.5,1.48-.33,.36-.86,.55-1.56,.55Zm-1.98,15.92v-14.81h3.95v14.81h-3.95Z"/>
    <path class="cls-1" d="M117.86,138.38c-.76,0-1.43-.09-2.03-.27-.59-.18-1.09-.37-1.5-.59l-.25-3.54c.48,.26,.97,.48,1.48,.67,.5,.19,1.06,.29,1.68,.29,.5,0,.85-.1,1.05-.29,.2-.2,.29-.46,.29-.8v-.16c0-.25-.06-.46-.17-.65-.11-.19-.32-.39-.62-.6-.3-.22-.73-.5-1.29-.84-.58-.36-1.05-.75-1.42-1.14-.37-.4-.64-.84-.82-1.33-.18-.49-.27-1.04-.27-1.67v-.21c0-1.33,.39-2.34,1.17-3.05,.78-.7,1.91-1.05,3.39-1.05,.7,0,1.33,.09,1.89,.27,.56,.18,1.01,.4,1.36,.64l.24,3.27c-.38-.22-.81-.41-1.27-.59s-.97-.27-1.53-.27c-.33,0-.6,.04-.8,.12-.2,.08-.34,.19-.44,.34-.09,.15-.14,.33-.14,.54v.12c0,.26,.08,.48,.23,.69,.15,.2,.37,.4,.66,.59s.64,.41,1.05,.66c.62,.35,1.13,.72,1.52,1.08,.39,.37,.68,.8,.87,1.29,.19,.49,.28,1.11,.28,1.84v.27c0,1.39-.38,2.46-1.13,3.22-.75,.76-1.92,1.14-3.49,1.14Z"/>
    <path class="cls-1" d="M127.45,138.15v-18.85h4.06v18.85h-4.06Zm2.63-15.19v-3.66h5.36v3.66h-5.36Zm.04,8.29v-3.67h5.15v3.67h-5.15Z"/>
    <path class="cls-1" d="M142,138.44c-1.71,0-3-.49-3.87-1.48s-1.3-2.43-1.3-4.33v-3.75c0-1.92,.43-3.37,1.3-4.34s2.15-1.47,3.87-1.47,3,.49,3.86,1.47,1.29,2.43,1.29,4.34v3.75c0,1.9-.43,3.34-1.29,4.33s-2.15,1.48-3.86,1.48Zm0-3.23c.45,0,.77-.17,.94-.52,.18-.35,.27-.89,.27-1.63v-4.62c0-.73-.09-1.26-.27-1.61-.18-.34-.49-.52-.94-.52s-.77,.17-.95,.52c-.18,.34-.27,.88-.27,1.61v4.62c0,.74,.09,1.28,.27,1.63,.18,.35,.5,.52,.95,.52Z"/>
    <path class="cls-1" d="M152.93,123.34v9.99c0,.38,.03,.7,.1,.95,.06,.25,.17,.44,.33,.58s.37,.2,.65,.2c.24,0,.44-.05,.61-.16,.17-.11,.3-.25,.41-.44,.11-.18,.18-.39,.22-.63l.81,1.77h-.83c-.11,.51-.27,.98-.49,1.39-.22,.42-.54,.75-.95,1-.41,.25-.96,.38-1.65,.38-.76,0-1.37-.16-1.84-.49-.47-.32-.81-.81-1.02-1.46-.22-.65-.33-1.45-.33-2.41v-10.68h3.98Zm6.25,0v14.81h-3.92l.15-3.04-.19-.03v-11.74h3.97Z"/>
    <path class="cls-1" d="M161.34,138.15v-14.81h3.92l-.15,3.05,.19,.03v11.73h-3.97Zm6.27,0v-9.97c0-.38-.04-.7-.1-.96-.07-.26-.18-.45-.34-.58s-.37-.2-.65-.2c-.23,0-.43,.05-.6,.16-.17,.11-.31,.25-.41,.44s-.18,.4-.23,.64l-.81-1.79h.83c.11-.51,.27-.98,.49-1.39s.54-.75,.97-1,.97-.37,1.64-.37c.76,0,1.37,.16,1.84,.49,.47,.32,.81,.81,1.03,1.45,.22,.64,.32,1.44,.32,2.4v10.68h-3.97Z"/>
    <path class="cls-1" d="M176.74,138.38c-1.2,0-2.05-.48-2.56-1.43-.51-.95-.76-2.33-.76-4.14v-3.89c0-1.91,.25-3.35,.75-4.32,.5-.97,1.37-1.45,2.61-1.45,.62,0,1.12,.12,1.5,.35s.68,.56,.89,.98c.21,.42,.37,.89,.48,1.42h.91l-.75,2.4c0-.41-.04-.76-.13-1.05s-.22-.51-.41-.66c-.18-.16-.43-.24-.73-.24-.43,0-.74,.17-.91,.52-.17,.35-.26,.88-.26,1.6v4.46c0,.71,.09,1.24,.26,1.58,.17,.35,.48,.52,.92,.52,.24,0,.44-.05,.61-.15,.17-.1,.31-.24,.43-.43,.11-.19,.19-.4,.24-.63l.58,1.73h-.66c-.1,.51-.26,.98-.47,1.41-.22,.43-.53,.77-.94,1.03s-.95,.38-1.62,.38Zm3.04-.22l.15-3.1-.1-.37v-8.39l-.04-4.28v-3.42h3.94v19.56h-3.94Z"/>
    <path class="cls-1" d="M188.43,138.38c-1.03,0-1.8-.36-2.31-1.07-.51-.71-.76-1.74-.76-3.08v-.71c0-1.39,.32-2.39,.96-3.02,.64-.63,1.63-1.11,2.98-1.43l2.33-.58,.43,2.68-1.75,.46c-.42,.12-.73,.29-.93,.52-.2,.23-.29,.57-.29,1.01v.44c0,.5,.08,.89,.24,1.16s.43,.41,.83,.41c.23,0,.42-.05,.57-.16s.28-.24,.38-.42c.1-.18,.17-.38,.21-.61l.46,1.64h-.52c-.09,.52-.23,.99-.43,1.4-.2,.41-.49,.74-.87,.98-.38,.24-.88,.36-1.5,.36Zm2.85-.22l.13-2.98h-.15v-5.95l-.06-.6c0-.77-.14-1.32-.41-1.66-.27-.34-.77-.51-1.5-.51-.61,0-1.21,.1-1.81,.3-.6,.2-1.13,.43-1.62,.67l.25-3.29c.31-.19,.67-.36,1.08-.51,.4-.15,.85-.28,1.35-.38,.5-.1,1.02-.16,1.58-.16,.86,0,1.6,.11,2.22,.34,.62,.23,1.14,.56,1.54,1.01,.4,.45,.7,1.01,.89,1.7,.19,.68,.29,1.48,.29,2.38v9.63h-3.81Z"/>
    <path class="cls-1" d="M196,126.59v-3.2h7.76l-.25,3.2h-7.51Zm5.09,11.77c-.87,0-1.58-.15-2.13-.45s-.97-.75-1.23-1.34c-.27-.59-.4-1.33-.4-2.21v-10.46h3.91v9.51c0,.48,.1,.83,.3,1.03,.2,.21,.54,.31,1.01,.31,.26,0,.49-.03,.71-.08,.22-.05,.42-.12,.62-.2l-.25,3.32c-.31,.17-.68,.3-1.11,.41s-.9,.15-1.43,.15Zm-3.69-14.72v-3.44l3.87-.49-.13,3.92h-3.73Z"/>
    <path class="cls-1" d="M207.17,122.24c-.71,0-1.23-.18-1.56-.55-.33-.36-.5-.86-.5-1.48v-.16c0-.62,.17-1.11,.5-1.47,.33-.36,.86-.54,1.56-.54s1.23,.18,1.56,.54c.33,.36,.5,.85,.5,1.47v.16c0,.62-.17,1.11-.5,1.48-.33,.36-.86,.55-1.56,.55Zm-1.98,15.92v-14.81h3.95v14.81h-3.95Z"/>
    <path class="cls-1" d="M216.19,138.44c-1.71,0-3-.49-3.87-1.48s-1.3-2.43-1.3-4.33v-3.75c0-1.92,.43-3.37,1.3-4.34s2.15-1.47,3.87-1.47,3,.49,3.86,1.47,1.29,2.43,1.29,4.34v3.75c0,1.9-.43,3.34-1.29,4.33s-2.15,1.48-3.86,1.48Zm0-3.23c.45,0,.77-.17,.94-.52,.18-.35,.27-.89,.27-1.63v-4.62c0-.73-.09-1.26-.27-1.61-.18-.34-.49-.52-.94-.52s-.77,.17-.95,.52c-.18,.34-.27,.88-.27,1.61v4.62c0,.74,.09,1.28,.27,1.63,.18,.35,.5,.52,.95,.52Z"/>
    <path class="cls-1" d="M223.22,138.15v-14.81h3.92l-.15,3.05,.19,.03v11.73h-3.97Zm6.27,0v-9.97c0-.38-.04-.7-.1-.96-.07-.26-.18-.45-.34-.58s-.37-.2-.65-.2c-.23,0-.43,.05-.6,.16-.17,.11-.31,.25-.41,.44s-.18,.4-.23,.64l-.81-1.79h.83c.11-.51,.27-.98,.49-1.39s.54-.75,.97-1,.97-.37,1.64-.37c.76,0,1.37,.16,1.84,.49,.47,.32,.81,.81,1.03,1.45,.22,.64,.32,1.44,.32,2.4v10.68h-3.97Z"/>
  </g>
  <g>
    <path class="cls-1" d="M148.24,82.4c0,.65,.19,1.74,.06,2.43-.89,3.09-2.79,5.83-4.83,8.26-.86,1.08-2.03,2.72-3.01,3.72-1.17,1.24-2.73,1.9-4.21,2.69-.62,.39-1.75,.62-2.51,.76-1.11,.2-2.97,.62-4.1,.68-.78-.01-1.23-.66-1.63-1.18-5.05-6.72-9.84-13.49-14.05-20.75-.31-.56-.66-1.21-.73-1.84-.07-2.66,1.05-4.78,1.82-7.16,.01-.03,.02-.06,.03-.08-.12,.26-.12,.99,0,1.2-1.5-3.49-3.71-6.9-4.99-10.56-.37-1.34,.02-2.58,.31-3.79,0-.03,0-.02,0-.02,0,.11-.04,.3-.01,.43,0,0,1.52,1.84,1.52,1.84-1.57-.55-2.33-1.32-3.41-2.26,.53,.42,1.4,.46,1.96,.13-.35,.17-.8,.33-1.14,.42-2.6,.6-5.51,1.33-8.08,.22,0,0,.91,.03,.91,.03-3.52,1.09-8,1.13-10.68-1.87-.88-.81-1.39-2.14-2-3.11-1.68-2.86-3.39-6.07-5.02-8.98-.22-.48-.75-1.25-.83-1.8-.01-1.65,.69-3.27,1.67-4.57,.07-.12,.11-.24,.14-.41,.07-.86-.33-2.29-.23-3.3-.07-2.54,1.47-5.06,3.24-6.73,2.46-2.55,5.26-3.94,6.66-7,.25-.6,.32-.94,.92-1.6,.75-.67,1.69-1.06,2.45-1.38,7.35-2.69,14.52-4.27,22.19-5.22,1.16-.09,2.47-.18,3.49,.52,1.18,.79,1.91,2.03,2.63,3.16,0,0,.03,.05,0-.02-.15-.26-.37-.5-.62-.68-.49-.31-.32-.19-.36-.22,0,0-.08-.03-.01-.01l.13,.04c4.16,1.08,8.58,1.95,12.74,3.04,3.25,.92,6.75,1.54,9.8,3.37,.54,.38,1.07,.86,1.39,1.45,.91,1.95,.49,4.35-.63,6.5,0,0,.28-2.41,.28-2.41-.02-.27-.25-.6-.35-.77,0,0,.04,.05,.04,.05l.16,.21c.2,.25,.76,1.01,.97,1.27,2.9,3.8,6.06,7.99,8.75,11.95,0,0,.12,.2,.12,.2l.24,.41-3.21-1.48c2.92-.49,5.23-.7,8.27-.23,.73,.16,1.42,.32,2.13,.73,3.24,1.89,2.74,6.28,1.3,8.65-1.39,2.67-2.61,5.89-4.46,8.29-2.72,3.39-6.71,5.19-9.18,8.79,0,0-.27,.35-.27,.35l-.03,.04-.02,.02h0s-.05,.09,.03-.05c.1-.19,.14-.43,.1-.64v-.03s0,.03,0,.03l.04,.19c.61,1.86,.65,3.9,.98,5.78,.35,1.49,.02,2.98-.23,4.34-.46,1.74-.79,3.9-2.36,5.03-1.31,1-2.91,2.01-4.22,3.01,0,0-.07,.06-.07,.06-.06,.06,.06-.05,.01-.14h0Zm-.57,.04c.05-.32,.26-.37,.44-.55,.24-.17,.85-.64,1.1-.81,.85-.62,2.08-1.49,2.87-2.15,.47-.38,.77-.7,.98-1.27,.74-2.15,1.3-4.9,.82-7.11-.08-.2-.12-.37-.16-.52l-.23-.9c-.32-1.36-.67-3.01-1.23-4.22,0,0-.09-.24-.09-.24-.01-.04-.04-.12-.05-.16-.14-.41,.23-.91,.42-1.27,1.7-3.21,4.59-5.85,6.92-8.52,1.41-1.75,1.97-3.81,2.74-5.92l1.24-3.41c.5-1.4,.66-1.8,.26-2.38-.08-.12,.03,.1,.12,.17,.18,.14,.15,.15,.21,.18,.08,.03,0,.02-.02,.01-.01,0-.08-.02-.17-.03-2.48-.3-5.65,.27-8.12,.91,0,0-1.42-1.91-1.42-1.91-2.23-3.02-5.24-6.86-7.52-9.87-.69-.92-1.8-2.38-2.48-3.29-.44-.58-.8-1.65-1.04-2.34,.52-.84,1.14-1.49,1.01-2.77-.02,.3,.13,.81,.32,1.11,.11,.21,.27,.4,.44,.56,0,0,.02,.02,.03,.02-.04-.02-.17-.11-.36-.19-5.99-2.5-12.8-3.84-19.08-5.68-1.12-.38-2.25-.49-3.13-1.5-.38-.48-.63-1.01-.95-1.52-.17-.25-.22-.34-.37-.49,.13,.08,.31,.22,.49,.26,0,0,.3,.08,.3,.08,0,0,.07,0,0,0-5.26,.14-10.59,1.18-15.79,2.07-2.64,.51-5.44,.99-7.8,1.95-.02,.01,.02-.02,.07-.08,.07-.08,.12-.18,.15-.28-.73,1.49-1.75,2.9-2.98,4-3.67,3.21-9.09,5.22-8.34,10.78,.09,.8,.24,2.27-.45,3.11-.83,.97-1.35,2.17-1.45,3.45-.02-.35,.1,.12,.23,.31,1.68,3.27,3.59,6.44,5.48,9.59,.34,.58,1.15,1.77,1.49,2.28,2.61,2.73,5.98,2.02,9.18,.73,0,0,.51,.19,.51,.19l.21,.08s.1,.04,.14,.04c2.02,.18,4.27-.51,6.1-1.35,.62-.33,1.46-.27,2.02,.16,.58,.43,1.62,1.18,2.22,1.31,0,0,1.38-.57,1.38-.57,.02,.62,.24,2.69,.06,3.27-.08,.44-.2,1.23-.16,1.6,.02,.1,0-.01,.03-.01,0-.04,.04,.08,.04,.07l.1,.2c.99,1.84,3,5.24,4.02,7.05,.66,1.32,1.91,2.88,1.53,4.54-.5,1.73-1.37,3.76-1.65,5.44,0-.1-.09-.51-.13-.56,.18,.44,.58,1.1,.79,1.51,3.94,6.88,7.8,14.09,11.68,20.98,0,0,.02,.04,.02,.04-.1-.15-.45-.4-.75-.42-.08-.01-.15-.01-.22-.01-.02,0,0,0,0,0h.02c1.38,.09,3.44-.16,4.82-.2,1.34-.25,2.86-1.01,4.1-1.56,.92-.58,1.73-1.4,2.51-2.21,2.11-2.26,4.34-4.58,5.74-7.36,.55-1.05,1.01-2.04,.84-3.23,0,0-.06-1.17-.06-1.17h0Z"/>
    <path class="cls-1" d="M134.11,70.32c-.21,6.56-3.42,9.85-6.08,11.46l-.1,.06h.11c5.68,.22,10.95-3.61,12.81-9.32,1.64-5.02,.31-10.49-3.38-13.92l-.03-.03-.02,.03c-1.42,2.29-3.14,6.18-3.33,11.72Z"/>
    <g>
      <path class="cls-1" d="M155.29,51.32c-1.19-.27-2.42-.44-3.69-.49-10.34-.43-19.05,6.89-19.45,16.36-.05,1.13,.03,2.23,.21,3.31,.06,.34-.3,.61-.61,.44-6.7-3.64-11.11-10.87-10.77-19,.21-5.07,2.24-9.64,5.43-13.11,.31-.34,.86,0,.7,.42h0c-.03,.09-.07,.18-.1,.27-.03,.06-.05,.12-.07,.18-.05,.13-.1,.26-.15,.39,0,.02-.01,.04-.02,.05-.05,.14-.1,.28-.15,.42-.04,.11-.08,.23-.12,.35-.08,.24-.16,.47-.25,.72-.07,.2-.13,.4-.2,.6,0,.02-.01,.04-.02,.06-.05,.16-.1,.33-.15,.49-.03,.09-.05,.17-.08,.26-.01,.05-.03,.1-.04,.15-.03,.08-.05,.15-.07,.23-.03,.11-.06,.21-.09,.32,0,.02-.01,.04-.02,.06-.04,.14-.08,.28-.11,.42-.01,.05-.03,.1-.04,.14-.03,.11-.06,.23-.09,.34-.06,.24-.12,.48-.17,.72-.02,.08-.04,.16-.05,.24-.02,.09-.04,.18-.06,.26,0,.01,0,.02,0,.03-.04,.19-.07,.38-.1,.57,0,.04-.01,.07-.02,.1-.01,.07-.02,.13-.03,.2,0,0,0,.01,0,.02-.01,.07-.02,.13-.03,.2,0,.06-.02,.13-.03,.19,0,.03,0,.05-.01,.07,0,.06-.01,.12-.02,.18,0,.03,0,.06-.01,.09,0,.04,0,.08-.01,.12,0,.08-.01,.16-.02,.24,0,.09-.01,.17-.02,.25,0,.06,0,.11-.01,.18,0,.04,0,.09,0,.13,0,.01,0,.03,0,.04,0,.04,0,.08,0,.11-.05,1.44,.19,2.68,.86,3.48,.04,.04,.07,.08,.11,.12,.74,.77,1.94,1.07,3.78,.65,.1-.02,.21-.05,.32-.08,.16-.04,.33-.09,.49-.14,.28-.09,.58-.19,.89-.31,.12-.04,.25-.09,.38-.14,.13-.05,.26-.11,.39-.16,.2-.08,.4-.18,.61-.27,.14-.06,.28-.13,.42-.2,.14-.07,.29-.14,.44-.22,.15-.08,.31-.15,.46-.23,.15-.08,.3-.15,.46-.22,.18-.09,.35-.17,.53-.25,.87-.4,1.72-.75,2.55-1.05,.14-.05,.28-.1,.42-.15,.27-.09,.53-.18,.79-.27,.01,0,.03,0,.04-.01,.55-.17,1.09-.33,1.63-.46,.24-.06,.47-.12,.7-.17,.1-.02,.2-.04,.3-.06,.09-.02,.18-.04,.27-.06l.32-.06c.62-.11,1.23-.21,1.82-.27,.24-.03,.48-.05,.72-.07,.47-.04,.93-.06,1.38-.06,.24,0,.48,0,.71,0,.1,0,.19,0,.29,0,.04,0,.07,0,.1,0,.1,0,.2,0,.3,.01,.01,0,.03,0,.04,0,.07,0,.14,0,.21,.01,.04,0,.08,0,.11,0,.02,0,.04,0,.06,0s.05,0,.07,0c.01,0,.01,0,.03,0,.08,0,.15,.01,.23,.02,.21,.02,.42,.04,.62,.07,0,0,1.12,.06,2.95,.66,1.12,.36,2.49,.92,4.04,1.78,0,0,0,0,0,0,.38,.25,.13,.85-.33,.75Z"/>
      <path class="cls-1" d="M135.66,46.51c1.79,.08,3.4-.78,4.37-2.13,.56-.78,.9-1.72,.94-2.75,.12-2.82-2.07-5.19-4.88-5.31-2.65-.11-4.92,1.82-5.27,4.4-.02,.16-.04,.32-.04,.48-.12,2.82,2.07,5.19,4.88,5.31Z"/>
    </g>
  </g>
  <path class="cls-1" d="M161.04,83.2c-.06-.41-.1-.88-.44-1.11-.35-.18-.78-.3-1.19-.35-1.71-.25-3.09,.95-3.8,2.4-.38,.71-.83,1.38-1.02,2.18-.2,.82-.45,1.73-.87,2.49-.76,1.48-1.92,2.89-2.07,4.58-.07,1.24,.89,4.17,2.24,4.36,.09,0,.16-.05,.29-.15,.85-.8,1.54-1.92,2.23-2.91,.88-1.44,2.02-2.75,2.84-4.21,1.17-2.2,2.13-4.75,1.79-7.28h0Zm.11-.02c.49,4.34-1.3,8.68-3.83,12.13-.49,.71-.98,1.42-1.55,2.11-.48,.53-1.04,1.29-1.91,1.27-2.01-.25-2.69-3.65-2.59-5.31,.21-1.72,1.35-3.22,1.96-4.8,.64-1.57,.44-3.52,1.53-4.96,.97-1.52,2.88-2.63,4.69-2.12,.43,.11,.84,.24,1.23,.47,.39,.3,.42,.8,.47,1.21h0Z"/>
</svg>