<svg xmlns="http://www.w3.org/2000/svg" viewBox="0 0 2183.68 763.24"><g id="Layer_3" data-name="Layer 3"><path d="M253.3,127.29c.36-.94.73-1.88,1.08-2.79v0h0C254,125.41,253.65,126.34,253.3,127.29Z"/><path d="M422.26,508.19c-143.2,41.63-237-4.51-290.4-50.54L129.92,456l.69,2.47C166,582.77,286,669.6,422.47,669.6c120.08,0,228.8-67.15,277-171.09l.39-.84-.9-.22C639.47,483,543.2,473.06,422.26,508.19Z"/><path d="M223.63,448.27a4.26,4.26,0,0,0,6.24-4.47,161.35,161.35,0,0,1-2.15-33.89c4.05-97,93.24-172,199.21-167.54a209.58,209.58,0,0,1,37.8,5,4.26,4.26,0,0,0,3.35-7.69l-56.74-22.53-.77-.16q-3.1-.64-6.3-1.18l-.22,0q-1.12-.18-2.25-.33l-1.19-.21c-.56-.08-1.12-.17-1.7-.23q-1.2-.18-2.43-.33l-.17,0c-2.07-.25-4.19-.48-6.33-.68-.8-.09-1.6-.15-2.4-.21h-.25l-.69-.05-.66,0c-.41,0-.77-.06-1.17-.07l-2.19-.16-.42,0q-1.53-.09-3.09-.15c-.35,0-.72,0-1.08,0-1,0-2-.06-3-.07-2.41,0-4.84,0-7.32,0q-6.92.1-14.17.68c-2.42.2-4.86.43-7.34.71-6,.67-12.26,1.61-18.62,2.81-1.09.21-2.19.42-3.29.65-.93.18-1.87.38-2.81.59s-2.06.44-3.11.68q-3.57.81-7.22,1.73c-5.45,1.4-11,3-16.65,4.77l-.47.15c-2.67.86-5.37,1.75-8.1,2.71-1.45.51-2.89,1-4.34,1.55q-12.74,4.65-26.15,10.75-2.68,1.23-5.42,2.52c-1.55.74-3.1,1.49-4.67,2.26s-3.14,1.55-4.71,2.34-3,1.5-4.49,2.22-2.9,1.4-4.33,2.06c-2.13,1-4.22,1.91-6.24,2.78-1.36.59-2.69,1.14-4,1.66s-2.59,1-3.86,1.51q-4.74,1.79-9.09,3.12c-1.75.54-3.43,1-5.07,1.44-1.1.29-2.17.55-3.22.79-18.89,4.26-31.21,1.18-38.74-6.7-.38-.4-.76-.83-1.12-1.26-6.88-8.18-9.26-20.85-8.79-35.63,0-.39,0-.78,0-1.19,0-.14,0-.29,0-.45,0-.44,0-.89.08-1.33,0-.6.07-1.2.11-1.79.07-.87.13-1.73.2-2.59s.13-1.61.22-2.44l.15-1.25c0-.31.07-.63.11-.94.07-.62.15-1.23.22-1.85,0-.23.06-.45.1-.68.08-.65.17-1.3.27-1.93s.18-1.36.29-2l0-.22c.1-.68.21-1.35.31-2,.07-.33.13-.67.19-1,.32-1.91.68-3.86,1.06-5.81a1.91,1.91,0,0,0,.06-.33c.19-.89.37-1.8.56-2.7s.35-1.64.53-2.46c.51-2.46,1.1-4.93,1.72-7.4q.41-1.74.87-3.48c.12-.49.26-1,.39-1.47.38-1.46.77-2.89,1.17-4.34.06-.2.11-.4.17-.59.31-1.1.61-2.19.93-3.27.22-.79.45-1.57.69-2.35.16-.51.31-1,.46-1.56.26-.88.53-1.75.79-2.62.51-1.68,1-3.37,1.57-5a6.45,6.45,0,0,1,.21-.62q1-3.11,2-6.15c.83-2.49,1.68-4.93,2.52-7.34.41-1.21.84-2.39,1.26-3.58.53-1.45,1.05-2.92,1.6-4.34.07-.18.13-.36.2-.53.49-1.36,1-2.69,1.49-4,.24-.62.47-1.25.71-1.87.35-.93.69-1.83,1-2.74h0a4.25,4.25,0,0,0-7.14-4.35,211.38,211.38,0,0,0,54.68,328.91Z"/><path d="M151.72,220.05c0-.54,0-1.09.06-1.64,0,.16,0,.31,0,.45C151.75,219.27,151.73,219.66,151.72,220.05Z"/><path d="M152.17,212.7c.1-1.21.22-2.45.37-3.69l-.15,1.25C152.3,211.09,152.24,211.89,152.17,212.7Z"/><path d="M158,179.6c-.62,2.47-1.21,4.94-1.72,7.4C156.82,184.55,157.4,182.08,158,179.6Z"/><path d="M158,179.6c.4-1.65.83-3.28,1.26-4.95-.13.49-.27,1-.39,1.47Q158.41,177.86,158,179.6Z"/><path d="M159.26,174.65c.44-1.63.88-3.29,1.34-4.93-.06.19-.11.39-.17.59C160,171.76,159.64,173.19,159.26,174.65Z"/><path d="M169.78,140.78q1.42-4,2.86-7.92c-.55,1.42-1.07,2.89-1.6,4.34C170.62,138.39,170.19,139.57,169.78,140.78Z"/><path d="M386,213.68l.66,0c-1.32-.11-2.67-.19-4-.27l2.19.16C385.21,213.62,385.57,213.64,386,213.68Z"/><path d="M404.05,215.8c-1.14-.19-2.29-.37-3.44-.54l1.19.21Q402.93,215.62,404.05,215.8Z"/><path d="M428.36,221.55a1.82,1.82,0,0,1-.25-.07l.6.19Z"/><path d="M436.71,224.37c-.74-.28-1.5-.55-2.27-.79.85.29,1.7.6,2.54.9A2.18,2.18,0,0,1,436.71,224.37Z"/><path d="M468.08,239.7l.11.05-2-1.21,1.77,1.09Z"/><path d="M468,239.63l-1.77-1.09c-.66-.4-1.34-.8-2-1.19s-1.36-.81-2.06-1.2L460,235l-4.39-2.33c-.37-.18-.74-.36-1.11-.56-.76-.36-1.51-.74-2.27-1.12l-1.16-.54c-.94-.44-1.88-.89-2.82-1.29l-.41-.2-.41-.18c-1-.44-1.92-.86-2.89-1.26l-1.56-.66c-1.34-.56-2.7-1.09-4.08-1.61l-1.69-.65-.24-.09c-.84-.3-1.69-.61-2.54-.9a2.17,2.17,0,0,0-.36-.12l-1.8-.63-1.86-.61c-.57-.17-1.14-.36-1.71-.55l-.6-.19a1.27,1.27,0,0,0-.24-.07l-1.31-.4c-.86-.25-1.71-.51-2.58-.75l-.77-.22c-.88-.25-1.76-.48-2.65-.72l-.38-.09-1.24-.33-.16,0-.17,0-.2-.05-1.84-.45-1.22-.28c-.64-.15-1.28-.3-1.92-.43l-1.08-.23-.67-.15-.34-.07,56.74,22.53Z"/><path d="M263.66,198.13a52.27,52.27,0,1,0-49.6-59.33c-.22,1.63-.37,3.26-.44,4.94A52.24,52.24,0,0,0,263.66,198.13Z"/><path d="M724.36,307.58a129.17,129.17,0,0,0-61.29-64.82,2.6,2.6,0,0,0-3.14,4.05c1.23,1.35,2.48,2.78,3.76,4.23l1,1.19,1,1.21.47.57c.85,1,1.69,2,2.54,3,.52.61,1,1.22,1.53,1.84,0,0,0,0,0,0,.71.85,1.41,1.72,2.11,2.6.21.24.42.5.61.76.81,1,1.63,2,2.42,3.08.42.52.81,1.06,1.22,1.58l.22.29c.54.7,1.08,1.41,1.6,2.13l.55.75c.37.49.73,1,1.09,1.48l1.09,1.5c.14.21.29.41.42.62,1.27,1.81,2.51,3.61,3.68,5.44.53.77,1,1.56,1.5,2.34a2.46,2.46,0,0,1,.22.36q1.27,2,2.41,4l.32.55.68,1.22c.47.82.91,1.64,1.32,2.45l.62,1.19c.11.22.24.46.33.68a5.19,5.19,0,0,1,.33.67c.25.49.47,1,.69,1.44.3.67.61,1.34.9,2q.6,1.39,1.11,2.76c.14.36.27.7.39,1,.33.91.64,1.81.9,2.7.11.35.2.68.29,1,.26.88.46,1.74.63,2.59.07.25.11.52.16.78s.13.65.17,1a27,27,0,0,1,.33,2.78c0,.28,0,.56.05.83.64,14.83-11.38,24.6-48.62,20.73l-4.33-.42-4.25-.33-3.9-.24-3-.14c-1,0-2-.07-3-.11q-3.86-.09-7.56-.06h-.33l-2.13,0-1.19,0q-1.39,0-2.79.09c-.83,0-1.65.07-2.47.12a4.19,4.19,0,0,0-.5,0l-.61,0c-.73,0-1.45.09-2.17.15l-1.82.13c-1.69.13-3.35.28-5,.47-.8.08-1.62.18-2.41.28l-2.4.3c-.79.1-1.57.22-2.36.35s-1.47.22-2.19.35-1.65.27-2.46.42-1.48.26-2.21.41-1.48.29-2.21.45c-1.52.32-3,.65-4.45,1-2.09.52-4.14,1.07-6.13,1.64l-1.71.51c-.8.24-1.59.48-2.36.74-1.91.61-3.75,1.26-5.56,1.94-2,.74-4,1.54-5.93,2.37l-1.45.62L560,344c-.22.09-.43.18-.65.29s-.53.23-.77.35l-.13.06-1,.47c-.41.19-.81.39-1.21.6s-.75.38-1.11.56h0l-.49.26c-.43.21-.84.44-1.26.66s-.75.42-1.13.63-.53.27-.78.42h0c-.25.15-.51.31-.77.45l-1.33.76-1.31.77-1.11.68-1.29.82L517.92,377.2a2.6,2.6,0,0,0,3.59,3.65A129,129,0,0,1,542.1,369.7c59.77-25.72,127.31-2.23,150.84,52.48a98.81,98.81,0,0,1,6.18,19.88,2.62,2.62,0,0,0,4.56,1.21A129.6,129.6,0,0,0,724.36,307.58Z"/><path d="M532.55,361.52l-.11.11c.37-.34.77-.67,1.17-1C533.25,360.92,532.89,361.23,532.55,361.52Z"/><path d="M517.87,377.23l0,0,.05-.09A.58.58,0,0,1,517.87,377.23Z"/><path d="M545.34,352c-.11.07-.24.17-.36.23l-.56.37-1.37.91-1.33.92h0l-.14.1-.32.23c-.77.55-1.53,1.09-2.27,1.65l-.38.28c-.55.42-1.08.82-1.6,1.24-.08,0-.17.13-.25.18l-.07.06-1,.78c-.3.23-.59.48-.88.71l-1,.79-.24.21c-.4.33-.8.66-1.17,1,0,0,0,0,0,0-1,.89-2,1.78-2.95,2.68l-.73.7c-.46.44-.91.89-1.38,1.36-.13.11-.25.25-.39.39l-1.33,1.35c-.36.37-.72.76-1.07,1.14s-.7.77-1,1.13-.69.77-1,1.15l-1,1.14-1,1.15c-.9,1.1-1.76,2.18-2.59,3.27l-.05.09,27.65-25.39Z"/><path d="M553.31,347.27c-.64.35-1.28.69-1.91,1.05.25-.15.51-.28.78-.42S552.93,347.47,553.31,347.27Z"/><path d="M560,344l1.3-.63c-.91.42-1.83.83-2.72,1.27.24-.12.5-.23.77-.35S559.73,344.1,560,344Z"/><path d="M553.38,336.48l1.22,1.42c-.12-.16-.25-.3-.38-.46Z"/><path d="M565.72,351.92l1.21,1.7-.34-.5C566.29,352.72,566,352.32,565.72,351.92Z"/><path d="M599.29,297.16A25.59,25.59,0,0,0,637,265.73a22.93,22.93,0,0,0-1.06-2.17,25.59,25.59,0,1,0-36.61,33.6Z"/><path d="M996.84,393.68q-8.57,0-12.77-5.83t-4.21-17v-4q0-11.43,5.31-16.69t16.57-7.88l12.81-3.18,2.37,14.85-9.63,2.61a9.67,9.67,0,0,0-5.23,2.78,8.29,8.29,0,0,0-1.71,5.63v2.45a13.1,13.1,0,0,0,1.3,6.44c.88,1.53,2.4,2.29,4.58,2.29a5.44,5.44,0,0,0,3.22-.9,7.16,7.16,0,0,0,2.08-2.37,10.62,10.62,0,0,0,1.14-3.34l2.53,9.14h-2.77a36,36,0,0,1-2.53,7.63,12.56,12.56,0,0,1-4.78,5.43A15.52,15.52,0,0,1,996.84,393.68Zm15.75-1.14.73-16.48h-.81V343.17l-.33-3.35q0-6.36-2.24-9.18t-8.29-2.81a31.07,31.07,0,0,0-10,1.67,68,68,0,0,0-8.94,3.71l1.39-18.2a37.59,37.59,0,0,1,6-2.81,50.22,50.22,0,0,1,7.46-2.12,43.22,43.22,0,0,1,8.78-.86,36.15,36.15,0,0,1,12.28,1.88,20.73,20.73,0,0,1,8.53,5.59,23,23,0,0,1,4.93,9.38,48.64,48.64,0,0,1,1.6,13.18v53.29Z"/><path d="M1062.7,393.68a40.61,40.61,0,0,1-11.23-1.42,39.35,39.35,0,0,1-8.28-3.31l-1.39-19.5a73.76,73.76,0,0,0,8.17,3.71,25.85,25.85,0,0,0,9.3,1.59c2.77,0,4.72-.54,5.83-1.63a5.87,5.87,0,0,0,1.68-4.41v-.89a6.84,6.84,0,0,0-1-3.64,12.05,12.05,0,0,0-3.47-3.3c-1.66-1.14-4-2.69-7.06-4.65a39.46,39.46,0,0,1-8-6.33,20.32,20.32,0,0,1-4.49-7.34,28.63,28.63,0,0,1-1.38-9.26v-1.15q0-11,6.4-16.85t18.73-5.84A33.67,33.67,0,0,1,1077,311a29.51,29.51,0,0,1,7.51,3.46l1.38,18.28a44.44,44.44,0,0,0-7.1-3.42,23.78,23.78,0,0,0-8.57-1.47,11.76,11.76,0,0,0-4.32.65,4.8,4.8,0,0,0-2.41,1.92,5.87,5.87,0,0,0-.77,3.14V334a6.06,6.06,0,0,0,1.26,3.83,15.91,15.91,0,0,0,3.67,3.27c1.61,1.09,3.55,2.34,5.84,3.75a39.6,39.6,0,0,1,8.44,6,19.55,19.55,0,0,1,4.78,7.18,28.79,28.79,0,0,1,1.55,10.12v1.47q0,11.5-6.24,17.79T1062.7,393.68Z"/><path d="M1107.09,304.49q-6,0-8.69-3.06a11.75,11.75,0,0,1-2.73-8.12v-.9a11.56,11.56,0,0,1,2.73-8.12q2.73-3,8.69-3t8.65,3a11.45,11.45,0,0,1,2.78,8.12v.9a11.63,11.63,0,0,1-2.78,8.12Q1113,304.49,1107.09,304.49Zm-10.93,88.05V310.61h21.95v81.93Z"/><path d="M1147.24,393.68a40.49,40.49,0,0,1-11.22-1.42,39.35,39.35,0,0,1-8.28-3.31l-1.39-19.5a74.46,74.46,0,0,0,8.16,3.71,25.94,25.94,0,0,0,9.31,1.59q4.15,0,5.83-1.63a5.9,5.9,0,0,0,1.67-4.41v-.89a6.75,6.75,0,0,0-1-3.64,12,12,0,0,0-3.46-3.3c-1.66-1.14-4-2.69-7.06-4.65a39.19,39.19,0,0,1-8-6.33,20.18,20.18,0,0,1-4.49-7.34,28.35,28.35,0,0,1-1.39-9.26v-1.15q0-11,6.41-16.85t18.73-5.84a33.6,33.6,0,0,1,10.44,1.52,29.18,29.18,0,0,1,7.51,3.46l1.39,18.28a44.86,44.86,0,0,0-7.1-3.42,23.78,23.78,0,0,0-8.57-1.47,11.79,11.79,0,0,0-4.33.65,4.77,4.77,0,0,0-2.4,1.92,5.87,5.87,0,0,0-.78,3.14V334a6,6,0,0,0,1.27,3.83,15.7,15.7,0,0,0,3.67,3.27c1.6,1.09,3.55,2.34,5.83,3.75a39.43,39.43,0,0,1,8.45,6,19.4,19.4,0,0,1,4.77,7.18,28.55,28.55,0,0,1,1.56,10.12v1.47q0,11.5-6.25,17.79T1147.24,393.68Z"/><path d="M1535.78,395.26V291h22.36V395.26Zm14.44-84.05V291h29.63v20.24Zm.25,45.86V336.75H1579v20.32Z"/><path d="M1615.51,396.81q-14.21,0-21.38-8.16T1587,364.58V343.93q0-15.92,7.18-24t21.38-8.12q14.12,0,21.3,8.12t7.18,24v20.65q0,15.92-7.18,24.07T1615.51,396.81Zm0-17.87a5.34,5.34,0,0,0,5.18-2.9q1.51-2.9,1.51-8.93V341.48q0-6.12-1.51-9a5.36,5.36,0,0,0-5.18-2.86c-2.56,0-4.32,1-5.3,2.86s-1.47,4.89-1.47,9v25.63q0,6,1.47,8.93C1611.19,378,1613,378.94,1615.51,378.94Z"/><path d="M1675.9,368.58a20.78,20.78,0,0,0,.57,5.3,5.89,5.89,0,0,0,1.88,3.18,5.53,5.53,0,0,0,3.59,1.07,6.29,6.29,0,0,0,3.3-.86,6.58,6.58,0,0,0,2.33-2.41,10.08,10.08,0,0,0,1.22-3.51l4.49,9.79h-4.57a29.74,29.74,0,0,1-2.73,7.72,13.73,13.73,0,0,1-5.27,5.5c-2.28,1.37-5.36,2.05-9.22,2.05a17.3,17.3,0,0,1-10.08-2.7,15.35,15.35,0,0,1-5.67-8,41.68,41.68,0,0,1-1.79-13.18V313.33h22Zm34.68-55.25v81.93h-21.7l.81-16.81-1.06-.16v-65Z"/><path d="M1722.5,395.26V313.33h21.71l-.82,16.89,1.06.16v64.88ZM1757.18,340a20.49,20.49,0,0,0-.57-5.22,6,6,0,0,0-1.88-3.18,5.51,5.51,0,0,0-3.59-1.06,6.39,6.39,0,0,0-3.22.81,6.72,6.72,0,0,0-2.37,2.37,9.81,9.81,0,0,0-1.26,3.59l-4.49-9.87h4.57a29.07,29.07,0,0,1,2.73-7.68,14.05,14.05,0,0,1,5.35-5.5,17.72,17.72,0,0,1,9.14-2.08q6.2,0,10.08,2.69a15.35,15.35,0,0,1,5.67,8,42.29,42.29,0,0,1,1.79,13.26v59.08h-22Z"/><path d="M1807.78,396.41q-10,0-14.24-7.88t-4.21-22.89V344.09q0-15.82,4.17-23.87t14.44-8a15.74,15.74,0,0,1,8.32,1.95,13.25,13.25,0,0,1,4.94,5.43,31.18,31.18,0,0,1,2.65,7.88h5l-4.08,13.38a23.65,23.65,0,0,0-.77-5.92,7.24,7.24,0,0,0-2.25-3.67,6.12,6.12,0,0,0-4-1.26,5.13,5.13,0,0,0-5,2.89q-1.43,2.91-1.42,8.86v24.64q0,5.88,1.46,8.82a5.27,5.27,0,0,0,5.15,2.94,6.07,6.07,0,0,0,3.26-.86,7.39,7.39,0,0,0,2.37-2.41,10.48,10.48,0,0,0,1.38-3.51l3.27,9.47h-3.76a28.78,28.78,0,0,1-2.65,7.91,13.69,13.69,0,0,1-5.18,5.63A16.68,16.68,0,0,1,1807.78,396.41Zm16.81-1.15.73-17.13-.57-2V329.65l-.24-23.67V287.05h21.79V395.26Z"/><path d="M1872.41,396.41q-8.57,0-12.77-5.84t-4.21-17v-4q0-11.43,5.31-16.69t16.57-7.88l12.81-3.18,2.36,14.85-9.63,2.61a9.6,9.6,0,0,0-5.22,2.78,8.29,8.29,0,0,0-1.71,5.63v2.45a13.1,13.1,0,0,0,1.3,6.44c.87,1.53,2.4,2.29,4.57,2.29a5.45,5.45,0,0,0,3.23-.9,7.22,7.22,0,0,0,2.08-2.36,10.77,10.77,0,0,0,1.14-3.35l2.53,9.14H1888a36,36,0,0,1-2.53,7.63,12.56,12.56,0,0,1-4.78,5.43A15.51,15.51,0,0,1,1872.41,396.41Zm15.75-1.15.73-16.48h-.81V345.89l-.33-3.35q0-6.36-2.24-9.18t-8.29-2.81a31.07,31.07,0,0,0-10,1.67,68,68,0,0,0-8.94,3.71l1.39-18.2a37.59,37.59,0,0,1,6-2.81,49.88,49.88,0,0,1,7.46-2.12,43.15,43.15,0,0,1,8.78-.86,36.15,36.15,0,0,1,12.28,1.88,20.8,20.8,0,0,1,8.53,5.59,23,23,0,0,1,4.93,9.38,49.06,49.06,0,0,1,1.59,13.18v53.29Z"/><path d="M1915.09,331.28V313.57H1958l-1.46,17.71Zm28.15,65.13q-7.17,0-11.75-2.45a15.24,15.24,0,0,1-6.81-7.43,29.67,29.67,0,0,1-2.25-12.24V316.51h21.63v52.56c0,2.66.56,4.57,1.67,5.71s3,1.71,5.59,1.71a16.24,16.24,0,0,0,3.88-.45,24.26,24.26,0,0,0,3.47-1.1l-1.39,18.36a30.83,30.83,0,0,1-6.12,2.21A32,32,0,0,1,1943.24,396.41ZM1922.84,315V296l21.38-2.7-.81,21.79Z"/><path d="M1976.87,307.21c-4,0-6.87-1-8.7-3.06a11.75,11.75,0,0,1-2.73-8.12v-.9a11.56,11.56,0,0,1,2.73-8.12c1.83-2,4.72-3,8.7-3s6.8,1,8.65,3a11.44,11.44,0,0,1,2.77,8.12v.9a11.63,11.63,0,0,1-2.77,8.12C1983.67,306.19,1980.78,307.21,1976.87,307.21Zm-10.94,88.05V313.33h22v81.93Z"/><path d="M2026.81,396.81q-14.2,0-21.38-8.16t-7.18-24.07V343.93q0-15.92,7.18-24t21.38-8.12q14.12,0,21.3,8.12t7.18,24v20.65q0,15.92-7.18,24.07T2026.81,396.81Zm0-17.87A5.35,5.35,0,0,0,2032,376q1.52-2.9,1.51-8.93V341.48q0-6.12-1.51-9a5.36,5.36,0,0,0-5.18-2.86q-3.84,0-5.31,2.86t-1.46,9v25.63q0,6,1.46,8.93C2022.48,378,2024.25,378.94,2026.81,378.94Z"/><path d="M2065.65,395.26V313.33h21.71l-.82,16.89,1.06.16v64.88ZM2100.34,340a20.45,20.45,0,0,0-.58-5.22,6,6,0,0,0-1.87-3.18,5.53,5.53,0,0,0-3.59-1.06,6.43,6.43,0,0,0-3.23.81,6.62,6.62,0,0,0-2.36,2.37,9.82,9.82,0,0,0-1.27,3.59l-4.49-9.87h4.57a28.73,28.73,0,0,1,2.74-7.68,14,14,0,0,1,5.34-5.5,17.75,17.75,0,0,1,9.14-2.08q6.21,0,10.08,2.69a15.29,15.29,0,0,1,5.67,8,42,42,0,0,1,1.8,13.26v59.08h-21.95Z"/><path d="M1243,398.42h-22.52V294.12H1243Zm-7.75-62.84h30v19.5h-30Zm45.54,62.84h-22.61V294.12h22.61Z"/><path d="M1307.52,399.56q-8.57,0-12.77-5.83t-4.2-17v-4q0-11.41,5.3-16.69t16.57-7.87l12.81-3.18,2.37,14.85-9.63,2.61a9.59,9.59,0,0,0-5.22,2.77,8.28,8.28,0,0,0-1.72,5.63v2.45a13.11,13.11,0,0,0,1.31,6.45c.87,1.52,2.39,2.29,4.57,2.29a5.42,5.42,0,0,0,3.22-.9,7,7,0,0,0,2.08-2.37,10.46,10.46,0,0,0,1.14-3.34l2.53,9.13h-2.77a35.5,35.5,0,0,1-2.53,7.64,12.52,12.52,0,0,1-4.77,5.42A15.48,15.48,0,0,1,1307.52,399.56Zm15.75-1.14.74-16.49h-.82V349.05l-.33-3.35c0-4.24-.74-7.3-2.24-9.18s-4.26-2.82-8.28-2.82a30.83,30.83,0,0,0-10,1.68,66.65,66.65,0,0,0-8.94,3.71l1.39-18.2a38.93,38.93,0,0,1,6-2.82,50,50,0,0,1,7.47-2.12,43.07,43.07,0,0,1,8.77-.85,36.12,36.12,0,0,1,12.28,1.87,20.93,20.93,0,0,1,8.53,5.59,23.26,23.26,0,0,1,4.94,9.39,49,49,0,0,1,1.59,13.18v53.29Z"/><path d="M1355.59,398.42V316.48h21.7l-.81,16.9,1.06.16v64.88Zm34.68-55.25a20.38,20.38,0,0,0-.57-5.22,6,6,0,0,0-1.88-3.19,5.58,5.58,0,0,0-3.59-1.06,6.4,6.4,0,0,0-3.22.82,6.49,6.49,0,0,0-2.37,2.37,9.63,9.63,0,0,0-1.26,3.59l-4.49-9.88h4.57a29,29,0,0,1,2.73-7.67,14.14,14.14,0,0,1,5.35-5.51,17.72,17.72,0,0,1,9.14-2.08,17.37,17.37,0,0,1,10.08,2.69,15.43,15.43,0,0,1,5.67,8,42.38,42.38,0,0,1,1.79,13.26v59.09h-22Z"/><path d="M1440.87,399.56q-10,0-14.24-7.87t-4.21-22.9V347.25q0-15.83,4.17-23.87t14.44-8a15.65,15.65,0,0,1,8.32,2,13.25,13.25,0,0,1,4.94,5.43,31.11,31.11,0,0,1,2.65,7.87h5L1457.84,344a23.09,23.09,0,0,0-.78-5.92,7.08,7.08,0,0,0-2.24-3.67,6.09,6.09,0,0,0-4-1.27,5.13,5.13,0,0,0-5,2.9q-1.42,2.89-1.43,8.85v24.65c0,3.92.49,6.85,1.47,8.81a5.27,5.27,0,0,0,5.15,2.94,6,6,0,0,0,3.26-.86,7.55,7.55,0,0,0,2.37-2.4,10.65,10.65,0,0,0,1.38-3.51l3.27,9.46h-3.76a28.74,28.74,0,0,1-2.65,7.92,13.75,13.75,0,0,1-5.18,5.63A16.77,16.77,0,0,1,1440.87,399.56Zm16.81-1.14.73-17.14-.57-2V332.81l-.24-23.67V290.21h21.79V398.42Z"/><path d="M904.41,282.62c-33.11,0-59.95,27.62-59.95,61.7S871.3,406,904.41,406s60-27.62,60-61.69S937.52,282.62,904.41,282.62Zm-30.77,32.21c2.61.83,5.22,1.56,7.83,2.17a57.88,57.88,0,0,0,7.81,1.31,31,31,0,0,0,3.84.14,21.5,21.5,0,0,0,3.71-.37,15.17,15.17,0,0,0,3.39-1,12.56,12.56,0,0,0,2.87-1.84l1.39-1.34c.28-.27.56-.53.86-.77s.58-.5.9-.72a18.79,18.79,0,0,1,4-2.21,23.89,23.89,0,0,1,8.56-1.72,34.49,34.49,0,0,1,8.4.88,36,36,0,0,1,4,1.16c.66.23,1.3.48,1.94.74s1.27.55,1.88.88a77.21,77.21,0,0,0-8.09-.63,47.42,47.42,0,0,0-7.85.4,30.43,30.43,0,0,0-3.73.77,21.12,21.12,0,0,0-3.47,1.28,17.31,17.31,0,0,0-3.07,1.86c-.24.17-.46.38-.69.57a7.33,7.33,0,0,0-.65.6l-.68.67-.87.82a15.51,15.51,0,0,1-4,2.46,17.58,17.58,0,0,1-4.42,1.15,21.8,21.8,0,0,1-4.41.13,29.92,29.92,0,0,1-4.26-.59,40.69,40.69,0,0,1-8-2.63c-1.26-.57-2.51-1.18-3.71-1.87a31.15,31.15,0,0,1-3.49-2.22Zm-8.95,15.7c3.33,1.18,6.66,2.23,10,3.08a68.68,68.68,0,0,0,10.12,1.88c.84.11,1.68.15,2.52.21s1.67.07,2.5.05a28.23,28.23,0,0,0,4.89-.45,20.13,20.13,0,0,0,4.53-1.36,17.13,17.13,0,0,0,3.88-2.46l1.82-1.76.52-.5.55-.47c.38-.3.74-.63,1.13-.9a23.64,23.64,0,0,1,5-2.81,27.5,27.5,0,0,1,5.38-1.63,35.28,35.28,0,0,1,5.48-.64,42.82,42.82,0,0,1,5.44.16c1.8.18,3.57.45,5.33.79A46.85,46.85,0,0,1,943.92,327a86.06,86.06,0,0,0-10.4-1.13c-1.73-.1-3.45-.13-5.15-.06s-3.4.18-5.07.39a37.55,37.55,0,0,0-4.9.95c-.8.21-1.58.47-2.35.72l-1.14.44c-.38.15-.74.34-1.11.49a21.74,21.74,0,0,0-4.1,2.46c-.32.23-.61.5-.91.75l-.46.38-.42.42-.89.88-1.08,1a19.76,19.76,0,0,1-5,3.09,22.09,22.09,0,0,1-5.56,1.47,27.64,27.64,0,0,1-5.59.2,36.29,36.29,0,0,1-5.44-.7,44.28,44.28,0,0,1-5.24-1.36c-1.7-.55-3.39-1.14-5-1.84a56.28,56.28,0,0,1-9.39-5ZM860,344.39l0,0c3.69,1.36,7.41,2.57,11.16,3.55a74.33,74.33,0,0,0,11.3,2.18c1,.13,1.89.18,2.83.25s1.88.09,2.81.06a31.17,31.17,0,0,0,5.5-.48,22.55,22.55,0,0,0,5.13-1.53,18.6,18.6,0,0,0,4.4-2.78l2-2,.57-.55c.2-.18.41-.35.62-.52.42-.33.81-.69,1.25-1a26.64,26.64,0,0,1,5.52-3.12,31,31,0,0,1,6-1.82,38.2,38.2,0,0,1,6.09-.73,49,49,0,0,1,6.06.15c2,.18,4,.47,5.94.84a53.41,53.41,0,0,1,11.33,3.53A94.06,94.06,0,0,0,937,339c-1.93-.12-3.86-.17-5.77-.1s-3.81.18-5.68.4a40.3,40.3,0,0,0-5.51,1.05c-.9.23-1.77.51-2.65.8l-1.28.49c-.43.16-.83.37-1.25.55a24.21,24.21,0,0,0-4.63,2.76c-.37.26-.69.57-1,.85l-.51.43-.48.47-1,1L906,348.83a21.61,21.61,0,0,1-5.54,3.41,24.22,24.22,0,0,1-6.16,1.64,31.52,31.52,0,0,1-6.2.24,43.3,43.3,0,0,1-6.05-.75,50,50,0,0,1-5.84-1.49c-1.91-.6-3.79-1.26-5.63-2A64,64,0,0,1,860,344.39Zm86.72,23.08c-7.11,15.43-23.17,25.39-40.9,25.39-20.15,0-37.88-12.89-43.1-31.33l-.1-.37.28.25A29.56,29.56,0,0,0,873.46,368c10.9,3.91,21.4,0,27.75-2.43,5.77-2.17,7.2-3.68,11-5.41,7.25-3.28,18.85-5.43,37.41.78l-2.82,6.39Z"/><path d="M1293.06,464.72V424.23h3.12l19.73,30.31,19.72-30.43h3.07v40.61h-5.44V436.67l-16.08,25.16h-2.55l-16.14-25.16v28.05Z"/><path d="M1349.28,437h5.15v16.19a7.12,7.12,0,0,0,2.17,5.56,8.77,8.77,0,0,0,6.1,2,9.86,9.86,0,0,0,7.64-3.24V437h5.15v27.76h-4.63l-.35-2.54c-2.12,2-5,3-8.67,3q-5.91,0-9.23-3.19t-3.33-8.85Z"/><path d="M1387.32,438.43c1.91-1.37,4.67-2.05,8.3-2.05q6.42,0,9.77,2.89v4.63c-1.92-1.85-5-2.78-9.19-2.78q-6.83,0-6.83,3.13a2.69,2.69,0,0,0,1.65,2.31,17.36,17.36,0,0,0,5.23,1.56q5.85,1,8.59,3.18a6.88,6.88,0,0,1,2.75,5.73,7,7,0,0,1-3.18,6.13q-3.18,2.14-9.26,2.14-6.7,0-10.52-2.89v-4.63q3.4,2.78,10.12,2.78a14.6,14.6,0,0,0,5.76-.93c1.4-.61,2.11-1.46,2.11-2.54a2.75,2.75,0,0,0-1.65-2.35,18.3,18.3,0,0,0-5.47-1.64c-3.82-.7-6.61-1.75-8.39-3.16a7.37,7.37,0,0,1,.21-11.51Z"/><path d="M1431.54,437v4.51h-8.62v14.17a5,5,0,0,0,1.36,3.67,4.88,4.88,0,0,0,3.62,1.36,5.64,5.64,0,0,0,3.64-1.15v4.28a9.28,9.28,0,0,1-5,1.33,8.82,8.82,0,0,1-6.37-2.32,8,8,0,0,1-2.43-6.07V441.47h-5.09V437h5.09v-4.52l5.15-2.54V437Z"/><path d="M1440.91,462.9a7.18,7.18,0,0,1-3-6,7.38,7.38,0,0,1,3.3-6.37c2.2-1.54,5.24-2.31,9.14-2.31a46.06,46.06,0,0,1,6.59.58v-1.45q0-6.13-8.27-6.13-5.49,0-8.62,2.49V439a17.29,17.29,0,0,1,9.55-2.43q6.07,0,9.31,2.63a9.17,9.17,0,0,1,3.24,7.55v11.86q0,2.55,3.47,2.55v3.41a6.8,6.8,0,0,1-7.87-2,14.77,14.77,0,0,1-8.79,2.55Q1443.86,465.13,1440.91,462.9Zm4.46-9.31a3.57,3.57,0,0,0-2.2,3.21,3.28,3.28,0,0,0,1.76,2.92,9.49,9.49,0,0,0,4.89,1.07,10.18,10.18,0,0,0,7.17-2.55v-5.32a44.18,44.18,0,0,0-5.55-.52A12.89,12.89,0,0,0,1445.37,453.59Z"/><path d="M1473,437h4.63l.23,3.35a11.15,11.15,0,0,1,8.85-3.87,13.43,13.43,0,0,1,3.87.57v5a9.77,9.77,0,0,0-12.43,2.95v19.72H1473Z"/><path d="M1499.63,440.51a13.79,13.79,0,0,1,10.24-4,13.55,13.55,0,0,1,7.46,2V423.07h5.2v41.65h-4.62l-.23-1.79a13.56,13.56,0,0,1-7.81,2.2,13.73,13.73,0,0,1-10.24-4,14.11,14.11,0,0,1-3.94-10.36A14,14,0,0,1,1499.63,440.51Zm4.1,3.27a10,10,0,0,0,13.6,14.52V443.38a10.45,10.45,0,0,0-13.6.4Z"/><path d="M1550.62,438.43c1.91-1.37,4.67-2.05,8.3-2.05q6.42,0,9.77,2.89v4.63c-1.92-1.85-5-2.78-9.19-2.78q-6.82,0-6.83,3.13a2.69,2.69,0,0,0,1.65,2.31,17.35,17.35,0,0,0,5.24,1.56q5.84,1,8.59,3.18a7.43,7.43,0,0,1-.44,11.86q-3.18,2.14-9.25,2.14-6.72,0-10.53-2.89v-4.63q3.4,2.78,10.12,2.78a14.6,14.6,0,0,0,5.76-.93c1.4-.61,2.11-1.46,2.11-2.54a2.75,2.75,0,0,0-1.65-2.35,18.3,18.3,0,0,0-5.47-1.64c-3.81-.7-6.61-1.75-8.38-3.16a7.37,7.37,0,0,1,.2-11.51Z"/><path d="M1601.84,440.86q3.77,4.49,3.3,11.66h-22.33a9.13,9.13,0,0,0,3.9,5.93,13.92,13.92,0,0,0,8,2.17,13.58,13.58,0,0,0,9.08-2.95v4.85a17.37,17.37,0,0,1-9.89,2.78q-7.41,0-11.89-4a13.63,13.63,0,0,1-4.48-10.67,14,14,0,0,1,3.9-10.24,13.57,13.57,0,0,1,10.15-4A12.66,12.66,0,0,1,1601.84,440.86Zm-1.79,7.43a7.75,7.75,0,0,0-2.61-5.38,8.54,8.54,0,0,0-5.84-2,8.68,8.68,0,0,0-5.84,2,9.1,9.1,0,0,0-3,5.38Z"/><path d="M1636.49,440.86q3.77,4.49,3.3,11.66h-22.33a9.11,9.11,0,0,0,3.91,5.93,13.86,13.86,0,0,0,8,2.17,13.58,13.58,0,0,0,9.08-2.95v4.85a17.37,17.37,0,0,1-9.89,2.78q-7.41,0-11.89-4a13.63,13.63,0,0,1-4.48-10.67,14,14,0,0,1,3.9-10.24,13.57,13.57,0,0,1,10.15-4A12.66,12.66,0,0,1,1636.49,440.86Zm-1.79,7.43a7.74,7.74,0,0,0-2.6-5.38,8.58,8.58,0,0,0-5.85-2,8.68,8.68,0,0,0-5.84,2,9.1,9.1,0,0,0-3,5.38Z"/><path d="M1650.78,440.51a13.8,13.8,0,0,1,10.24-4,13.53,13.53,0,0,1,7.46,2V423.07h5.21v41.65h-4.63l-.23-1.79a13.54,13.54,0,0,1-7.81,2.2,13.75,13.75,0,0,1-10.24-4,14.14,14.14,0,0,1-3.93-10.36A14,14,0,0,1,1650.78,440.51Zm4.11,3.27a10,10,0,0,0,13.59,14.52V443.38a10.44,10.44,0,0,0-13.59.4Z"/></g></svg>