<svg xmlns="http://www.w3.org/2000/svg" viewBox="0 0 1086.4 1086.4"><defs><style>.cls-1{fill:#133358;}.cls-2{font-size:51px;font-family:Greenwich-Regular, Greenwich;letter-spacing:-0.04em;}.cls-3{letter-spacing:-0.01em;}.cls-4{letter-spacing:-0.01em;}.cls-5{letter-spacing:-0.01em;}.cls-6{letter-spacing:-0.02em;}.cls-7{letter-spacing:-0.01em;}.cls-8{fill:#fff;}</style></defs><g id="Layer_3" data-name="Layer 3"><path class="cls-1" d="M253.3,127.29c.36-.94.73-1.88,1.08-2.79v0h0C254,125.41,253.65,126.34,253.3,127.29Z"/><path class="cls-1" d="M541.38,518.81c-146.86,42.7-243-4.62-297.84-51.83l-2-1.72.71,2.53C278.55,595.3,401.63,684.36,541.6,684.36c123.16,0,234.67-68.87,284.08-175.47l.4-.86-.92-.23C764.16,492.93,665.42,482.78,541.38,518.81Z"/><path class="cls-1" d="M337.66,457.36a4.37,4.37,0,0,0,6.4-4.59,165.45,165.45,0,0,1-2.2-34.75c4.16-99.45,95.63-176.39,204.31-171.84A213.94,213.94,0,0,1,585,251.33a4.37,4.37,0,0,0,3.43-7.88l-58.2-23.12-.79-.16c-2.11-.44-4.27-.84-6.46-1.2l-.23,0c-.76-.13-1.53-.24-2.3-.34l-1.22-.21c-.57-.09-1.15-.18-1.74-.24-.83-.13-1.65-.24-2.49-.34l-.18,0c-2.13-.27-4.3-.51-6.49-.71-.82-.08-1.64-.15-2.47-.21h-.25c-.23,0-.47,0-.71,0l-.68,0c-.41,0-.79-.06-1.2-.07-.75-.07-1.49-.12-2.24-.17l-.43,0c-1.05-.06-2.1-.11-3.17-.15-.36,0-.74,0-1.11,0-1,0-2-.06-3-.08-2.47,0-5,0-7.5,0q-7.1.12-14.54.7c-2.48.2-5,.44-7.53.73q-9.28,1-19.09,2.88c-1.12.22-2.24.43-3.37.67-.95.18-1.92.38-2.88.6s-2.12.45-3.2.7c-2.44.55-4.91,1.15-7.4,1.78-5.59,1.43-11.28,3-17.08,4.88l-.48.16c-2.74.88-5.51,1.8-8.3,2.78-1.49.52-3,1.05-4.46,1.59q-13.06,4.77-26.82,11c-1.84.84-3.69,1.71-5.56,2.58-1.59.77-3.18,1.53-4.78,2.32s-3.22,1.59-4.84,2.41-3.08,1.54-4.6,2.28-3,1.43-4.45,2.1c-2.18,1-4.32,2-6.4,2.86-1.39.6-2.76,1.17-4.1,1.7s-2.65,1.07-4,1.54q-4.86,1.85-9.32,3.21-2.69.82-5.2,1.48c-1.12.29-2.23.56-3.3.8-19.37,4.38-32,1.22-39.73-6.86-.39-.42-.78-.86-1.16-1.29-7.05-8.4-9.49-21.39-9-36.55,0-.4,0-.8,0-1.22,0-.15,0-.3,0-.46,0-.45,0-.91.07-1.37l.12-1.84c.07-.89.13-1.76.21-2.65s.12-1.65.22-2.5l.15-1.29c0-.31.08-.64.12-1,.07-.63.15-1.26.22-1.89,0-.24.06-.47.1-.71.09-.66.18-1.32.28-2s.19-1.39.3-2.09l0-.22c.1-.69.21-1.38.32-2.08.06-.34.13-.69.19-1,.33-2,.7-4,1.09-6a1.86,1.86,0,0,0,.06-.34c.19-.91.38-1.84.58-2.76s.35-1.68.54-2.52c.52-2.53,1.13-5.06,1.76-7.6.28-1.19.58-2.38.89-3.57.13-.5.27-1,.4-1.5.39-1.5.79-3,1.21-4.46.06-.2.11-.4.17-.6.32-1.13.63-2.24,1-3.36.22-.8.46-1.6.7-2.4.16-.53.32-1.07.47-1.61.27-.9.54-1.79.82-2.68.51-1.73,1.06-3.46,1.6-5.16.06-.21.14-.43.21-.64q1-3.18,2.07-6.3c.85-2.56,1.72-5.06,2.58-7.53.43-1.24.87-2.46,1.29-3.67.55-1.49,1.08-3,1.64-4.45.08-.19.14-.38.22-.55q.75-2.08,1.53-4.11.34-1,.72-1.92c.35-1,.7-1.88,1.07-2.81h0a4.36,4.36,0,0,0-7.33-4.46,216.81,216.81,0,0,0,56.08,337.34Z"/><path class="cls-1" d="M263.91,223.29c0-.55,0-1.12.07-1.68,0,.16,0,.31,0,.46C263.94,222.49,263.93,222.89,263.91,223.29Z"/><path class="cls-1" d="M264.38,215.75c.1-1.24.22-2.51.37-3.79l-.15,1.29C264.5,214.1,264.44,214.92,264.38,215.75Z"/><path class="cls-1" d="M270.35,181.8c-.63,2.54-1.24,5.07-1.76,7.6C269.14,186.88,269.74,184.35,270.35,181.8Z"/><path class="cls-1" d="M270.35,181.8c.42-1.69.86-3.37,1.29-5.07-.13.5-.27,1-.4,1.5C270.93,179.42,270.63,180.61,270.35,181.8Z"/><path class="cls-1" d="M271.64,176.73c.46-1.68.91-3.38,1.38-5.06-.06.2-.11.4-.17.6C272.43,173.76,272,175.23,271.64,176.73Z"/><path class="cls-1" d="M282.43,142q1.47-4.16,2.93-8.12c-.56,1.45-1.09,3-1.64,4.45C283.3,139.53,282.86,140.75,282.43,142Z"/><path class="cls-1" d="M504.17,216.76l.68,0c-1.35-.11-2.73-.2-4.12-.28.75,0,1.49.1,2.24.17C503.38,216.7,503.76,216.71,504.17,216.76Z"/><path class="cls-1" d="M522.7,218.93c-1.16-.19-2.34-.38-3.52-.55l1.22.21C521.17,218.69,521.94,218.8,522.7,218.93Z"/><path class="cls-1" d="M547.64,224.83a1,1,0,0,1-.25-.08c.2.07.41.13.61.21A3.82,3.82,0,0,0,547.64,224.83Z"/><path class="cls-1" d="M556.21,227.72c-.77-.28-1.55-.56-2.33-.81.87.3,1.74.61,2.6.93Z"/><path class="cls-1" d="M588.38,243.45l.11.05c-.67-.42-1.35-.83-2-1.24.62.36,1.22.74,1.82,1.11Z"/><path class="cls-1" d="M588.27,243.37c-.6-.37-1.2-.75-1.82-1.11s-1.38-.83-2.07-1.23-1.4-.83-2.11-1.23l-2.17-1.21-4.5-2.38-1.14-.58-2.33-1.15-1.19-.55c-1-.46-1.93-.92-2.89-1.33l-.42-.2-.42-.19c-1-.45-2-.88-3-1.29l-1.6-.68c-1.38-.57-2.77-1.11-4.19-1.65l-1.73-.67-.25-.08c-.86-.32-1.73-.63-2.6-.93l-.37-.13-1.85-.63c-.63-.22-1.27-.43-1.91-.63L548,225c-.2-.08-.41-.14-.61-.21s-.18-.06-.26-.07c-.45-.14-.88-.28-1.34-.4-.87-.26-1.75-.53-2.64-.78l-.79-.22-2.72-.74-.39-.09-1.27-.34-.17,0-.17,0-.2,0c-.63-.15-1.26-.3-1.89-.47l-1.26-.29c-.65-.15-1.3-.3-2-.43-.36-.08-.73-.17-1.11-.24-.21,0-.46-.12-.69-.15l-.35-.08,58.2,23.12Z"/><path class="cls-1" d="M378.72,200.81A53.61,53.61,0,1,0,327.85,140c-.23,1.66-.38,3.34-.45,5.06A53.59,53.59,0,0,0,378.72,200.81Z"/><path class="cls-1" d="M851.23,313.06a132.47,132.47,0,0,0-62.86-66.48,2.67,2.67,0,0,0-3.22,4.16c1.25,1.38,2.54,2.84,3.85,4.34.35.38.71.8,1.07,1.21l1.08,1.24.49.59,2.61,3.09c.52.63,1,1.26,1.56,1.9l0,0c.73.88,1.45,1.77,2.17,2.67.21.25.42.52.62.78.83,1,1.67,2.09,2.49,3.16.42.54.82,1.09,1.25,1.63.07.1.15.18.22.28.55.73,1.11,1.46,1.64,2.2l.57.76,1.11,1.52c.38.51.74,1,1.12,1.54.15.21.3.42.44.64,1.3,1.85,2.57,3.69,3.77,5.57.54.79,1,1.61,1.54,2.41.07.11.15.22.23.36.86,1.37,1.69,2.73,2.46,4.1.12.19.23.37.33.56.24.42.48.84.7,1.25.48.84.93,1.68,1.35,2.51.22.41.43.83.64,1.23.12.22.24.46.34.69a6.3,6.3,0,0,1,.34.69c.25.5.48,1,.7,1.48.31.68.63,1.37.93,2.05.41.95.79,1.89,1.14,2.83.14.36.27.72.4,1.08.34.93.65,1.85.91,2.77.12.35.22.69.3,1,.27.9.48,1.79.66,2.65.06.26.11.54.16.8s.12.67.17,1a26,26,0,0,1,.34,2.85c0,.29,0,.57.05.85.65,15.21-11.67,25.23-49.86,21.26l-4.45-.42c-1.47-.13-2.92-.24-4.36-.34s-2.67-.18-4-.25l-3.09-.14c-1-.05-2-.08-3.06-.11q-3.95-.1-7.76-.07H748l-2.18,0q-.63,0-1.23,0c-1,0-1.91.05-2.86.08l-2.53.13-.51,0-.63,0c-.75,0-1.49.09-2.23.15l-1.87.14c-1.72.12-3.43.29-5.1.48-.82.08-1.66.18-2.48.28s-1.64.2-2.45.32-1.62.22-2.42.35-1.52.22-2.26.36-1.69.28-2.51.43-1.52.27-2.27.42-1.52.3-2.27.47q-2.33.48-4.56,1c-2.14.53-4.25,1.09-6.29,1.68l-1.75.53c-.82.24-1.63.49-2.42.75-2,.63-3.85,1.29-5.7,2q-3.13,1.16-6.09,2.43l-1.48.64-1.34.64c-.23.1-.44.19-.66.3s-.54.24-.79.37l-.14.06-1,.47-1.24.62-1.14.57,0,0-.5.26c-.44.21-.87.45-1.29.68l-1.17.65c-.27.14-.54.27-.8.42,0,0,0,0,0,0l-.79.46c-.47.25-.92.51-1.37.78l-1.34.79-1.14.7c-.45.27-.89.56-1.33.84l-28.35,26a2.67,2.67,0,0,0,3.68,3.75,132.28,132.28,0,0,1,21.11-11.44C725.6,350.4,794.87,374.49,819,430.6A101.11,101.11,0,0,1,825.34,451a2.69,2.69,0,0,0,4.68,1.24A133,133,0,0,0,851.23,313.06Z"/><path class="cls-1" d="M654.5,368.39l-.12.11c.39-.35.79-.69,1.21-1C655.22,367.77,654.85,368.09,654.5,368.39Z"/><path class="cls-1" d="M639.45,384.5l0,0a.18.18,0,0,1,0-.08S639.49,384.46,639.45,384.5Z"/><path class="cls-1" d="M667.61,358.58c-.11.07-.23.17-.36.24l-.57.37-1.41.94-1.36.94h0l-.15.1a4,4,0,0,1-.33.24c-.79.57-1.56,1.12-2.33,1.69l-.39.29c-.56.43-1.1.84-1.64,1.27-.07.05-.17.14-.25.19s0,0-.07.06c-.34.26-.65.54-1,.8l-.91.73c-.33.27-.66.54-1,.81l-.25.21c-.42.34-.82.68-1.21,1h0c-1,.92-2.06,1.83-3,2.76l-.74.71c-.48.46-.94.92-1.42,1.4a5,5,0,0,0-.4.4c-.45.45-.91.92-1.36,1.39s-.74.77-1.11,1.16l-1.06,1.17-1,1.17-1,1.17c-.32.39-.65.78-1,1.18-.93,1.13-1.81,2.24-2.66,3.36a.18.18,0,0,0,0,.08l28.35-26Z"/><path class="cls-1" d="M675.8,353.77l-2,1.07c.26-.15.53-.28.8-.42Z"/><path class="cls-1" d="M682.6,350.42l1.34-.64c-.94.43-1.88.85-2.79,1.31.25-.13.51-.24.79-.37S682.37,350.52,682.6,350.42Z"/><path class="cls-1" d="M675.87,342.7l1.25,1.46-.39-.47Z"/><path class="cls-1" d="M688.52,358.54l1.24,1.74-.35-.51Z"/><path class="cls-1" d="M723,302.38a26.25,26.25,0,0,0,38.64-32.24,24.22,24.22,0,0,0-1.09-2.23A26.25,26.25,0,1,0,723,302.38Z"/><path d="M185.49,826.74q-6.3,0-9.39-4.29T173,809.94V807q0-8.4,3.9-12.27t12.18-5.79l9.42-2.34,1.74,10.92-7.08,1.92a7.06,7.06,0,0,0-3.84,2,6.1,6.1,0,0,0-1.26,4.14v1.8a9.64,9.64,0,0,0,1,4.74,3.54,3.54,0,0,0,3.36,1.68,4,4,0,0,0,2.37-.66,5.17,5.17,0,0,0,1.53-1.74,7.77,7.77,0,0,0,.84-2.46L199,815.7h-2a26,26,0,0,1-1.86,5.61,9.21,9.21,0,0,1-3.51,4A11.39,11.39,0,0,1,185.49,826.74Zm11.58-.84.54-12.12H197V789.6l-.24-2.46q0-4.68-1.65-6.75T189,778.32a22.76,22.76,0,0,0-7.35,1.23,49.23,49.23,0,0,0-6.57,2.73l1-13.38a27.91,27.91,0,0,1,4.38-2.07,36.65,36.65,0,0,1,5.49-1.56,31.65,31.65,0,0,1,6.45-.63,26.54,26.54,0,0,1,9,1.38,15.26,15.26,0,0,1,6.27,4.11,17,17,0,0,1,3.63,6.9,36,36,0,0,1,1.17,9.69V825.9Z"/><path d="M233.91,826.74a29.71,29.71,0,0,1-8.25-1,29,29,0,0,1-6.09-2.43l-1-14.34a53.74,53.74,0,0,0,6,2.73,19,19,0,0,0,6.84,1.17q3.06,0,4.29-1.2a4.32,4.32,0,0,0,1.23-3.24v-.66a5,5,0,0,0-.72-2.67,8.81,8.81,0,0,0-2.55-2.43q-1.83-1.26-5.19-3.42a28.59,28.59,0,0,1-5.88-4.65,14.93,14.93,0,0,1-3.3-5.4,20.93,20.93,0,0,1-1-6.81v-.84q0-8.1,4.71-12.39t13.77-4.29a24.81,24.81,0,0,1,7.68,1.11,21.61,21.61,0,0,1,5.52,2.55l1,13.44a33.2,33.2,0,0,0-5.22-2.52,17.5,17.5,0,0,0-6.3-1.08,8.72,8.72,0,0,0-3.18.48,3.53,3.53,0,0,0-1.77,1.41,4.35,4.35,0,0,0-.57,2.31v.36a4.47,4.47,0,0,0,.93,2.82,11.67,11.67,0,0,0,2.7,2.4q1.77,1.2,4.29,2.76a29,29,0,0,1,6.21,4.38,14.3,14.3,0,0,1,3.51,5.28,21.09,21.09,0,0,1,1.14,7.44V809q0,8.46-4.59,13.08T233.91,826.74Z"/><path d="M266.55,761.16q-4.38,0-6.39-2.25a8.63,8.63,0,0,1-2-6v-.66a8.49,8.49,0,0,1,2-6q2-2.19,6.39-2.19t6.36,2.19a8.41,8.41,0,0,1,2,6v.66a8.55,8.55,0,0,1-2,6Q270.87,761.16,266.55,761.16Zm-8,64.74V765.66h16.14V825.9Z"/><path d="M296.07,826.74a29.71,29.71,0,0,1-8.25-1,29,29,0,0,1-6.09-2.43l-1-14.34a53.74,53.74,0,0,0,6,2.73,19,19,0,0,0,6.84,1.17q3.06,0,4.29-1.2a4.32,4.32,0,0,0,1.23-3.24v-.66a5,5,0,0,0-.72-2.67,8.81,8.81,0,0,0-2.55-2.43q-1.83-1.26-5.19-3.42a28.59,28.59,0,0,1-5.88-4.65,14.93,14.93,0,0,1-3.3-5.4,20.93,20.93,0,0,1-1-6.81v-.84q0-8.1,4.71-12.39t13.77-4.29a24.81,24.81,0,0,1,7.68,1.11,21.61,21.61,0,0,1,5.52,2.55l1,13.44a33.2,33.2,0,0,0-5.22-2.52,17.5,17.5,0,0,0-6.3-1.08,8.72,8.72,0,0,0-3.18.48,3.53,3.53,0,0,0-1.77,1.41,4.35,4.35,0,0,0-.57,2.31v.36a4.47,4.47,0,0,0,.93,2.82,11.67,11.67,0,0,0,2.7,2.4q1.77,1.2,4.29,2.76a29,29,0,0,1,6.21,4.38,14.3,14.3,0,0,1,3.51,5.28,21.09,21.09,0,0,1,1.14,7.44V809q0,8.46-4.59,13.08T296.07,826.74Z"/><path d="M581.73,827.9V751.22h16.44V827.9Zm10.62-61.8V751.22h21.78V766.1Zm.18,33.72V784.88h21v14.94Z"/><path d="M640.35,829q-10.44,0-15.72-6t-5.28-17.7V790.16q0-11.7,5.28-17.67t15.72-6q10.38,0,15.66,6t5.28,17.67v15.18q0,11.7-5.28,17.7T640.35,829Zm0-13.14a3.94,3.94,0,0,0,3.81-2.13,14.83,14.83,0,0,0,1.11-6.57V788.36q0-4.5-1.11-6.6a4,4,0,0,0-3.81-2.1,4,4,0,0,0-3.9,2.1,15.16,15.16,0,0,0-1.08,6.6V807.2a15.19,15.19,0,0,0,1.08,6.57A4,4,0,0,0,640.35,815.9Z"/><path d="M684.75,808.28a15.28,15.28,0,0,0,.42,3.9,4.37,4.37,0,0,0,1.38,2.34,4.07,4.07,0,0,0,2.64.78,4.63,4.63,0,0,0,2.43-.63,4.85,4.85,0,0,0,1.71-1.77,7.59,7.59,0,0,0,.9-2.58l3.3,7.2h-3.36a21.61,21.61,0,0,1-2,5.67,10.18,10.18,0,0,1-3.87,4,13.21,13.21,0,0,1-6.78,1.5,12.72,12.72,0,0,1-7.41-2,11.29,11.29,0,0,1-4.17-5.91,30.74,30.74,0,0,1-1.32-9.69v-43.5h16.14Zm25.5-40.62V827.9h-16l.6-12.36-.78-.12V767.66Z"/><path d="M719,827.9V767.66h16l-.6,12.42.78.12v47.7Zm25.5-40.62a15,15,0,0,0-.42-3.84,4.37,4.37,0,0,0-1.38-2.34,4.07,4.07,0,0,0-2.64-.78,4.69,4.69,0,0,0-2.37.6,4.83,4.83,0,0,0-1.74,1.74,7.26,7.26,0,0,0-.93,2.64l-3.3-7.26h3.36a21.14,21.14,0,0,1,2-5.64,10.32,10.32,0,0,1,3.93-4,13.06,13.06,0,0,1,6.72-1.53,12.72,12.72,0,0,1,7.41,2,11.29,11.29,0,0,1,4.17,5.91,31,31,0,0,1,1.32,9.75V827.9H744.51Z"/><path d="M781.71,828.74q-7.38,0-10.47-5.79t-3.09-16.83V790.28q0-11.64,3.06-17.55t10.62-5.91a11.55,11.55,0,0,1,6.12,1.44,9.74,9.74,0,0,1,3.63,4,22.91,22.91,0,0,1,1.95,5.79h3.66l-3,9.84a17.4,17.4,0,0,0-.57-4.35,5.24,5.24,0,0,0-1.65-2.7,4.5,4.5,0,0,0-2.94-.93,3.76,3.76,0,0,0-3.69,2.13,15.39,15.39,0,0,0-1.05,6.51v18.12a15,15,0,0,0,1.08,6.48,3.87,3.87,0,0,0,3.78,2.16,4.47,4.47,0,0,0,2.4-.63,5.46,5.46,0,0,0,1.74-1.77,7.74,7.74,0,0,0,1-2.58l2.4,7H794a21.44,21.44,0,0,1-2,5.82,10.16,10.16,0,0,1-3.81,4.14A12.33,12.33,0,0,1,781.71,828.74Zm12.36-.84.54-12.6-.42-1.5V779.66l-.18-17.4V748.34h16V827.9Z"/><path d="M829.23,828.74q-6.3,0-9.39-4.29t-3.09-12.51V809q0-8.4,3.9-12.27t12.18-5.79l9.42-2.34L844,799.52l-7.08,1.92a7.06,7.06,0,0,0-3.84,2,6.1,6.1,0,0,0-1.26,4.14v1.8a9.64,9.64,0,0,0,1,4.74,3.54,3.54,0,0,0,3.36,1.68,4,4,0,0,0,2.37-.66,5.17,5.17,0,0,0,1.53-1.74,7.77,7.77,0,0,0,.84-2.46l1.86,6.72h-2a26,26,0,0,1-1.86,5.61,9.21,9.21,0,0,1-3.51,4A11.39,11.39,0,0,1,829.23,828.74Zm11.58-.84.54-12.12h-.6V791.6l-.24-2.46q0-4.68-1.65-6.75t-6.09-2.07a22.76,22.76,0,0,0-7.35,1.23,49.23,49.23,0,0,0-6.57,2.73l1-13.38a27.91,27.91,0,0,1,4.38-2.07,36.65,36.65,0,0,1,5.49-1.56,31.65,31.65,0,0,1,6.45-.63,26.54,26.54,0,0,1,9,1.38,15.26,15.26,0,0,1,6.27,4.11,17,17,0,0,1,3.63,6.9,36,36,0,0,1,1.17,9.69V827.9Z"/><path d="M860.61,780.86v-13h31.56l-1.08,13Zm20.7,47.88a18.22,18.22,0,0,1-8.64-1.8,11.22,11.22,0,0,1-5-5.46,21.86,21.86,0,0,1-1.65-9V770h15.9v38.64q0,2.94,1.23,4.2t4.11,1.26a12,12,0,0,0,2.85-.33,19,19,0,0,0,2.55-.81l-1,13.5a22.61,22.61,0,0,1-4.5,1.62A23.53,23.53,0,0,1,881.31,828.74Zm-15-59.82v-14l15.72-2-.6,16Z"/><path d="M906,763.16q-4.38,0-6.39-2.25a8.58,8.58,0,0,1-2-6v-.66a8.44,8.44,0,0,1,2-6q2-2.19,6.39-2.19t6.36,2.19a8.41,8.41,0,0,1,2,6v.66a8.55,8.55,0,0,1-2,6Q910.35,763.16,906,763.16Zm-8,64.74V767.66h16.14V827.9Z"/><path d="M942.75,829q-10.44,0-15.73-6t-5.27-17.7V790.16q0-11.7,5.27-17.67t15.73-6q10.38,0,15.66,6t5.27,17.67v15.18q0,11.7-5.27,17.7T942.75,829Zm0-13.14a3.93,3.93,0,0,0,3.8-2.13,14.81,14.81,0,0,0,1.12-6.57V788.36a14.78,14.78,0,0,0-1.12-6.6,3.94,3.94,0,0,0-3.8-2.1,4,4,0,0,0-3.91,2.1,15.32,15.32,0,0,0-1.08,6.6V807.2a15.35,15.35,0,0,0,1.08,6.57A4,4,0,0,0,942.75,815.9Z"/><path d="M971.3,827.9V767.66h16l-.6,12.42.78.12v47.7Zm25.5-40.62a15,15,0,0,0-.42-3.84A4.37,4.37,0,0,0,995,781.1a4.07,4.07,0,0,0-2.64-.78,4.69,4.69,0,0,0-2.37.6,4.83,4.83,0,0,0-1.74,1.74,7.26,7.26,0,0,0-.93,2.64L984,778h3.36a21.14,21.14,0,0,1,2-5.64,10.32,10.32,0,0,1,3.93-4,13.06,13.06,0,0,1,6.72-1.53,12.72,12.72,0,0,1,7.41,2,11.29,11.29,0,0,1,4.17,5.91,31,31,0,0,1,1.32,9.75V827.9H996.8Z"/><text class="cls-2" transform="translate(338.85 881.42)">F<tspan class="cls-3" x="31.21" y="0">ou</tspan><tspan class="cls-4" x="92.31" y="0">nt</tspan><tspan class="cls-5" x="142.54" y="0">ain </tspan><tspan class="cls-6" x="226.54" y="0">o</tspan><tspan class="cls-7" x="256.58" y="0">f hope</tspan></text><path d="M366.45,830.22H349.89V753.54h16.56Zm-5.7-46.2h22v14.34h-22Zm33.48,46.2H377.61V753.54h16.62Z"/><path d="M413.91,831.06q-6.3,0-9.39-4.29t-3.09-12.51v-2.94q0-8.4,3.9-12.27t12.18-5.79l9.42-2.34,1.74,10.92-7.08,1.92a7.06,7.06,0,0,0-3.84,2,6.1,6.1,0,0,0-1.26,4.14v1.8a9.64,9.64,0,0,0,1,4.74,3.54,3.54,0,0,0,3.36,1.68,4,4,0,0,0,2.37-.66,5.17,5.17,0,0,0,1.53-1.74,7.77,7.77,0,0,0,.84-2.46l1.86,6.72h-2a26,26,0,0,1-1.86,5.61,9.21,9.21,0,0,1-3.51,4A11.39,11.39,0,0,1,413.91,831.06Zm11.58-.84L426,818.1h-.6V793.92l-.24-2.46q0-4.68-1.65-6.75t-6.09-2.07a22.76,22.76,0,0,0-7.35,1.23,49.23,49.23,0,0,0-6.57,2.73l1-13.38a27.91,27.91,0,0,1,4.38-2.07,36.65,36.65,0,0,1,5.49-1.56,31.65,31.65,0,0,1,6.45-.63,26.54,26.54,0,0,1,9,1.38,15.26,15.26,0,0,1,6.27,4.11,17,17,0,0,1,3.63,6.9A36,36,0,0,1,441,791v39.18Z"/><path d="M449.25,830.22V770h16l-.6,12.42.78.12v47.7Zm25.5-40.62a15,15,0,0,0-.42-3.84,4.37,4.37,0,0,0-1.38-2.34,4.07,4.07,0,0,0-2.64-.78,4.69,4.69,0,0,0-2.37.6A4.83,4.83,0,0,0,466.2,785a7.26,7.26,0,0,0-.93,2.64l-3.3-7.26h3.36a21.14,21.14,0,0,1,2-5.64,10.32,10.32,0,0,1,3.93-4.05,13.06,13.06,0,0,1,6.72-1.53,12.72,12.72,0,0,1,7.41,2,11.29,11.29,0,0,1,4.17,5.91,31,31,0,0,1,1.32,9.75v43.44H474.75Z"/><path d="M512,831.06q-7.38,0-10.47-5.79t-3.09-16.83V792.6q0-11.64,3.06-17.55t10.62-5.91a11.55,11.55,0,0,1,6.12,1.44,9.74,9.74,0,0,1,3.63,4,22.91,22.91,0,0,1,1.95,5.79h3.66l-3,9.84a17.4,17.4,0,0,0-.57-4.35,5.24,5.24,0,0,0-1.65-2.7,4.5,4.5,0,0,0-2.94-.93,3.76,3.76,0,0,0-3.69,2.13,15.39,15.39,0,0,0-1.05,6.51V809a15,15,0,0,0,1.08,6.48,3.87,3.87,0,0,0,3.78,2.16,4.47,4.47,0,0,0,2.4-.63,5.46,5.46,0,0,0,1.74-1.77,7.74,7.74,0,0,0,1-2.58l2.4,7h-2.76a21.44,21.44,0,0,1-2,5.82,10.16,10.16,0,0,1-3.81,4.14A12.33,12.33,0,0,1,512,831.06Zm12.36-.84.54-12.6-.42-1.5V782l-.18-17.4V750.66h16v79.56Z"/><ellipse cx="117.54" cy="790.44" rx="44.08" ry="45.36"/><path class="cls-8" d="M84.92,790.46c2.72,1,5.45,1.89,8.21,2.62a55.87,55.87,0,0,0,8.31,1.6c.69.09,1.39.13,2.08.18s1.38.06,2.06,0a23.55,23.55,0,0,0,4-.36,16.42,16.42,0,0,0,3.77-1.12,13.92,13.92,0,0,0,3.23-2l1.5-1.45.42-.41.46-.38c.3-.24.59-.51.92-.73a19.83,19.83,0,0,1,4-2.3,22.39,22.39,0,0,1,4.39-1.33,27.26,27.26,0,0,1,4.48-.54,36.64,36.64,0,0,1,4.45.1c1.47.14,2.92.35,4.36.62a39.39,39.39,0,0,1,8.34,2.6,69.35,69.35,0,0,0-8.53-1c-1.42-.09-2.84-.12-4.24-.08a41.31,41.31,0,0,0-4.18.3,28.67,28.67,0,0,0-4.05.77c-.66.17-1.31.38-2,.59l-.94.36c-.31.12-.61.27-.92.4a18.42,18.42,0,0,0-3.4,2c-.27.19-.51.42-.77.63l-.37.32-.35.34-.74.73-.88.83a16,16,0,0,1-4.07,2.51,18.32,18.32,0,0,1-4.52,1.2,23.38,23.38,0,0,1-4.57.18,31.29,31.29,0,0,1-4.45-.56A36.91,36.91,0,0,1,96.78,796c-1.4-.44-2.78-.92-4.13-1.48a47.29,47.29,0,0,1-7.74-4Z"/><path class="cls-8" d="M88.34,780.3c2.44.87,4.89,1.64,7.36,2.27a50.9,50.9,0,0,0,7.44,1.38c.62.08,1.24.11,1.85.16s1.23,0,1.84,0a20.43,20.43,0,0,0,3.6-.33,14.76,14.76,0,0,0,3.33-1,12.2,12.2,0,0,0,2.85-1.81l1.34-1.29.38-.37c.13-.12.27-.23.41-.34s.54-.47.83-.67a18.2,18.2,0,0,1,3.67-2.07,19.93,19.93,0,0,1,4-1.19,25.15,25.15,0,0,1,4-.47,31.34,31.34,0,0,1,4,.12,39.38,39.38,0,0,1,3.92.58,34.5,34.5,0,0,1,7.45,2.41,62.73,62.73,0,0,0-7.65-.83,36.9,36.9,0,0,0-3.79,0c-1.25,0-2.5.14-3.72.29a26.78,26.78,0,0,0-3.61.7c-.59.15-1.16.34-1.73.53l-.83.32c-.28.11-.54.25-.82.37a16,16,0,0,0-3,1.8c-.24.17-.45.37-.68.55l-.33.28-.31.31-.66.64-.79.76a14.34,14.34,0,0,1-3.69,2.27,16.06,16.06,0,0,1-4.09,1.08,20.25,20.25,0,0,1-4.11.15,26.52,26.52,0,0,1-4-.52,32,32,0,0,1-3.85-1c-1.25-.4-2.49-.84-3.7-1.35a42.2,42.2,0,0,1-6.9-3.67Z"/><path class="cls-8" d="M94.91,768.76c1.93.61,3.84,1.15,5.76,1.59a43,43,0,0,0,5.74,1,22.44,22.44,0,0,0,2.83.1,15.11,15.11,0,0,0,2.72-.27,11.36,11.36,0,0,0,2.5-.77,9.22,9.22,0,0,0,2.11-1.34l1-1q.3-.3.63-.57c.22-.17.43-.36.66-.52a13.73,13.73,0,0,1,2.91-1.64,17.9,17.9,0,0,1,6.3-1.26,25.26,25.26,0,0,1,6.17.65,26.93,26.93,0,0,1,3,.85c.48.17.95.35,1.42.54s.93.41,1.38.65c-2-.25-4-.41-5.95-.46a35.59,35.59,0,0,0-5.77.29,22.56,22.56,0,0,0-2.74.57,14.68,14.68,0,0,0-2.55,1,12.55,12.55,0,0,0-2.26,1.36c-.18.13-.33.28-.5.42a4,4,0,0,0-.48.44l-.5.49-.64.6a11.37,11.37,0,0,1-3,1.81,12.68,12.68,0,0,1-3.25.85,15.33,15.33,0,0,1-3.24.09,20.16,20.16,0,0,1-3.13-.43,29.6,29.6,0,0,1-5.86-1.93c-.93-.42-1.85-.87-2.73-1.37a23.66,23.66,0,0,1-2.56-1.64Z"/><path class="cls-8" d="M123.28,802.11c-2.8,1.27-3.85,2.37-8.1,4-4.67,1.76-12.38,4.66-20.4,1.79A21.83,21.83,0,0,1,87,803l-.21-.18.08.27c3.84,13.57,16.87,23,31.69,23,13,0,24.84-7.33,30.07-18.67l0-.09,2.07-4.7C137.14,798.11,128.61,799.69,123.28,802.11Z"/></g></svg>