<svg xmlns="http://www.w3.org/2000/svg" viewBox="0 0 2183.68 763.24"><defs><style>.cls-1{fill:#fff;}</style></defs><g id="Layer_3" data-name="Layer 3"><path class="cls-1" d="M253.3,127.29c.36-.94.73-1.88,1.08-2.79v0h0C254,125.41,253.65,126.34,253.3,127.29Z"/><path class="cls-1" d="M422.26,508.19c-143.2,41.63-237-4.51-290.4-50.54L129.92,456l.69,2.47C166,582.77,286,669.6,422.47,669.6c120.08,0,228.8-67.15,277-171.09l.39-.84-.9-.22C639.47,483,543.2,473.06,422.26,508.19Z"/><path class="cls-1" d="M223.63,448.27a4.26,4.26,0,0,0,6.24-4.47,161.35,161.35,0,0,1-2.15-33.89c4.05-97,93.24-172,199.21-167.54a209.58,209.58,0,0,1,37.8,5,4.26,4.26,0,0,0,3.35-7.69l-56.74-22.53-.77-.16q-3.1-.64-6.3-1.18l-.22,0q-1.12-.18-2.25-.33l-1.19-.21c-.56-.08-1.12-.17-1.7-.23q-1.2-.18-2.43-.33l-.17,0c-2.07-.25-4.19-.48-6.33-.68-.8-.09-1.6-.15-2.4-.21h-.25l-.69-.05-.66,0c-.41,0-.77-.06-1.17-.07l-2.19-.16-.42,0q-1.53-.09-3.09-.15c-.35,0-.72,0-1.08,0-1,0-2-.06-3-.07-2.41,0-4.84,0-7.32,0q-6.92.1-14.17.68c-2.42.2-4.86.43-7.34.71-6,.67-12.26,1.61-18.62,2.81-1.09.21-2.19.42-3.29.65-.93.18-1.87.38-2.81.59s-2.06.44-3.11.68q-3.57.81-7.22,1.73c-5.45,1.4-11,3-16.65,4.77l-.47.15c-2.67.86-5.37,1.75-8.1,2.71-1.45.51-2.89,1-4.34,1.55q-12.74,4.65-26.15,10.75-2.68,1.23-5.42,2.52c-1.55.74-3.1,1.49-4.67,2.26s-3.14,1.55-4.71,2.34-3,1.5-4.49,2.22-2.9,1.4-4.33,2.06c-2.13,1-4.22,1.91-6.24,2.78-1.36.59-2.69,1.14-4,1.66s-2.59,1-3.86,1.51q-4.74,1.79-9.09,3.12c-1.75.54-3.43,1-5.07,1.44-1.1.29-2.17.55-3.22.79-18.89,4.26-31.21,1.18-38.74-6.7-.38-.4-.76-.83-1.12-1.26-6.88-8.18-9.26-20.85-8.79-35.63,0-.39,0-.78,0-1.19,0-.14,0-.29,0-.45,0-.44,0-.89.08-1.33,0-.6.07-1.2.11-1.79.07-.87.13-1.73.2-2.59s.13-1.61.22-2.44l.15-1.25c0-.31.07-.63.11-.94.07-.62.15-1.23.22-1.85,0-.23.06-.45.1-.68.08-.65.17-1.3.27-1.93s.18-1.36.29-2l0-.22c.1-.68.21-1.35.31-2,.07-.33.13-.67.19-1,.32-1.91.68-3.86,1.06-5.81a1.91,1.91,0,0,0,.06-.33c.19-.89.37-1.8.56-2.7s.35-1.64.53-2.46c.51-2.46,1.1-4.93,1.72-7.4q.41-1.74.87-3.48c.12-.49.26-1,.39-1.47.38-1.46.77-2.89,1.17-4.34.06-.2.11-.4.17-.59.31-1.1.61-2.19.93-3.27.22-.79.45-1.57.69-2.35.16-.51.31-1,.46-1.56.26-.88.53-1.75.79-2.62.51-1.68,1-3.37,1.57-5a6.45,6.45,0,0,1,.21-.62q1-3.11,2-6.15c.83-2.49,1.68-4.93,2.52-7.34.41-1.21.84-2.39,1.26-3.58.53-1.45,1.05-2.92,1.6-4.34.07-.18.13-.36.2-.53.49-1.36,1-2.69,1.49-4,.24-.62.47-1.25.71-1.87.35-.93.69-1.83,1-2.74h0a4.25,4.25,0,0,0-7.14-4.35,211.38,211.38,0,0,0,54.68,328.91Z"/><path class="cls-1" d="M151.72,220.05c0-.54,0-1.09.06-1.64,0,.16,0,.31,0,.45C151.75,219.27,151.73,219.66,151.72,220.05Z"/><path class="cls-1" d="M152.17,212.7c.1-1.21.22-2.45.37-3.69l-.15,1.25C152.3,211.09,152.24,211.89,152.17,212.7Z"/><path class="cls-1" d="M158,179.6c-.62,2.47-1.21,4.94-1.72,7.4C156.82,184.55,157.4,182.08,158,179.6Z"/><path class="cls-1" d="M158,179.6c.4-1.65.83-3.28,1.26-4.95-.13.49-.27,1-.39,1.47Q158.41,177.86,158,179.6Z"/><path class="cls-1" d="M159.26,174.65c.44-1.63.88-3.29,1.34-4.93-.06.19-.11.39-.17.59C160,171.76,159.64,173.19,159.26,174.65Z"/><path class="cls-1" d="M169.78,140.78q1.42-4,2.86-7.92c-.55,1.42-1.07,2.89-1.6,4.34C170.62,138.39,170.19,139.57,169.78,140.78Z"/><path class="cls-1" d="M386,213.68l.66,0c-1.32-.11-2.67-.19-4-.27l2.19.16C385.21,213.62,385.57,213.64,386,213.68Z"/><path class="cls-1" d="M404.05,215.8c-1.14-.19-2.29-.37-3.44-.54l1.19.21Q402.93,215.62,404.05,215.8Z"/><path class="cls-1" d="M428.36,221.55a1.82,1.82,0,0,1-.25-.07l.6.19Z"/><path class="cls-1" d="M436.71,224.37c-.74-.28-1.5-.55-2.27-.79.85.29,1.7.6,2.54.9A2.18,2.18,0,0,1,436.71,224.37Z"/><path class="cls-1" d="M468.08,239.7l.11.05-2-1.21,1.77,1.09Z"/><path class="cls-1" d="M468,239.63l-1.77-1.09c-.66-.4-1.34-.8-2-1.19s-1.36-.81-2.06-1.2L460,235l-4.39-2.33c-.37-.18-.74-.36-1.11-.56-.76-.36-1.51-.74-2.27-1.12l-1.16-.54c-.94-.44-1.88-.89-2.82-1.29l-.41-.2-.41-.18c-1-.44-1.92-.86-2.89-1.26l-1.56-.66c-1.34-.56-2.7-1.09-4.08-1.61l-1.69-.65-.24-.09c-.84-.3-1.69-.61-2.54-.9a2.17,2.17,0,0,0-.36-.12l-1.8-.63-1.86-.61c-.57-.17-1.14-.36-1.71-.55l-.6-.19a1.27,1.27,0,0,0-.24-.07l-1.31-.4c-.86-.25-1.71-.51-2.58-.75l-.77-.22c-.88-.25-1.76-.48-2.65-.72l-.38-.09-1.24-.33-.16,0-.17,0-.2-.05-1.84-.45-1.22-.28c-.64-.15-1.28-.3-1.92-.43l-1.08-.23-.67-.15-.34-.07,56.74,22.53Z"/><path class="cls-1" d="M263.66,198.13a52.27,52.27,0,1,0-49.6-59.33c-.22,1.63-.37,3.26-.44,4.94A52.24,52.24,0,0,0,263.66,198.13Z"/><path class="cls-1" d="M724.36,307.58a129.17,129.17,0,0,0-61.29-64.82,2.6,2.6,0,0,0-3.14,4.05c1.23,1.35,2.48,2.78,3.76,4.23l1,1.19,1,1.21.47.57c.85,1,1.69,2,2.54,3,.52.61,1,1.22,1.53,1.84,0,0,0,0,0,0,.71.85,1.41,1.72,2.11,2.6.21.24.42.5.61.76.81,1,1.63,2,2.42,3.08.42.52.81,1.06,1.22,1.58l.22.29c.54.7,1.08,1.41,1.6,2.13l.55.75c.37.49.73,1,1.09,1.48l1.09,1.5c.14.21.29.41.42.62,1.27,1.81,2.51,3.61,3.68,5.44.53.77,1,1.56,1.5,2.34a2.46,2.46,0,0,1,.22.36q1.27,2,2.41,4l.32.55.68,1.22c.47.82.91,1.64,1.32,2.45l.62,1.19c.11.22.24.46.33.68a5.19,5.19,0,0,1,.33.67c.25.49.47,1,.69,1.44.3.67.61,1.34.9,2q.6,1.39,1.11,2.76c.14.36.27.7.39,1,.33.91.64,1.81.9,2.7.11.35.2.68.29,1,.26.88.46,1.74.63,2.59.07.25.11.52.16.78s.13.65.17,1a27,27,0,0,1,.33,2.78c0,.28,0,.56.05.83.64,14.83-11.38,24.6-48.62,20.73l-4.33-.42-4.25-.33-3.9-.24-3-.14c-1,0-2-.07-3-.11q-3.86-.09-7.56-.06h-.33l-2.13,0-1.19,0q-1.39,0-2.79.09c-.83,0-1.65.07-2.47.12a4.19,4.19,0,0,0-.5,0l-.61,0c-.73,0-1.45.09-2.17.15l-1.82.13c-1.69.13-3.35.28-5,.47-.8.08-1.62.18-2.41.28l-2.4.3c-.79.1-1.57.22-2.36.35s-1.47.22-2.19.35-1.65.27-2.46.42-1.48.26-2.21.41-1.48.29-2.21.45c-1.52.32-3,.65-4.45,1-2.09.52-4.14,1.07-6.13,1.64l-1.71.51c-.8.24-1.59.48-2.36.74-1.91.61-3.75,1.26-5.56,1.94-2,.74-4,1.54-5.93,2.37l-1.45.62L560,344c-.22.09-.43.18-.65.29s-.53.23-.77.35l-.13.06-1,.47c-.41.19-.81.39-1.21.6s-.75.38-1.11.56h0l-.49.26c-.43.21-.84.44-1.26.66s-.75.42-1.13.63-.53.27-.78.42h0c-.25.15-.51.31-.77.45l-1.33.76-1.31.77-1.11.68-1.29.82L517.92,377.2a2.6,2.6,0,0,0,3.59,3.65A129,129,0,0,1,542.1,369.7c59.77-25.72,127.31-2.23,150.84,52.48a98.81,98.81,0,0,1,6.18,19.88,2.62,2.62,0,0,0,4.56,1.21A129.6,129.6,0,0,0,724.36,307.58Z"/><path class="cls-1" d="M532.55,361.52l-.11.11c.37-.34.77-.67,1.17-1C533.25,360.92,532.89,361.23,532.55,361.52Z"/><path class="cls-1" d="M517.87,377.23l0,0,.05-.09A.58.58,0,0,1,517.87,377.23Z"/><path class="cls-1" d="M545.34,352c-.11.07-.24.17-.36.23l-.56.37-1.37.91-1.33.92h0l-.14.1-.32.23c-.77.55-1.53,1.09-2.27,1.65l-.38.28c-.55.42-1.08.82-1.6,1.24-.08,0-.17.13-.25.18l-.07.06-1,.78c-.3.23-.59.48-.88.71l-1,.79-.24.21c-.4.33-.8.66-1.17,1,0,0,0,0,0,0-1,.89-2,1.78-2.95,2.68l-.73.7c-.46.44-.91.89-1.38,1.36-.13.11-.25.25-.39.39l-1.33,1.35c-.36.37-.72.76-1.07,1.14s-.7.77-1,1.13-.69.77-1,1.15l-1,1.14-1,1.15c-.9,1.1-1.76,2.18-2.59,3.27l-.05.09,27.65-25.39Z"/><path class="cls-1" d="M553.31,347.27c-.64.35-1.28.69-1.91,1.05.25-.15.51-.28.78-.42S552.93,347.47,553.31,347.27Z"/><path class="cls-1" d="M560,344l1.3-.63c-.91.42-1.83.83-2.72,1.27.24-.12.5-.23.77-.35S559.73,344.1,560,344Z"/><path class="cls-1" d="M553.38,336.48l1.22,1.42c-.12-.16-.25-.3-.38-.46Z"/><path class="cls-1" d="M565.72,351.92l1.21,1.7-.34-.5C566.29,352.72,566,352.32,565.72,351.92Z"/><path class="cls-1" d="M599.29,297.16A25.59,25.59,0,0,0,637,265.73a22.93,22.93,0,0,0-1.06-2.17,25.59,25.59,0,1,0-36.61,33.6Z"/><path class="cls-1" d="M1016.14,393.68q-8.57,0-12.77-5.83t-4.21-17v-4q0-11.43,5.31-16.69t16.57-7.88l12.81-3.18,2.36,14.85-9.62,2.61a9.6,9.6,0,0,0-5.23,2.78,8.29,8.29,0,0,0-1.71,5.63v2.45a13.1,13.1,0,0,0,1.3,6.44q1.31,2.29,4.58,2.29a5.44,5.44,0,0,0,3.22-.9,7.16,7.16,0,0,0,2.08-2.37,10.62,10.62,0,0,0,1.14-3.34l2.53,9.14h-2.77a36,36,0,0,1-2.53,7.63,12.56,12.56,0,0,1-4.78,5.43A15.52,15.52,0,0,1,1016.14,393.68Zm15.75-1.14.73-16.48h-.81V343.17l-.33-3.35q0-6.36-2.24-9.18t-8.29-2.81a31.07,31.07,0,0,0-10,1.67,68,68,0,0,0-8.94,3.71l1.39-18.2a37.59,37.59,0,0,1,6-2.81,49.88,49.88,0,0,1,7.46-2.12,43.12,43.12,0,0,1,8.77-.86,36.17,36.17,0,0,1,12.29,1.88,20.8,20.8,0,0,1,8.53,5.59,23,23,0,0,1,4.93,9.38,49.06,49.06,0,0,1,1.59,13.18v53.29Z"/><path class="cls-1" d="M1082,393.68a40.59,40.59,0,0,1-11.22-1.42,39.35,39.35,0,0,1-8.28-3.31l-1.39-19.5a74.46,74.46,0,0,0,8.16,3.71,25.94,25.94,0,0,0,9.31,1.59c2.77,0,4.72-.54,5.83-1.63a5.87,5.87,0,0,0,1.68-4.41v-.89a6.84,6.84,0,0,0-1-3.64,12.05,12.05,0,0,0-3.47-3.3c-1.66-1.14-4-2.69-7.06-4.65a39.46,39.46,0,0,1-8-6.33,20.32,20.32,0,0,1-4.49-7.34,28.62,28.62,0,0,1-1.39-9.26v-1.15q0-11,6.41-16.85t18.73-5.84a33.67,33.67,0,0,1,10.45,1.52,29.51,29.51,0,0,1,7.51,3.46l1.38,18.28a44.86,44.86,0,0,0-7.1-3.42,23.78,23.78,0,0,0-8.57-1.47,11.76,11.76,0,0,0-4.32.65,4.8,4.8,0,0,0-2.41,1.92,5.87,5.87,0,0,0-.78,3.14V334a6.07,6.07,0,0,0,1.27,3.83,15.91,15.91,0,0,0,3.67,3.27c1.61,1.09,3.55,2.34,5.84,3.75a39.6,39.6,0,0,1,8.44,6A19.55,19.55,0,0,1,1106,358a28.79,28.79,0,0,1,1.55,10.12v1.47q0,11.5-6.24,17.79T1082,393.68Z"/><path class="cls-1" d="M1126.39,304.49q-6,0-8.69-3.06a11.75,11.75,0,0,1-2.73-8.12v-.9a11.56,11.56,0,0,1,2.73-8.12q2.73-3,8.69-3t8.65,3a11.45,11.45,0,0,1,2.78,8.12v.9a11.63,11.63,0,0,1-2.78,8.12Q1132.27,304.49,1126.39,304.49Zm-10.93,88.05V310.61h22v81.93Z"/><path class="cls-1" d="M1166.54,393.68a40.49,40.49,0,0,1-11.22-1.42A39.35,39.35,0,0,1,1147,389l-1.39-19.5a74.46,74.46,0,0,0,8.16,3.71,25.89,25.89,0,0,0,9.3,1.59c2.78,0,4.72-.54,5.84-1.63a5.9,5.9,0,0,0,1.67-4.41v-.89a6.75,6.75,0,0,0-1-3.64,11.92,11.92,0,0,0-3.47-3.3q-2.49-1.71-7.05-4.65a38.91,38.91,0,0,1-8-6.33,20.18,20.18,0,0,1-4.49-7.34,28.35,28.35,0,0,1-1.39-9.26v-1.15q0-11,6.41-16.85t18.73-5.84a33.6,33.6,0,0,1,10.44,1.52,29.34,29.34,0,0,1,7.51,3.46l1.39,18.28a44.86,44.86,0,0,0-7.1-3.42,23.82,23.82,0,0,0-8.57-1.47,11.79,11.79,0,0,0-4.33.65,4.73,4.73,0,0,0-2.4,1.92,5.87,5.87,0,0,0-.78,3.14V334a6,6,0,0,0,1.27,3.83,15.7,15.7,0,0,0,3.67,3.27c1.6,1.09,3.55,2.34,5.83,3.75a39.43,39.43,0,0,1,8.45,6,19.4,19.4,0,0,1,4.77,7.18,28.55,28.55,0,0,1,1.56,10.12v1.47q0,11.5-6.25,17.79T1166.54,393.68Z"/><path class="cls-1" d="M1555.08,395.26V291h22.36V395.26Zm14.44-84.05V291h29.63v20.24Zm.25,45.86V336.75h28.56v20.32Z"/><path class="cls-1" d="M1634.81,396.81q-14.2,0-21.38-8.16t-7.18-24.07V343.93q0-15.92,7.18-24t21.38-8.12q14.12,0,21.3,8.12t7.18,24v20.65q0,15.92-7.18,24.07T1634.81,396.81Zm0-17.87A5.34,5.34,0,0,0,1640,376q1.52-2.9,1.51-8.93V341.48q0-6.12-1.51-9a5.36,5.36,0,0,0-5.18-2.86q-3.84,0-5.3,2.86t-1.47,9v25.63q0,6,1.47,8.93C1630.48,378,1632.25,378.94,1634.81,378.94Z"/><path class="cls-1" d="M1695.2,368.58a20.78,20.78,0,0,0,.57,5.3,5.89,5.89,0,0,0,1.88,3.18,5.53,5.53,0,0,0,3.59,1.07,6.29,6.29,0,0,0,3.3-.86,6.58,6.58,0,0,0,2.33-2.41,10.08,10.08,0,0,0,1.22-3.51l4.49,9.79H1708a29.74,29.74,0,0,1-2.73,7.72,13.8,13.8,0,0,1-5.27,5.5c-2.28,1.37-5.36,2.05-9.22,2.05a17.3,17.3,0,0,1-10.08-2.7,15.35,15.35,0,0,1-5.67-8,41.68,41.68,0,0,1-1.79-13.18V313.33h22Zm34.68-55.25v81.93h-21.71l.82-16.81-1.06-.16v-65Z"/><path class="cls-1" d="M1741.8,395.26V313.33h21.7l-.81,16.89,1.06.16v64.88ZM1776.48,340a20.49,20.49,0,0,0-.57-5.22,6,6,0,0,0-1.88-3.18,5.53,5.53,0,0,0-3.59-1.06,6.39,6.39,0,0,0-3.22.81,6.72,6.72,0,0,0-2.37,2.37,9.81,9.81,0,0,0-1.26,3.59l-4.49-9.87h4.57a29.07,29.07,0,0,1,2.73-7.68,14.05,14.05,0,0,1,5.35-5.5,17.72,17.72,0,0,1,9.14-2.08q6.19,0,10.08,2.69a15.35,15.35,0,0,1,5.67,8,42.29,42.29,0,0,1,1.79,13.26v59.08h-22Z"/><path class="cls-1" d="M1827.08,396.41q-10,0-14.24-7.88t-4.21-22.89V344.09q0-15.82,4.17-23.87t14.44-8a15.74,15.74,0,0,1,8.32,1.95,13.25,13.25,0,0,1,4.94,5.43,31.18,31.18,0,0,1,2.65,7.88h5l-4.08,13.38a23.65,23.65,0,0,0-.77-5.92,7.24,7.24,0,0,0-2.25-3.67,6.14,6.14,0,0,0-4-1.26,5.13,5.13,0,0,0-5,2.89q-1.42,2.91-1.43,8.86v24.64q0,5.88,1.47,8.82a5.27,5.27,0,0,0,5.15,2.94,6.1,6.1,0,0,0,3.26-.86,7.48,7.48,0,0,0,2.37-2.41,10.48,10.48,0,0,0,1.38-3.51l3.27,9.47h-3.76a28.78,28.78,0,0,1-2.65,7.91,13.69,13.69,0,0,1-5.18,5.63A16.68,16.68,0,0,1,1827.08,396.41Zm16.81-1.15.73-17.13-.57-2V329.65l-.24-23.67V287.05h21.79V395.26Z"/><path class="cls-1" d="M1891.71,396.41q-8.57,0-12.77-5.84t-4.21-17v-4q0-11.43,5.31-16.69T1896.6,345l12.82-3.18,2.36,14.85-9.63,2.61a9.6,9.6,0,0,0-5.22,2.78,8.29,8.29,0,0,0-1.71,5.63v2.45a13.1,13.1,0,0,0,1.3,6.44c.87,1.53,2.4,2.29,4.57,2.29a5.45,5.45,0,0,0,3.23-.9,7.22,7.22,0,0,0,2.08-2.36,10.77,10.77,0,0,0,1.14-3.35l2.53,9.14h-2.77a36,36,0,0,1-2.53,7.63,12.56,12.56,0,0,1-4.78,5.43A15.51,15.51,0,0,1,1891.71,396.41Zm15.75-1.15.73-16.48h-.81V345.89l-.33-3.35q0-6.36-2.24-9.18t-8.29-2.81a31.07,31.07,0,0,0-10,1.67,67.42,67.42,0,0,0-8.94,3.71l1.39-18.2a37.88,37.88,0,0,1,6-2.81,50,50,0,0,1,7.47-2.12,43.15,43.15,0,0,1,8.78-.86,36.15,36.15,0,0,1,12.28,1.88,20.8,20.8,0,0,1,8.53,5.59,23,23,0,0,1,4.93,9.38,49.06,49.06,0,0,1,1.59,13.18v53.29Z"/><path class="cls-1" d="M1934.39,331.28V313.57h42.92l-1.46,17.71Zm28.15,65.13q-7.17,0-11.75-2.45a15.24,15.24,0,0,1-6.81-7.43,29.67,29.67,0,0,1-2.25-12.24V316.51h21.63v52.56c0,2.66.56,4.57,1.67,5.71s3,1.71,5.59,1.71a16.3,16.3,0,0,0,3.88-.45,24.26,24.26,0,0,0,3.47-1.1l-1.39,18.36a30.83,30.83,0,0,1-6.12,2.21A32,32,0,0,1,1962.54,396.41ZM1942.14,315V296l21.38-2.7-.81,21.79Z"/><path class="cls-1" d="M1996.17,307.21c-4,0-6.87-1-8.7-3.06a11.75,11.75,0,0,1-2.73-8.12v-.9a11.56,11.56,0,0,1,2.73-8.12c1.83-2,4.72-3,8.7-3s6.8,1,8.65,3a11.49,11.49,0,0,1,2.77,8.12v.9a11.67,11.67,0,0,1-2.77,8.12C2003,306.19,2000.08,307.21,1996.17,307.21Zm-10.94,88.05V313.33h22v81.93Z"/><path class="cls-1" d="M2046.11,396.81q-14.2,0-21.38-8.16t-7.18-24.07V343.93q0-15.92,7.18-24t21.38-8.12q14.12,0,21.3,8.12t7.18,24v20.65q0,15.92-7.18,24.07T2046.11,396.81Zm0-17.87a5.35,5.35,0,0,0,5.18-2.9q1.52-2.9,1.51-8.93V341.48q0-6.12-1.51-9a5.36,5.36,0,0,0-5.18-2.86q-3.84,0-5.31,2.86t-1.47,9v25.63q0,6,1.47,8.93C2041.78,378,2043.55,378.94,2046.11,378.94Z"/><path class="cls-1" d="M2085,395.26V313.33h21.71l-.82,16.89,1.06.16v64.88ZM2119.63,340a20.49,20.49,0,0,0-.57-5.22,6,6,0,0,0-1.87-3.18,5.53,5.53,0,0,0-3.59-1.06,6.43,6.43,0,0,0-3.23.81,6.62,6.62,0,0,0-2.36,2.37,9.82,9.82,0,0,0-1.27,3.59l-4.49-9.87h4.57a28.73,28.73,0,0,1,2.74-7.68,14,14,0,0,1,5.34-5.5,17.75,17.75,0,0,1,9.14-2.08q6.21,0,10.08,2.69a15.35,15.35,0,0,1,5.67,8,42,42,0,0,1,1.8,13.26v59.08h-22Z"/><path class="cls-1" d="M1262.27,398.42h-22.52V294.12h22.52Zm-7.75-62.84h30v19.5h-30Zm45.53,62.84h-22.6V294.12h22.6Z"/><path class="cls-1" d="M1326.82,399.56q-8.57,0-12.77-5.83t-4.2-17v-4q0-11.41,5.3-16.69t16.57-7.87l12.81-3.18,2.37,14.85-9.63,2.61a9.66,9.66,0,0,0-5.23,2.77,8.33,8.33,0,0,0-1.71,5.63v2.45a13.11,13.11,0,0,0,1.31,6.45c.87,1.52,2.39,2.29,4.57,2.29a5.44,5.44,0,0,0,3.22-.9,7,7,0,0,0,2.08-2.37,10.46,10.46,0,0,0,1.14-3.34l2.53,9.13h-2.77a35.5,35.5,0,0,1-2.53,7.64,12.48,12.48,0,0,1-4.78,5.42A15.42,15.42,0,0,1,1326.82,399.56Zm15.75-1.14.74-16.49h-.82V349.05l-.33-3.35c0-4.24-.74-7.3-2.24-9.18s-4.26-2.82-8.28-2.82a30.83,30.83,0,0,0-10,1.68,66.65,66.65,0,0,0-8.94,3.71l1.39-18.2a38.93,38.93,0,0,1,6-2.82,50,50,0,0,1,7.47-2.12,43.07,43.07,0,0,1,8.77-.85,36.16,36.16,0,0,1,12.28,1.87,20.93,20.93,0,0,1,8.53,5.59A23.26,23.26,0,0,1,1362,332a49,49,0,0,1,1.59,13.18v53.29Z"/><path class="cls-1" d="M1374.89,398.42V316.48h21.7l-.81,16.9,1.06.16v64.88Zm34.68-55.25A20.38,20.38,0,0,0,1409,338a6,6,0,0,0-1.88-3.19,5.58,5.58,0,0,0-3.59-1.06,6.4,6.4,0,0,0-3.22.82,6.49,6.49,0,0,0-2.37,2.37,9.63,9.63,0,0,0-1.26,3.59l-4.49-9.88h4.57a29,29,0,0,1,2.73-7.67,14.14,14.14,0,0,1,5.35-5.51,17.72,17.72,0,0,1,9.14-2.08,17.32,17.32,0,0,1,10.07,2.69,15.39,15.39,0,0,1,5.68,8,42.38,42.38,0,0,1,1.79,13.26v59.09h-22Z"/><path class="cls-1" d="M1460.17,399.56q-10.05,0-14.25-7.87t-4.2-22.9V347.25q0-15.83,4.16-23.87t14.45-8a15.65,15.65,0,0,1,8.32,2,13.31,13.31,0,0,1,4.94,5.43,31.11,31.11,0,0,1,2.65,7.87h5L1477.14,344a23.09,23.09,0,0,0-.78-5.92,7.08,7.08,0,0,0-2.24-3.67,6.09,6.09,0,0,0-4-1.27,5.13,5.13,0,0,0-5,2.9q-1.42,2.89-1.43,8.85v24.65c0,3.92.49,6.85,1.47,8.81a5.27,5.27,0,0,0,5.14,2.94,6,6,0,0,0,3.27-.86,7.55,7.55,0,0,0,2.37-2.4,10.65,10.65,0,0,0,1.38-3.51l3.27,9.46h-3.76a28.74,28.74,0,0,1-2.65,7.92,13.75,13.75,0,0,1-5.18,5.63A16.77,16.77,0,0,1,1460.17,399.56Zm16.81-1.14.73-17.14-.57-2V332.81l-.24-23.67V290.21h21.78V398.42Z"/><path class="cls-1" d="M923.71,282.62c-33.11,0-60,27.62-60,61.7S890.6,406,923.71,406s59.95-27.62,59.95-61.69S956.82,282.62,923.71,282.62Zm-30.77,32.21c2.61.83,5.22,1.56,7.83,2.17a57.88,57.88,0,0,0,7.81,1.31,31,31,0,0,0,3.84.14,21.5,21.5,0,0,0,3.71-.37,15.17,15.17,0,0,0,3.39-1,12.56,12.56,0,0,0,2.87-1.84l1.39-1.34a10.49,10.49,0,0,1,.86-.77c.3-.24.58-.5.9-.72a18.79,18.79,0,0,1,4-2.21,23.89,23.89,0,0,1,8.56-1.72,34.49,34.49,0,0,1,8.4.88,36,36,0,0,1,4,1.16c.65.23,1.3.48,1.94.74s1.27.55,1.88.88a77.21,77.21,0,0,0-8.09-.63,47.42,47.42,0,0,0-7.85.4,30.43,30.43,0,0,0-3.73.77,20.79,20.79,0,0,0-3.47,1.28,17,17,0,0,0-3.07,1.86c-.24.17-.46.38-.69.57a7.33,7.33,0,0,0-.65.6l-.68.67-.87.82a15.51,15.51,0,0,1-4,2.46,17.58,17.58,0,0,1-4.42,1.15,21.8,21.8,0,0,1-4.41.13,29.92,29.92,0,0,1-4.26-.59,40.69,40.69,0,0,1-8-2.63c-1.26-.57-2.51-1.18-3.71-1.87a31.15,31.15,0,0,1-3.49-2.22Zm-9,15.7c3.33,1.18,6.66,2.23,10,3.08a68.68,68.68,0,0,0,10.12,1.88c.84.11,1.68.15,2.52.21s1.67.07,2.5.05a28.23,28.23,0,0,0,4.89-.45,20.13,20.13,0,0,0,4.53-1.36,17.13,17.13,0,0,0,3.88-2.46l1.82-1.76.52-.5.55-.47c.38-.3.74-.63,1.13-.9a23.64,23.64,0,0,1,5-2.81,27.5,27.5,0,0,1,5.38-1.63,35.28,35.28,0,0,1,5.48-.64,42.82,42.82,0,0,1,5.44.16c1.8.18,3.57.45,5.33.79A46.85,46.85,0,0,1,963.22,327a86.28,86.28,0,0,0-10.4-1.13c-1.73-.1-3.45-.13-5.15-.06s-3.4.18-5.07.39a37.55,37.55,0,0,0-4.9.95c-.8.21-1.58.47-2.35.72l-1.14.44c-.38.15-.74.34-1.11.49a21.74,21.74,0,0,0-4.1,2.46c-.32.23-.61.5-.91.75l-.46.38-.42.42-.89.88-1.08,1a19.76,19.76,0,0,1-5,3.09,22.09,22.09,0,0,1-5.56,1.47,27.64,27.64,0,0,1-5.59.2,36.29,36.29,0,0,1-5.44-.7,44.28,44.28,0,0,1-5.24-1.36c-1.7-.55-3.39-1.14-5-1.84a56.28,56.28,0,0,1-9.39-5Zm-4.66,13.86,0,0c3.69,1.36,7.41,2.57,11.16,3.55a74.33,74.33,0,0,0,11.3,2.18c1,.13,1.89.18,2.83.25s1.88.09,2.81.06a31.17,31.17,0,0,0,5.5-.48,22.55,22.55,0,0,0,5.13-1.53,18.6,18.6,0,0,0,4.4-2.78l2-2,.57-.55c.2-.18.41-.35.62-.52.41-.33.81-.69,1.25-1a26.64,26.64,0,0,1,5.52-3.12,31,31,0,0,1,6-1.82,38.2,38.2,0,0,1,6.09-.73,49,49,0,0,1,6.06.15c2,.18,4,.47,5.93.84a53.5,53.5,0,0,1,11.34,3.53A94,94,0,0,0,956.25,339c-1.92-.12-3.85-.17-5.76-.1s-3.81.18-5.68.4a40.3,40.3,0,0,0-5.51,1.05c-.9.23-1.78.51-2.65.8l-1.28.49c-.43.16-.83.37-1.25.55a24.21,24.21,0,0,0-4.63,2.76c-.37.26-.69.57-1,.85l-.51.43-.48.47-1,1-1.19,1.13a21.61,21.61,0,0,1-5.54,3.41,24.22,24.22,0,0,1-6.16,1.64,31.52,31.52,0,0,1-6.2.24,43.3,43.3,0,0,1-6-.75,50,50,0,0,1-5.84-1.49c-1.91-.6-3.79-1.26-5.63-2A64,64,0,0,1,879.33,344.39Zm86.72,23.08c-7.11,15.43-23.17,25.39-40.9,25.39-20.15,0-37.88-12.89-43.1-31.33l-.1-.37.28.25A29.54,29.54,0,0,0,892.75,368c10.91,3.91,21.41,0,27.76-2.43,5.77-2.17,7.2-3.68,11-5.41,7.25-3.28,18.85-5.43,37.41.78l-2.82,6.39Z"/><path class="cls-1" d="M1294,478.5V434.09h3.42L1319,467.33,1340.66,434H1344V478.5h-6V447.73l-17.63,27.6h-2.79l-17.7-27.6V478.5Z"/><path class="cls-1" d="M1355.63,448.05h5.64v17.76a7.83,7.83,0,0,0,2.38,6.09,9.61,9.61,0,0,0,6.69,2.16,10.82,10.82,0,0,0,8.38-3.56V448.05h5.64V478.5h-5.07l-.38-2.79q-3.5,3.3-9.52,3.29-6.47,0-10.12-3.48t-3.64-9.71Z"/><path class="cls-1" d="M1397.34,449.67q3.14-2.26,9.1-2.26,7,0,10.72,3.18v5.07q-3.18-3-10.09-3-7.48,0-7.48,3.42a2.94,2.94,0,0,0,1.81,2.54,18.92,18.92,0,0,0,5.74,1.71q6.4,1.14,9.42,3.49a8.14,8.14,0,0,1-.48,13q-3.49,2.36-10.15,2.35-7.35,0-11.54-3.17v-5.08q3.73,3,11.1,3.05a16,16,0,0,0,6.31-1q2.31-1,2.31-2.79a3,3,0,0,0-1.8-2.57,20.07,20.07,0,0,0-6-1.8q-6.29-1.14-9.2-3.46a7.51,7.51,0,0,1-2.91-6.19A7.41,7.41,0,0,1,1397.34,449.67Z"/><path class="cls-1" d="M1445.83,448.05V453h-9.45v15.54a5.47,5.47,0,0,0,1.49,4,5.39,5.39,0,0,0,4,1.49,6.23,6.23,0,0,0,4-1.27v4.69a10,10,0,0,1-5.45,1.46,9.67,9.67,0,0,1-7-2.54,8.76,8.76,0,0,1-2.67-6.66V453h-5.58v-4.95h5.58V443.1l5.65-2.79v7.74Z"/><path class="cls-1" d="M1456.11,476.5a7.87,7.87,0,0,1-3.24-6.63,8.08,8.08,0,0,1,3.62-7q3.62-2.53,10-2.54a51.63,51.63,0,0,1,7.23.64V459.4q0-6.72-9.07-6.72-6,0-9.45,2.73v-5.14a18.92,18.92,0,0,1,10.47-2.67q6.66,0,10.21,2.89t3.55,8.28v13q0,2.79,3.81,2.79v3.75a6.52,6.52,0,0,1-2.92.57,6.41,6.41,0,0,1-5.71-2.73,16.22,16.22,0,0,1-9.64,2.79Q1459.35,478.94,1456.11,476.5Zm4.88-10.21a3.93,3.93,0,0,0-2.41,3.52,3.6,3.6,0,0,0,1.94,3.2,10.37,10.37,0,0,0,5.36,1.17,11.18,11.18,0,0,0,7.86-2.79v-5.83a49.14,49.14,0,0,0-6.09-.57A14.14,14.14,0,0,0,1461,466.29Z"/><path class="cls-1" d="M1491.25,448.05h5.08l.25,3.68a12.19,12.19,0,0,1,9.71-4.25,14.68,14.68,0,0,1,4.25.63v5.52a10.71,10.71,0,0,0-13.64,3.24V478.5h-5.65Z"/><path class="cls-1" d="M1520.5,452a15.11,15.11,0,0,1,11.23-4.35,14.82,14.82,0,0,1,8.18,2.16V432.82h5.71V478.5h-5.08l-.25-2a14.86,14.86,0,0,1-8.56,2.41,15.06,15.06,0,0,1-11.23-4.38,15.45,15.45,0,0,1-4.32-11.35A15.29,15.29,0,0,1,1520.5,452Zm4.5,3.58a10.93,10.93,0,0,0,14.91,15.93V455.09a11.47,11.47,0,0,0-14.91.44Z"/><path class="cls-1" d="M1576.41,449.67c2.1-1.51,5.13-2.26,9.11-2.26q7,0,10.72,3.18v5.07q-3.18-3-10.09-3-7.49,0-7.48,3.42a2.94,2.94,0,0,0,1.8,2.54,19.09,19.09,0,0,0,5.75,1.71q6.4,1.14,9.42,3.49a8.14,8.14,0,0,1-.48,13q-3.5,2.36-10.15,2.35c-4.91,0-8.75-1.06-11.55-3.17v-5.08q3.75,3,11.11,3.05a16,16,0,0,0,6.31-1q2.31-1,2.31-2.79a3,3,0,0,0-1.8-2.57,20.07,20.07,0,0,0-6-1.8q-6.29-1.14-9.2-3.46a7.51,7.51,0,0,1-2.92-6.19A7.44,7.44,0,0,1,1576.41,449.67Z"/><path class="cls-1" d="M1632.59,452.33q4.13,4.92,3.61,12.78h-24.48a10,10,0,0,0,4.28,6.5,15.11,15.11,0,0,0,8.78,2.38,14.86,14.86,0,0,0,10-3.23v5.33a19.07,19.07,0,0,1-10.84,3q-8.13,0-13-4.41a15,15,0,0,1-4.92-11.7,15.37,15.37,0,0,1,4.29-11.23,14.86,14.86,0,0,1,11.13-4.38A13.88,13.88,0,0,1,1632.59,452.33Zm-2,8.15a8.48,8.48,0,0,0-2.85-5.9,9.4,9.4,0,0,0-6.41-2.22,9.54,9.54,0,0,0-6.41,2.22,10,10,0,0,0-3.3,5.9Z"/><path class="cls-1" d="M1670.59,452.33q4.11,4.92,3.61,12.78h-24.49a10,10,0,0,0,4.29,6.5,15.11,15.11,0,0,0,8.78,2.38,14.87,14.87,0,0,0,10-3.23v5.33a19.08,19.08,0,0,1-10.85,3q-8.12,0-13-4.41a15,15,0,0,1-4.92-11.7,15.4,15.4,0,0,1,4.28-11.23,14.9,14.9,0,0,1,11.14-4.38A13.89,13.89,0,0,1,1670.59,452.33Zm-2,8.15a8.45,8.45,0,0,0-2.86-5.9,9.36,9.36,0,0,0-6.4-2.22,9.52,9.52,0,0,0-6.41,2.22,10,10,0,0,0-3.3,5.9Z"/><path class="cls-1" d="M1686.25,452a15.13,15.13,0,0,1,11.23-4.35,14.86,14.86,0,0,1,8.19,2.16V432.82h5.71V478.5h-5.08l-.25-2a14.89,14.89,0,0,1-8.57,2.41,15.07,15.07,0,0,1-11.23-4.38,15.48,15.48,0,0,1-4.31-11.35A15.32,15.32,0,0,1,1686.25,452Zm4.51,3.58a10.93,10.93,0,0,0,14.91,15.93V455.09a10.52,10.52,0,0,0-7.24-2.54A10.41,10.41,0,0,0,1690.76,455.53Z"/></g></svg>